<?xml version="1.0" encoding="UTF-8"?>
<svg xmlns="http://www.w3.org/2000/svg" xmlns:xlink="http://www.w3.org/1999/xlink" width="23.3694pt" height="20.2851pt" viewBox="0 0 23.3694 20.2851">
<defs>
<clipPath id="clip-0">
<path clip-rule="nonzero" d="M 4.710938 2.40625 L 18.871094 2.40625 L 18.871094 16.566406 L 4.710938 16.566406 Z M 4.710938 2.40625 "/>
</clipPath>
</defs>
<rect x="-2.33694" y="-2.02851" width="28.04328" height="24.34212" fill="rgb(100%, 100%, 100%)" fill-opacity="1"/>
<path fill-rule="nonzero" fill="rgb(0%, 0%, 0%)" fill-opacity="1" d="M 17.699219 3.578125 C 20.960938 6.839844 20.960938 12.132812 17.699219 15.394531 C 14.4375 18.65625 9.144531 18.65625 5.882812 15.394531 C 2.621094 12.132812 2.621094 6.839844 5.882812 3.578125 C 9.144531 0.316406 14.4375 0.316406 17.699219 3.578125 Z M 17.699219 3.578125 "/>
<g clip-path="url(#clip-0)">
<path fill="none" stroke-width="3" stroke-linecap="butt" stroke-linejoin="miter" stroke="rgb(100%, 100%, 100%)" stroke-opacity="1" stroke-miterlimit="4" d="M 7.82065 1.340194 C 9.609712 3.129256 9.609712 6.0316 7.82065 7.820662 C 6.031587 9.609725 3.129244 9.609725 1.340181 7.820662 C -0.448881 6.0316 -0.448881 3.129256 1.340181 1.340194 C 3.129244 -0.448869 6.031587 -0.448869 7.82065 1.340194 Z M 7.82065 1.340194 " transform="matrix(1, 0, 0, 1, 7.2106, 4.9059)"/>
</g>
</svg>
