<?xml version="1.0" encoding="UTF-8"?>
<svg xmlns="http://www.w3.org/2000/svg" xmlns:xlink="http://www.w3.org/1999/xlink" width="50.4735pt" height="97.972pt" viewBox="0 0 50.4735 97.972">
<defs>
<clipPath id="clip-0">
<path clip-rule="nonzero" d="M 0 0 L 50.472656 0 L 50.472656 97.972656 L 0 97.972656 Z M 0 0 "/>
</clipPath>
<clipPath id="clip-1">
<path clip-rule="nonzero" d="M 8 9.625 L 13 9.625 L 13 96.976562 L 8 96.976562 Z M 8 9.625 "/>
</clipPath>
<clipPath id="clip-2">
<path clip-rule="nonzero" d="M 8 49.40625 L 12 49.40625 L 12 59 L 8 59 Z M 8 49.40625 "/>
</clipPath>
<clipPath id="clip-3">
<path clip-rule="nonzero" d="M 8 2 L 13 2 L 13 17.421875 L 8 17.421875 Z M 8 2 "/>
</clipPath>
<clipPath id="clip-4">
<path clip-rule="nonzero" d="M 36 9.625 L 41 9.625 L 41 96.976562 L 36 96.976562 Z M 36 9.625 "/>
</clipPath>
<clipPath id="clip-5">
<path clip-rule="nonzero" d="M 37 62 L 41 62 L 41 72.011719 L 37 72.011719 Z M 37 62 "/>
</clipPath>
<clipPath id="clip-6">
<path clip-rule="nonzero" d="M 37 2 L 42 2 L 42 17.421875 L 37 17.421875 Z M 37 2 "/>
</clipPath>
</defs>
<g clip-path="url(#clip-0)">
<rect x="-5.04735" y="-9.7972" width="60.5682" height="117.5664" fill="rgb(100%, 100%, 100%)" fill-opacity="1"/>
</g>
<g clip-path="url(#clip-1)">
<path fill="none" stroke-width="4" stroke-linecap="butt" stroke-linejoin="miter" stroke="rgb(0%, 0%, 0%)" stroke-opacity="1" stroke-miterlimit="4" d="M 0.0004375 -0.00136875 L 85.352 -0.00136875 " transform="matrix(0, -1, -1, 0, 10.2291, 95.977)"/>
</g>
<g clip-path="url(#clip-2)">
<path fill="none" stroke-width="3" stroke-linecap="butt" stroke-linejoin="miter" stroke="rgb(0%, 0%, 0%)" stroke-opacity="1" stroke-miterlimit="4" d="M -0.00035 0.00136875 L 6.9059 0.00136875 " transform="matrix(0, 1, 1, 0, 10.2291, 50.4066)"/>
</g>
<path fill-rule="nonzero" fill="rgb(0%, 0%, 0%)" fill-opacity="1" d="M 16.828125 55.8125 L 10.230469 69.011719 L 3.628906 55.8125 Z M 16.828125 55.8125 "/>
<g clip-path="url(#clip-3)">
<path fill="none" stroke-width="4" stroke-linecap="butt" stroke-linejoin="miter" stroke="rgb(0%, 0%, 0%)" stroke-opacity="1" stroke-miterlimit="4" d="M 0.001075 -0.000975 L 6.376075 -0.000975 L -5.623925 -0.000975 " transform="matrix(0, 1, 1, 0, 10.3291, 10.0458)"/>
</g>
<path fill-rule="nonzero" fill="rgb(0%, 0%, 0%)" fill-opacity="1" d="M 3.328125 16.421875 L 17.328125 16.421875 L 17.328125 2.421875 L 3.328125 2.421875 Z M 3.328125 16.421875 "/>
<g clip-path="url(#clip-4)">
<path fill="none" stroke-width="4" stroke-linecap="butt" stroke-linejoin="miter" stroke="rgb(0%, 0%, 0%)" stroke-opacity="1" stroke-miterlimit="4" d="M 0.0004375 0.0014375 L 85.352 0.0014375 " transform="matrix(0, -1, -1, 0, 38.9155, 95.977)"/>
</g>
<g clip-path="url(#clip-5)">
<path fill="none" stroke-width="3" stroke-linecap="butt" stroke-linejoin="miter" stroke="rgb(0%, 0%, 0%)" stroke-opacity="1" stroke-miterlimit="4" d="M 11.698869 -0.0014375 L 18.605119 -0.0014375 " transform="matrix(0, 1, 1, 0, 38.9155, 52.4066)"/>
</g>
<path fill-rule="nonzero" fill="rgb(0%, 0%, 0%)" fill-opacity="1" d="M 32.316406 65.605469 L 38.914062 52.40625 L 45.515625 65.605469 Z M 32.316406 65.605469 "/>
<g clip-path="url(#clip-6)">
<path fill="none" stroke-width="4" stroke-linecap="butt" stroke-linejoin="miter" stroke="rgb(0%, 0%, 0%)" stroke-opacity="1" stroke-miterlimit="4" d="M 0.001075 0.000125 L 6.376075 0.000125 L -5.623925 0.000125 " transform="matrix(0, 1, 1, 0, 39.0155, 10.0458)"/>
</g>
<path fill-rule="nonzero" fill="rgb(0%, 0%, 0%)" fill-opacity="1" d="M 32.015625 9.421875 C 32.015625 13.289062 35.148438 16.421875 39.015625 16.421875 C 42.882812 16.421875 46.015625 13.289062 46.015625 9.421875 C 46.015625 5.558594 42.882812 2.421875 39.015625 2.421875 C 35.148438 2.421875 32.015625 5.558594 32.015625 9.421875 Z M 32.015625 9.421875 "/>
</svg>
