<?xml version="1.0" encoding="UTF-8"?>
<svg xmlns="http://www.w3.org/2000/svg" xmlns:xlink="http://www.w3.org/1999/xlink" width="42.7302pt" height="91.9172pt" viewBox="0 0 42.7302 91.9172">
<defs>
<clipPath id="clip-0">
<path clip-rule="nonzero" d="M 15.699219 3.710938 L 29.859375 3.710938 L 29.859375 17.871094 L 15.699219 17.871094 Z M 15.699219 3.710938 "/>
</clipPath>
<clipPath id="clip-1">
<path clip-rule="nonzero" d="M 4.9375 32.035156 L 40.140625 32.035156 L 40.140625 91.304688 L 4.9375 91.304688 Z M 4.9375 32.035156 "/>
</clipPath>
<clipPath id="clip-2">
<path clip-rule="nonzero" d="M 22 49 L 42.730469 49 L 42.730469 75 L 22 75 Z M 22 49 "/>
</clipPath>
<clipPath id="clip-3">
<path clip-rule="nonzero" d="M 29.6875 74.679688 L 22.289062 54.351562 L 36.472656 49.191406 L 43.871094 69.515625 Z M 29.6875 74.679688 "/>
</clipPath>
<clipPath id="clip-4">
<path clip-rule="nonzero" d="M 27 52 L 41 52 L 41 67 L 27 67 Z M 27 52 "/>
</clipPath>
<clipPath id="clip-5">
<path clip-rule="nonzero" d="M 29.6875 74.679688 L 22.289062 54.351562 L 36.472656 49.191406 L 43.871094 69.515625 Z M 29.6875 74.679688 "/>
</clipPath>
<clipPath id="clip-6">
<path clip-rule="nonzero" d="M 1 48 L 23 48 L 23 74 L 1 74 Z M 1 48 "/>
</clipPath>
<clipPath id="clip-7">
<path clip-rule="nonzero" d="M 1.738281 68.613281 L 8.417969 48.117188 L 22.757812 52.789062 L 16.074219 73.285156 Z M 1.738281 68.613281 "/>
</clipPath>
<clipPath id="clip-8">
<path clip-rule="nonzero" d="M 4 51 L 18 51 L 18 66 L 4 66 Z M 4 51 "/>
</clipPath>
<clipPath id="clip-9">
<path clip-rule="nonzero" d="M 1.738281 68.613281 L 8.417969 48.117188 L 22.757812 52.789062 L 16.074219 73.285156 Z M 1.738281 68.613281 "/>
</clipPath>
</defs>
<rect x="-4.27302" y="-9.19172" width="51.27624" height="110.30064" fill="rgb(100%, 100%, 100%)" fill-opacity="1"/>
<path fill-rule="nonzero" fill="rgb(0%, 0%, 0%)" fill-opacity="1" d="M 28.6875 4.882812 C 31.953125 8.148438 31.953125 13.4375 28.6875 16.699219 C 25.425781 19.964844 20.132812 19.964844 16.871094 16.699219 C 13.609375 13.4375 13.609375 8.148438 16.871094 4.882812 C 20.132812 1.621094 25.425781 1.621094 28.6875 4.882812 Z M 28.6875 4.882812 "/>
<g clip-path="url(#clip-0)">
<path fill="none" stroke-width="3" stroke-linecap="butt" stroke-linejoin="miter" stroke="rgb(100%, 100%, 100%)" stroke-opacity="1" stroke-miterlimit="4" d="M 7.820431 1.342888 C 9.609494 3.13195 9.609494 6.030388 7.820431 7.81945 C 6.031369 9.608513 3.129025 9.608513 1.339963 7.81945 C -0.4491 6.030388 -0.4491 3.13195 1.339963 1.342888 C 3.129025 -0.446175 6.031369 -0.446175 7.820431 1.342888 Z M 7.820431 1.342888 " transform="matrix(1, 0, 0, 1, 18.1991, 6.2118)"/>
</g>
<path fill-rule="nonzero" fill="rgb(100%, 100%, 100%)" fill-opacity="1" d="M 18.40625 34.570312 L 29.480469 34.570312 L 29.480469 23.570312 L 18.40625 23.570312 Z M 18.40625 34.570312 "/>
<g clip-path="url(#clip-1)">
<path fill="none" stroke-width="4" stroke-linecap="butt" stroke-linejoin="miter" stroke="rgb(0%, 0%, 0%)" stroke-opacity="1" stroke-miterlimit="4" d="M 0.0000875 55.102419 C 2.910244 20.618044 8.683681 -0.694456 14.925869 0.0164813 C 20.9454 0.703981 26.425869 21.825075 29.218838 55.102419 " transform="matrix(1, 0, 0, 1, 7.9296, 35.0343)"/>
</g>
<g clip-path="url(#clip-2)">
<g clip-path="url(#clip-3)">
<path fill="none" stroke-width="3" stroke-linecap="butt" stroke-linejoin="miter" stroke="rgb(0%, 0%, 0%)" stroke-opacity="1" stroke-miterlimit="4" d="M -0.000930711 -0.0018286 L 6.153548 0.791602 L 7.642277 0.984271 " transform="matrix(-0.34202, -0.939693, 0.939693, -0.34202, 35.6264, 71.2485)"/>
</g>
</g>
<g clip-path="url(#clip-4)">
<g clip-path="url(#clip-5)">
<path fill-rule="nonzero" fill="rgb(0%, 0%, 0%)" fill-opacity="1" d="M 40.707031 63.746094 L 31.375 52.316406 L 27.828125 66.640625 Z M 40.707031 63.746094 "/>
</g>
</g>
<g clip-path="url(#clip-6)">
<g clip-path="url(#clip-7)">
<path fill="none" stroke-width="3" stroke-linecap="butt" stroke-linejoin="miter" stroke="rgb(0%, 0%, 0%)" stroke-opacity="1" stroke-miterlimit="4" d="M 0.000224876 2.582937 L 6.075871 1.760784 L 7.564466 1.563075 " transform="matrix(0.309963, -0.950749, 0.950749, 0.309963, 7.6028, 69.2621)"/>
</g>
</g>
<g clip-path="url(#clip-8)">
<g clip-path="url(#clip-9)">
<path fill-rule="nonzero" fill="rgb(0%, 0%, 0%)" fill-opacity="1" d="M 17.652344 65.222656 L 13.539062 51.046875 L 4.667969 62.84375 Z M 17.652344 65.222656 "/>
</g>
</g>
</svg>
