<?xml version="1.0" encoding="UTF-8"?>
<svg xmlns="http://www.w3.org/2000/svg" xmlns:xlink="http://www.w3.org/1999/xlink" width="44.6914pt" height="92.8576pt" viewBox="0 0 44.6914 92.8576">
<defs>
<clipPath id="clip-0">
<path clip-rule="nonzero" d="M 17.101562 4.390625 L 31.261719 4.390625 L 31.261719 18.550781 L 17.101562 18.550781 Z M 17.101562 4.390625 "/>
</clipPath>
<clipPath id="clip-1">
<path clip-rule="nonzero" d="M 6.339844 32.714844 L 41.542969 32.714844 L 41.542969 91.984375 L 6.339844 91.984375 Z M 6.339844 32.714844 "/>
</clipPath>
<clipPath id="clip-2">
<path clip-rule="nonzero" d="M 23 49 L 44.691406 49 L 44.691406 76 L 23 76 Z M 23 49 "/>
</clipPath>
<clipPath id="clip-3">
<path clip-rule="nonzero" d="M 31.089844 75.355469 L 23.691406 55.03125 L 37.875 49.871094 L 45.273438 70.195312 Z M 31.089844 75.355469 "/>
</clipPath>
<clipPath id="clip-4">
<path clip-rule="nonzero" d="M 29 52 L 43 52 L 43 68 L 29 68 Z M 29 52 "/>
</clipPath>
<clipPath id="clip-5">
<path clip-rule="nonzero" d="M 31.089844 75.355469 L 23.691406 55.03125 L 37.875 49.871094 L 45.273438 70.195312 Z M 31.089844 75.355469 "/>
</clipPath>
<clipPath id="clip-6">
<path clip-rule="nonzero" d="M 2 48 L 24 48 L 24 74 L 2 74 Z M 2 48 "/>
</clipPath>
<clipPath id="clip-7">
<path clip-rule="nonzero" d="M 23.261719 53.175781 L 16.582031 73.671875 L 2.242188 69 L 8.925781 48.503906 Z M 23.261719 53.175781 "/>
</clipPath>
<clipPath id="clip-8">
<path clip-rule="nonzero" d="M 7 56 L 21 56 L 21 71 L 7 71 Z M 7 56 "/>
</clipPath>
<clipPath id="clip-9">
<path clip-rule="nonzero" d="M 23.261719 53.175781 L 16.582031 73.671875 L 2.242188 69 L 8.925781 48.503906 Z M 23.261719 53.175781 "/>
</clipPath>
</defs>
<rect x="-4.46914" y="-9.28576" width="53.62968" height="111.42912" fill="rgb(100%, 100%, 100%)" fill-opacity="1"/>
<path fill-rule="nonzero" fill="rgb(0%, 0%, 0%)" fill-opacity="1" d="M 30.089844 5.5625 C 33.351562 8.828125 33.351562 14.117188 30.089844 17.378906 C 26.828125 20.644531 21.535156 20.644531 18.273438 17.378906 C 15.011719 14.117188 15.011719 8.828125 18.273438 5.5625 C 21.535156 2.300781 26.828125 2.300781 30.089844 5.5625 Z M 30.089844 5.5625 "/>
<g clip-path="url(#clip-0)">
<path fill="none" stroke-width="3" stroke-linecap="butt" stroke-linejoin="miter" stroke="rgb(100%, 100%, 100%)" stroke-opacity="1" stroke-miterlimit="4" d="M 7.820675 1.343475 C 9.609737 3.128631 9.609737 6.030975 7.820675 7.820038 C 6.031612 9.6091 3.129269 9.6091 1.340206 7.820038 C -0.448856 6.030975 -0.448856 3.128631 1.340206 1.343475 C 3.129269 -0.445587 6.031612 -0.445587 7.820675 1.343475 Z M 7.820675 1.343475 " transform="matrix(1, 0, 0, 1, 19.6012, 6.8909)"/>
</g>
<path fill-rule="nonzero" fill="rgb(100%, 100%, 100%)" fill-opacity="1" d="M 19.808594 35.25 L 30.882812 35.25 L 30.882812 24.25 L 19.808594 24.25 Z M 19.808594 35.25 "/>
<g clip-path="url(#clip-1)">
<path fill="none" stroke-width="4" stroke-linecap="butt" stroke-linejoin="miter" stroke="rgb(0%, 0%, 0%)" stroke-opacity="1" stroke-miterlimit="4" d="M 0.00043125 55.102906 C 2.906681 20.614625 8.684025 -0.693969 14.926213 0.0169688 C 20.945744 0.704469 26.426213 21.825563 29.219181 55.102906 " transform="matrix(1, 0, 0, 1, 9.3316, 35.7135)"/>
</g>
<g clip-path="url(#clip-2)">
<g clip-path="url(#clip-3)">
<path fill="none" stroke-width="3" stroke-linecap="butt" stroke-linejoin="miter" stroke="rgb(0%, 0%, 0%)" stroke-opacity="1" stroke-miterlimit="4" d="M 0.0021985 -0.000430269 L 6.153007 0.791664 L 7.641735 0.984333 " transform="matrix(-0.34202, -0.939693, 0.939693, -0.34202, 37.0285, 71.9277)"/>
</g>
</g>
<g clip-path="url(#clip-4)">
<g clip-path="url(#clip-5)">
<path fill-rule="nonzero" fill="rgb(0%, 0%, 0%)" fill-opacity="1" d="M 42.109375 64.425781 L 32.777344 52.996094 L 29.230469 67.320312 Z M 42.109375 64.425781 "/>
</g>
</g>
<g clip-path="url(#clip-6)">
<g clip-path="url(#clip-7)">
<path fill="none" stroke-width="3" stroke-linecap="butt" stroke-linejoin="miter" stroke="rgb(0%, 0%, 0%)" stroke-opacity="1" stroke-miterlimit="4" d="M -0.000222073 2.582977 L 6.075424 1.760825 L 7.56402 1.563116 " transform="matrix(-0.309963, 0.950749, -0.950749, -0.309963, 17.3971, 52.5274)"/>
</g>
</g>
<g clip-path="url(#clip-8)">
<g clip-path="url(#clip-9)">
<path fill-rule="nonzero" fill="rgb(0%, 0%, 0%)" fill-opacity="1" d="M 7.347656 56.566406 L 11.460938 70.742188 L 20.332031 58.945312 Z M 7.347656 56.566406 "/>
</g>
</g>
</svg>
