<?xml version="1.0" encoding="UTF-8"?>
<svg xmlns="http://www.w3.org/2000/svg" xmlns:xlink="http://www.w3.org/1999/xlink" width="80.45801pt" height="53.01532pt" viewBox="0 0 80.45801 53.01532">
<defs>
<clipPath id="clip-0">
<path clip-rule="nonzero" d="M 70 0 L 80.457031 0 L 80.457031 9 L 70 9 Z M 70 0 "/>
</clipPath>
<clipPath id="clip-1">
<path clip-rule="nonzero" d="M 80 0 L 80.457031 0 L 80.457031 3 L 80 3 Z M 80 0 "/>
</clipPath>
<clipPath id="clip-2">
<path clip-rule="nonzero" d="M 70 8 L 80.457031 8 L 80.457031 21 L 70 21 Z M 70 8 "/>
</clipPath>
<clipPath id="clip-3">
<path clip-rule="nonzero" d="M 80 1 L 80.457031 1 L 80.457031 15 L 80 15 Z M 80 1 "/>
</clipPath>
<clipPath id="clip-4">
<path clip-rule="nonzero" d="M 70 20 L 80.457031 20 L 80.457031 34 L 70 34 Z M 70 20 "/>
</clipPath>
<clipPath id="clip-5">
<path clip-rule="nonzero" d="M 80 14 L 80.457031 14 L 80.457031 27 L 80 27 Z M 80 14 "/>
</clipPath>
<clipPath id="clip-6">
<path clip-rule="nonzero" d="M 70 32 L 80.457031 32 L 80.457031 46 L 70 46 Z M 70 32 "/>
</clipPath>
<clipPath id="clip-7">
<path clip-rule="nonzero" d="M 80 26 L 80.457031 26 L 80.457031 40 L 80 40 Z M 80 26 "/>
</clipPath>
<clipPath id="clip-8">
<path clip-rule="nonzero" d="M 0 44 L 1 44 L 1 53.015625 L 0 53.015625 Z M 0 44 "/>
</clipPath>
<clipPath id="clip-9">
<path clip-rule="nonzero" d="M 27 44 L 43 44 L 43 53.015625 L 27 53.015625 Z M 27 44 "/>
</clipPath>
<clipPath id="clip-10">
<path clip-rule="nonzero" d="M 6 44 L 22 44 L 22 53.015625 L 6 53.015625 Z M 6 44 "/>
</clipPath>
<clipPath id="clip-11">
<path clip-rule="nonzero" d="M 70 44 L 80.457031 44 L 80.457031 53.015625 L 70 53.015625 Z M 70 44 "/>
</clipPath>
<clipPath id="clip-12">
<path clip-rule="nonzero" d="M 48 44 L 64 44 L 64 53.015625 L 48 53.015625 Z M 48 44 "/>
</clipPath>
<clipPath id="clip-13">
<path clip-rule="nonzero" d="M 80 38 L 80.457031 38 L 80.457031 52 L 80 52 Z M 80 38 "/>
</clipPath>
<clipPath id="clip-14">
<path clip-rule="nonzero" d="M 0 50 L 11 50 L 11 53.015625 L 0 53.015625 Z M 0 50 "/>
</clipPath>
<clipPath id="clip-15">
<path clip-rule="nonzero" d="M 17 50 L 32 50 L 32 53.015625 L 17 53.015625 Z M 17 50 "/>
</clipPath>
<clipPath id="clip-16">
<path clip-rule="nonzero" d="M 38 50 L 54 50 L 54 53.015625 L 38 53.015625 Z M 38 50 "/>
</clipPath>
<clipPath id="clip-17">
<path clip-rule="nonzero" d="M 59 50 L 75 50 L 75 53.015625 L 59 53.015625 Z M 59 50 "/>
</clipPath>
<clipPath id="clip-18">
<path clip-rule="nonzero" d="M 80 50 L 80.457031 50 L 80.457031 53.015625 L 80 53.015625 Z M 80 50 "/>
</clipPath>
</defs>
<path fill="none" stroke-width="0.6" stroke-linecap="round" stroke-linejoin="round" stroke="rgb(0%, 0%, 0%)" stroke-opacity="1" stroke-miterlimit="10" d="M 58.414715 100.786781 L 61.949871 106.9235 L 69.016278 106.9235 L 72.551434 100.786781 L 69.016278 94.650063 L 61.949871 94.650063 Z M 58.414715 100.786781 " transform="matrix(1, 0, 0, -1, -72.83659, 102.986)"/>
<path fill="none" stroke-width="0.6" stroke-linecap="round" stroke-linejoin="round" stroke="rgb(0%, 0%, 0%)" stroke-opacity="1" stroke-miterlimit="10" d="M 69.016278 106.9235 L 72.551434 113.060219 L 79.621746 113.060219 L 83.156903 106.9235 L 79.621746 100.786781 L 72.551434 100.786781 Z M 69.016278 106.9235 " transform="matrix(1, 0, 0, -1, -72.83659, 102.986)"/>
<path fill="none" stroke-width="0.6" stroke-linecap="round" stroke-linejoin="round" stroke="rgb(0%, 0%, 0%)" stroke-opacity="1" stroke-miterlimit="10" d="M 100.828778 100.786781 L 104.363934 106.9235 L 111.434246 106.9235 L 114.969403 100.786781 L 111.434246 94.650063 L 104.363934 94.650063 Z M 100.828778 100.786781 " transform="matrix(1, 0, 0, -1, -72.83659, 102.986)"/>
<path fill="none" stroke-width="0.6" stroke-linecap="round" stroke-linejoin="round" stroke="rgb(0%, 0%, 0%)" stroke-opacity="1" stroke-miterlimit="10" d="M 90.227215 106.9235 L 93.762371 113.060219 L 100.828778 113.060219 L 104.363934 106.9235 L 100.828778 100.786781 L 93.762371 100.786781 Z M 90.227215 106.9235 " transform="matrix(1, 0, 0, -1, -72.83659, 102.986)"/>
<path fill="none" stroke-width="0.6" stroke-linecap="round" stroke-linejoin="round" stroke="rgb(0%, 0%, 0%)" stroke-opacity="1" stroke-miterlimit="10" d="M 79.621746 100.786781 L 83.156903 106.9235 L 90.227215 106.9235 L 93.758465 100.786781 L 90.227215 94.650063 L 83.156903 94.650063 Z M 79.621746 100.786781 " transform="matrix(1, 0, 0, -1, -72.83659, 102.986)"/>
<path fill="none" stroke-width="0.6" stroke-linecap="round" stroke-linejoin="round" stroke="rgb(0%, 0%, 0%)" stroke-opacity="1" stroke-miterlimit="10" d="M 111.434246 106.9235 L 114.969403 113.060219 L 122.039715 113.060219 L 125.574871 106.9235 L 122.039715 100.786781 L 114.969403 100.786781 Z M 111.434246 106.9235 " transform="matrix(1, 0, 0, -1, -72.83659, 102.986)"/>
<g clip-path="url(#clip-0)">
<path fill="none" stroke-width="0.6" stroke-linecap="round" stroke-linejoin="round" stroke="rgb(0%, 0%, 0%)" stroke-opacity="1" stroke-miterlimit="10" d="M 143.246746 100.786781 L 146.781903 106.9235 L 153.848309 106.9235 L 157.383465 100.786781 L 153.848309 94.650063 L 146.781903 94.650063 Z M 143.246746 100.786781 " transform="matrix(1, 0, 0, -1, -72.83659, 102.986)"/>
</g>
<path fill="none" stroke-width="0.6" stroke-linecap="round" stroke-linejoin="round" stroke="rgb(0%, 0%, 0%)" stroke-opacity="1" stroke-miterlimit="10" d="M 132.641278 106.9235 L 136.176434 113.060219 L 143.246746 113.060219 L 146.781903 106.9235 L 143.246746 100.786781 L 136.176434 100.786781 Z M 132.641278 106.9235 " transform="matrix(1, 0, 0, -1, -72.83659, 102.986)"/>
<path fill="none" stroke-width="0.6" stroke-linecap="round" stroke-linejoin="round" stroke="rgb(0%, 0%, 0%)" stroke-opacity="1" stroke-miterlimit="10" d="M 122.039715 100.786781 L 125.574871 106.9235 L 132.641278 106.9235 L 136.176434 100.786781 L 132.641278 94.650063 L 125.574871 94.650063 Z M 122.039715 100.786781 " transform="matrix(1, 0, 0, -1, -72.83659, 102.986)"/>
<g clip-path="url(#clip-1)">
<path fill="none" stroke-width="0.6" stroke-linecap="round" stroke-linejoin="round" stroke="rgb(0%, 0%, 0%)" stroke-opacity="1" stroke-miterlimit="10" d="M 153.848309 106.9235 L 157.383465 113.060219 L 164.453778 113.060219 L 167.988934 106.9235 L 164.453778 100.786781 L 157.383465 100.786781 Z M 153.848309 106.9235 " transform="matrix(1, 0, 0, -1, -72.83659, 102.986)"/>
</g>
<path fill="none" stroke-width="0.6" stroke-linecap="round" stroke-linejoin="round" stroke="rgb(0%, 0%, 0%)" stroke-opacity="1" stroke-miterlimit="10" d="M 58.414715 88.540688 L 61.945965 94.677406 L 69.016278 94.677406 L 72.551434 88.540688 L 69.016278 82.403969 L 61.945965 82.403969 Z M 58.414715 88.540688 " transform="matrix(1, 0, 0, -1, -72.83659, 102.986)"/>
<path fill="none" stroke-width="0.6" stroke-linecap="round" stroke-linejoin="round" stroke="rgb(0%, 0%, 0%)" stroke-opacity="1" stroke-miterlimit="10" d="M 69.016278 94.677406 L 72.551434 100.814125 L 79.621746 100.814125 L 83.156903 94.677406 L 79.621746 88.540688 L 72.551434 88.540688 Z M 69.016278 94.677406 " transform="matrix(1, 0, 0, -1, -72.83659, 102.986)"/>
<path fill="none" stroke-width="0.6" stroke-linecap="round" stroke-linejoin="round" stroke="rgb(0%, 0%, 0%)" stroke-opacity="1" stroke-miterlimit="10" d="M 100.828778 88.540688 L 104.363934 94.677406 L 111.434246 94.677406 L 114.969403 88.540688 L 111.434246 82.403969 L 104.363934 82.403969 Z M 100.828778 88.540688 " transform="matrix(1, 0, 0, -1, -72.83659, 102.986)"/>
<path fill="none" stroke-width="0.6" stroke-linecap="round" stroke-linejoin="round" stroke="rgb(0%, 0%, 0%)" stroke-opacity="1" stroke-miterlimit="10" d="M 90.227215 94.677406 L 93.758465 100.814125 L 100.828778 100.814125 L 104.363934 94.677406 L 100.828778 88.540688 L 93.758465 88.540688 Z M 90.227215 94.677406 " transform="matrix(1, 0, 0, -1, -72.83659, 102.986)"/>
<path fill="none" stroke-width="0.6" stroke-linecap="round" stroke-linejoin="round" stroke="rgb(0%, 0%, 0%)" stroke-opacity="1" stroke-miterlimit="10" d="M 79.621746 88.540688 L 83.156903 94.677406 L 90.223309 94.677406 L 93.758465 88.540688 L 90.223309 82.403969 L 83.156903 82.403969 Z M 79.621746 88.540688 " transform="matrix(1, 0, 0, -1, -72.83659, 102.986)"/>
<path fill="none" stroke-width="0.6" stroke-linecap="round" stroke-linejoin="round" stroke="rgb(0%, 0%, 0%)" stroke-opacity="1" stroke-miterlimit="10" d="M 111.434246 94.677406 L 114.969403 100.814125 L 122.035809 100.814125 L 125.570965 94.677406 L 122.035809 88.540688 L 114.969403 88.540688 Z M 111.434246 94.677406 " transform="matrix(1, 0, 0, -1, -72.83659, 102.986)"/>
<g clip-path="url(#clip-2)">
<path fill="none" stroke-width="0.6" stroke-linecap="round" stroke-linejoin="round" stroke="rgb(0%, 0%, 0%)" stroke-opacity="1" stroke-miterlimit="10" d="M 143.246746 88.540688 L 146.781903 94.677406 L 153.848309 94.677406 L 157.383465 88.540688 L 153.848309 82.403969 L 146.781903 82.403969 Z M 143.246746 88.540688 " transform="matrix(1, 0, 0, -1, -72.83659, 102.986)"/>
</g>
<path fill="none" stroke-width="0.6" stroke-linecap="round" stroke-linejoin="round" stroke="rgb(0%, 0%, 0%)" stroke-opacity="1" stroke-miterlimit="10" d="M 132.641278 94.677406 L 136.176434 100.814125 L 143.246746 100.814125 L 146.781903 94.677406 L 143.246746 88.540688 L 136.176434 88.540688 Z M 132.641278 94.677406 " transform="matrix(1, 0, 0, -1, -72.83659, 102.986)"/>
<path fill="none" stroke-width="0.6" stroke-linecap="round" stroke-linejoin="round" stroke="rgb(0%, 0%, 0%)" stroke-opacity="1" stroke-miterlimit="10" d="M 122.035809 88.540688 L 125.570965 94.677406 L 132.641278 94.677406 L 136.176434 88.540688 L 132.641278 82.403969 L 125.570965 82.403969 Z M 122.035809 88.540688 " transform="matrix(1, 0, 0, -1, -72.83659, 102.986)"/>
<g clip-path="url(#clip-3)">
<path fill="none" stroke-width="0.6" stroke-linecap="round" stroke-linejoin="round" stroke="rgb(0%, 0%, 0%)" stroke-opacity="1" stroke-miterlimit="10" d="M 153.848309 94.677406 L 157.383465 100.814125 L 164.453778 100.814125 L 167.988934 94.677406 L 164.453778 88.540688 L 157.383465 88.540688 Z M 153.848309 94.677406 " transform="matrix(1, 0, 0, -1, -72.83659, 102.986)"/>
</g>
<path fill="none" stroke-width="0.6" stroke-linecap="round" stroke-linejoin="round" stroke="rgb(0%, 0%, 0%)" stroke-opacity="1" stroke-miterlimit="10" d="M 58.414715 76.2985 L 61.949871 82.435219 L 69.016278 82.435219 L 72.551434 76.2985 L 69.016278 70.161781 L 61.949871 70.161781 Z M 58.414715 76.2985 " transform="matrix(1, 0, 0, -1, -72.83659, 102.986)"/>
<path fill="none" stroke-width="0.6" stroke-linecap="round" stroke-linejoin="round" stroke="rgb(0%, 0%, 0%)" stroke-opacity="1" stroke-miterlimit="10" d="M 69.016278 82.435219 L 72.551434 88.571938 L 79.621746 88.571938 L 83.156903 82.435219 L 79.621746 76.2985 L 72.551434 76.2985 Z M 69.016278 82.435219 " transform="matrix(1, 0, 0, -1, -72.83659, 102.986)"/>
<path fill="none" stroke-width="0.6" stroke-linecap="round" stroke-linejoin="round" stroke="rgb(0%, 0%, 0%)" stroke-opacity="1" stroke-miterlimit="10" d="M 100.828778 76.2985 L 104.363934 82.435219 L 111.434246 82.435219 L 114.969403 76.2985 L 111.434246 70.161781 L 104.363934 70.161781 Z M 100.828778 76.2985 " transform="matrix(1, 0, 0, -1, -72.83659, 102.986)"/>
<path fill="none" stroke-width="0.6" stroke-linecap="round" stroke-linejoin="round" stroke="rgb(0%, 0%, 0%)" stroke-opacity="1" stroke-miterlimit="10" d="M 90.227215 82.435219 L 93.762371 88.571938 L 100.828778 88.571938 L 104.363934 82.435219 L 100.828778 76.2985 L 93.762371 76.2985 Z M 90.227215 82.435219 " transform="matrix(1, 0, 0, -1, -72.83659, 102.986)"/>
<path fill="none" stroke-width="0.6" stroke-linecap="round" stroke-linejoin="round" stroke="rgb(0%, 0%, 0%)" stroke-opacity="1" stroke-miterlimit="10" d="M 79.621746 76.2985 L 83.156903 82.435219 L 90.227215 82.435219 L 93.762371 76.2985 L 90.227215 70.161781 L 83.156903 70.161781 Z M 79.621746 76.2985 " transform="matrix(1, 0, 0, -1, -72.83659, 102.986)"/>
<path fill="none" stroke-width="0.6" stroke-linecap="round" stroke-linejoin="round" stroke="rgb(0%, 0%, 0%)" stroke-opacity="1" stroke-miterlimit="10" d="M 111.434246 82.435219 L 114.969403 88.571938 L 122.039715 88.571938 L 125.574871 82.435219 L 122.039715 76.2985 L 114.969403 76.2985 Z M 111.434246 82.435219 " transform="matrix(1, 0, 0, -1, -72.83659, 102.986)"/>
<g clip-path="url(#clip-4)">
<path fill="none" stroke-width="0.6" stroke-linecap="round" stroke-linejoin="round" stroke="rgb(0%, 0%, 0%)" stroke-opacity="1" stroke-miterlimit="10" d="M 143.246746 76.2985 L 146.781903 82.435219 L 153.848309 82.435219 L 157.383465 76.2985 L 153.848309 70.161781 L 146.781903 70.161781 Z M 143.246746 76.2985 " transform="matrix(1, 0, 0, -1, -72.83659, 102.986)"/>
</g>
<path fill="none" stroke-width="0.6" stroke-linecap="round" stroke-linejoin="round" stroke="rgb(0%, 0%, 0%)" stroke-opacity="1" stroke-miterlimit="10" d="M 132.641278 82.435219 L 136.176434 88.571938 L 143.246746 88.571938 L 146.781903 82.435219 L 143.246746 76.2985 L 136.176434 76.2985 Z M 132.641278 82.435219 " transform="matrix(1, 0, 0, -1, -72.83659, 102.986)"/>
<path fill="none" stroke-width="0.6" stroke-linecap="round" stroke-linejoin="round" stroke="rgb(0%, 0%, 0%)" stroke-opacity="1" stroke-miterlimit="10" d="M 122.039715 76.2985 L 125.574871 82.435219 L 132.641278 82.435219 L 136.176434 76.2985 L 132.641278 70.161781 L 125.574871 70.161781 Z M 122.039715 76.2985 " transform="matrix(1, 0, 0, -1, -72.83659, 102.986)"/>
<g clip-path="url(#clip-5)">
<path fill="none" stroke-width="0.6" stroke-linecap="round" stroke-linejoin="round" stroke="rgb(0%, 0%, 0%)" stroke-opacity="1" stroke-miterlimit="10" d="M 153.852215 82.435219 L 157.383465 88.571938 L 164.453778 88.571938 L 167.988934 82.435219 L 164.453778 76.2985 L 157.383465 76.2985 Z M 153.852215 82.435219 " transform="matrix(1, 0, 0, -1, -72.83659, 102.986)"/>
</g>
<path fill="none" stroke-width="0.6" stroke-linecap="round" stroke-linejoin="round" stroke="rgb(0%, 0%, 0%)" stroke-opacity="1" stroke-miterlimit="10" d="M 58.414715 64.0485 L 61.945965 70.189125 L 69.016278 70.189125 L 72.551434 64.0485 L 69.016278 57.911781 L 61.945965 57.911781 Z M 58.414715 64.0485 " transform="matrix(1, 0, 0, -1, -72.83659, 102.986)"/>
<path fill="none" stroke-width="0.6" stroke-linecap="round" stroke-linejoin="round" stroke="rgb(0%, 0%, 0%)" stroke-opacity="1" stroke-miterlimit="10" d="M 69.016278 70.189125 L 72.551434 76.325844 L 79.621746 76.325844 L 83.156903 70.189125 L 79.621746 64.0485 L 72.551434 64.0485 Z M 69.016278 70.189125 " transform="matrix(1, 0, 0, -1, -72.83659, 102.986)"/>
<path fill="none" stroke-width="0.6" stroke-linecap="round" stroke-linejoin="round" stroke="rgb(0%, 0%, 0%)" stroke-opacity="1" stroke-miterlimit="10" d="M 100.828778 64.0485 L 104.363934 70.189125 L 111.434246 70.189125 L 114.969403 64.0485 L 111.434246 57.911781 L 104.363934 57.911781 Z M 100.828778 64.0485 " transform="matrix(1, 0, 0, -1, -72.83659, 102.986)"/>
<path fill="none" stroke-width="0.6" stroke-linecap="round" stroke-linejoin="round" stroke="rgb(0%, 0%, 0%)" stroke-opacity="1" stroke-miterlimit="10" d="M 90.223309 70.189125 L 93.758465 76.325844 L 100.828778 76.325844 L 104.363934 70.189125 L 100.828778 64.0485 L 93.758465 64.0485 Z M 90.223309 70.189125 " transform="matrix(1, 0, 0, -1, -72.83659, 102.986)"/>
<path fill="none" stroke-width="0.6" stroke-linecap="round" stroke-linejoin="round" stroke="rgb(0%, 0%, 0%)" stroke-opacity="1" stroke-miterlimit="10" d="M 79.621746 64.0485 L 83.156903 70.189125 L 90.223309 70.189125 L 93.758465 64.0485 L 90.223309 57.911781 L 83.156903 57.911781 Z M 79.621746 64.0485 " transform="matrix(1, 0, 0, -1, -72.83659, 102.986)"/>
<path fill="none" stroke-width="0.6" stroke-linecap="round" stroke-linejoin="round" stroke="rgb(0%, 0%, 0%)" stroke-opacity="1" stroke-miterlimit="10" d="M 111.434246 70.189125 L 114.969403 76.325844 L 122.035809 76.325844 L 125.570965 70.189125 L 122.035809 64.0485 L 114.969403 64.0485 Z M 111.434246 70.189125 " transform="matrix(1, 0, 0, -1, -72.83659, 102.986)"/>
<g clip-path="url(#clip-6)">
<path fill="none" stroke-width="0.6" stroke-linecap="round" stroke-linejoin="round" stroke="rgb(0%, 0%, 0%)" stroke-opacity="1" stroke-miterlimit="10" d="M 143.246746 64.0485 L 146.781903 70.189125 L 153.848309 70.189125 L 157.383465 64.0485 L 153.848309 57.911781 L 146.781903 57.911781 Z M 143.246746 64.0485 " transform="matrix(1, 0, 0, -1, -72.83659, 102.986)"/>
</g>
<path fill="none" stroke-width="0.6" stroke-linecap="round" stroke-linejoin="round" stroke="rgb(0%, 0%, 0%)" stroke-opacity="1" stroke-miterlimit="10" d="M 132.641278 70.189125 L 136.176434 76.325844 L 143.246746 76.325844 L 146.781903 70.189125 L 143.246746 64.0485 L 136.176434 64.0485 Z M 132.641278 70.189125 " transform="matrix(1, 0, 0, -1, -72.83659, 102.986)"/>
<path fill="none" stroke-width="0.6" stroke-linecap="round" stroke-linejoin="round" stroke="rgb(0%, 0%, 0%)" stroke-opacity="1" stroke-miterlimit="10" d="M 122.035809 64.0485 L 125.570965 70.189125 L 132.641278 70.189125 L 136.176434 64.0485 L 132.641278 57.911781 L 125.570965 57.911781 Z M 122.035809 64.0485 " transform="matrix(1, 0, 0, -1, -72.83659, 102.986)"/>
<g clip-path="url(#clip-7)">
<path fill="none" stroke-width="0.6" stroke-linecap="round" stroke-linejoin="round" stroke="rgb(0%, 0%, 0%)" stroke-opacity="1" stroke-miterlimit="10" d="M 153.848309 70.189125 L 157.383465 76.325844 L 164.453778 76.325844 L 167.988934 70.189125 L 164.453778 64.0485 L 157.383465 64.0485 Z M 153.848309 70.189125 " transform="matrix(1, 0, 0, -1, -72.83659, 102.986)"/>
</g>
<g clip-path="url(#clip-8)">
<path fill="none" stroke-width="0.6" stroke-linecap="round" stroke-linejoin="round" stroke="rgb(0%, 0%, 0%)" stroke-opacity="1" stroke-miterlimit="10" d="M 58.414715 51.806313 L 61.949871 57.943031 L 69.016278 57.943031 L 72.551434 51.806313 L 69.016278 45.669594 L 61.949871 45.669594 Z M 58.414715 51.806313 " transform="matrix(1, 0, 0, -1, -72.83659, 102.986)"/>
</g>
<path fill="none" stroke-width="0.6" stroke-linecap="round" stroke-linejoin="round" stroke="rgb(0%, 0%, 0%)" stroke-opacity="1" stroke-miterlimit="10" d="M 69.016278 57.943031 L 72.551434 64.07975 L 79.621746 64.07975 L 83.156903 57.943031 L 79.621746 51.806313 L 72.551434 51.806313 Z M 69.016278 57.943031 " transform="matrix(1, 0, 0, -1, -72.83659, 102.986)"/>
<g clip-path="url(#clip-9)">
<path fill="none" stroke-width="0.6" stroke-linecap="round" stroke-linejoin="round" stroke="rgb(0%, 0%, 0%)" stroke-opacity="1" stroke-miterlimit="10" d="M 100.828778 51.806313 L 104.363934 57.943031 L 111.434246 57.943031 L 114.969403 51.806313 L 111.434246 45.669594 L 104.363934 45.669594 Z M 100.828778 51.806313 " transform="matrix(1, 0, 0, -1, -72.83659, 102.986)"/>
</g>
<path fill="none" stroke-width="0.6" stroke-linecap="round" stroke-linejoin="round" stroke="rgb(0%, 0%, 0%)" stroke-opacity="1" stroke-miterlimit="10" d="M 90.227215 57.943031 L 93.762371 64.07975 L 100.828778 64.07975 L 104.363934 57.943031 L 100.828778 51.806313 L 93.762371 51.806313 Z M 90.227215 57.943031 " transform="matrix(1, 0, 0, -1, -72.83659, 102.986)"/>
<g clip-path="url(#clip-10)">
<path fill="none" stroke-width="0.6" stroke-linecap="round" stroke-linejoin="round" stroke="rgb(0%, 0%, 0%)" stroke-opacity="1" stroke-miterlimit="10" d="M 79.621746 51.806313 L 83.156903 57.943031 L 90.227215 57.943031 L 93.758465 51.806313 L 90.227215 45.669594 L 83.156903 45.669594 Z M 79.621746 51.806313 " transform="matrix(1, 0, 0, -1, -72.83659, 102.986)"/>
</g>
<path fill="none" stroke-width="0.6" stroke-linecap="round" stroke-linejoin="round" stroke="rgb(0%, 0%, 0%)" stroke-opacity="1" stroke-miterlimit="10" d="M 111.434246 57.943031 L 114.969403 64.07975 L 122.039715 64.07975 L 125.574871 57.943031 L 122.039715 51.806313 L 114.969403 51.806313 Z M 111.434246 57.943031 " transform="matrix(1, 0, 0, -1, -72.83659, 102.986)"/>
<g clip-path="url(#clip-11)">
<path fill="none" stroke-width="0.6" stroke-linecap="round" stroke-linejoin="round" stroke="rgb(0%, 0%, 0%)" stroke-opacity="1" stroke-miterlimit="10" d="M 143.246746 51.806313 L 146.781903 57.943031 L 153.848309 57.943031 L 157.383465 51.806313 L 153.848309 45.669594 L 146.781903 45.669594 Z M 143.246746 51.806313 " transform="matrix(1, 0, 0, -1, -72.83659, 102.986)"/>
</g>
<path fill="none" stroke-width="0.6" stroke-linecap="round" stroke-linejoin="round" stroke="rgb(0%, 0%, 0%)" stroke-opacity="1" stroke-miterlimit="10" d="M 132.641278 57.943031 L 136.176434 64.07975 L 143.246746 64.07975 L 146.781903 57.943031 L 143.246746 51.806313 L 136.176434 51.806313 Z M 132.641278 57.943031 " transform="matrix(1, 0, 0, -1, -72.83659, 102.986)"/>
<g clip-path="url(#clip-12)">
<path fill="none" stroke-width="0.6" stroke-linecap="round" stroke-linejoin="round" stroke="rgb(0%, 0%, 0%)" stroke-opacity="1" stroke-miterlimit="10" d="M 122.039715 51.806313 L 125.574871 57.943031 L 132.641278 57.943031 L 136.176434 51.806313 L 132.641278 45.669594 L 125.574871 45.669594 Z M 122.039715 51.806313 " transform="matrix(1, 0, 0, -1, -72.83659, 102.986)"/>
</g>
<g clip-path="url(#clip-13)">
<path fill="none" stroke-width="0.6" stroke-linecap="round" stroke-linejoin="round" stroke="rgb(0%, 0%, 0%)" stroke-opacity="1" stroke-miterlimit="10" d="M 153.848309 57.943031 L 157.383465 64.07975 L 164.453778 64.07975 L 167.988934 57.943031 L 164.453778 51.806313 L 157.383465 51.806313 Z M 153.848309 57.943031 " transform="matrix(1, 0, 0, -1, -72.83659, 102.986)"/>
</g>
<g clip-path="url(#clip-14)">
<path fill="none" stroke-width="0.6" stroke-linecap="round" stroke-linejoin="round" stroke="rgb(0%, 0%, 0%)" stroke-opacity="1" stroke-miterlimit="10" d="M 69.016278 45.696938 L 72.551434 51.833656 L 79.621746 51.833656 L 83.156903 45.696938 L 79.621746 39.560219 L 72.551434 39.560219 Z M 69.016278 45.696938 " transform="matrix(1, 0, 0, -1, -72.83659, 102.986)"/>
</g>
<g clip-path="url(#clip-15)">
<path fill="none" stroke-width="0.6" stroke-linecap="round" stroke-linejoin="round" stroke="rgb(0%, 0%, 0%)" stroke-opacity="1" stroke-miterlimit="10" d="M 90.227215 45.696938 L 93.758465 51.833656 L 100.828778 51.833656 L 104.363934 45.696938 L 100.828778 39.560219 L 93.758465 39.560219 Z M 90.227215 45.696938 " transform="matrix(1, 0, 0, -1, -72.83659, 102.986)"/>
</g>
<g clip-path="url(#clip-16)">
<path fill="none" stroke-width="0.6" stroke-linecap="round" stroke-linejoin="round" stroke="rgb(0%, 0%, 0%)" stroke-opacity="1" stroke-miterlimit="10" d="M 111.434246 45.696938 L 114.969403 51.833656 L 122.035809 51.833656 L 125.570965 45.696938 L 122.035809 39.560219 L 114.969403 39.560219 Z M 111.434246 45.696938 " transform="matrix(1, 0, 0, -1, -72.83659, 102.986)"/>
</g>
<g clip-path="url(#clip-17)">
<path fill="none" stroke-width="0.6" stroke-linecap="round" stroke-linejoin="round" stroke="rgb(0%, 0%, 0%)" stroke-opacity="1" stroke-miterlimit="10" d="M 132.641278 45.696938 L 136.176434 51.833656 L 143.246746 51.833656 L 146.781903 45.696938 L 143.246746 39.560219 L 136.176434 39.560219 Z M 132.641278 45.696938 " transform="matrix(1, 0, 0, -1, -72.83659, 102.986)"/>
</g>
<g clip-path="url(#clip-18)">
<path fill="none" stroke-width="0.6" stroke-linecap="round" stroke-linejoin="round" stroke="rgb(0%, 0%, 0%)" stroke-opacity="1" stroke-miterlimit="10" d="M 153.848309 45.696938 L 157.383465 51.833656 L 164.453778 51.833656 L 167.988934 45.696938 L 164.453778 39.560219 L 157.383465 39.560219 Z M 153.848309 45.696938 " transform="matrix(1, 0, 0, -1, -72.83659, 102.986)"/>
</g>
</svg>
