<?xml version="1.0" encoding="UTF-8"?>
<svg xmlns="http://www.w3.org/2000/svg" xmlns:xlink="http://www.w3.org/1999/xlink" width="508.017pt" height="475.9892pt" viewBox="0 0 508.017 475.9892">
<defs>
<clipPath id="clip-0">
<path clip-rule="nonzero" d="M 0 0 L 508.015625 0 L 508.015625 475.988281 L 0 475.988281 Z M 0 0 "/>
</clipPath>
<clipPath id="clip-1">
<path clip-rule="nonzero" d="M 79 270 L 265 270 L 265 475.988281 L 79 475.988281 Z M 79 270 "/>
</clipPath>
<clipPath id="clip-2">
<path clip-rule="nonzero" d="M 241 270 L 427 270 L 427 475.988281 L 241 475.988281 Z M 241 270 "/>
</clipPath>
</defs>
<g clip-path="url(#clip-0)">
<rect x="-50.8017" y="-47.59892" width="609.6204" height="571.18704" fill="rgb(100%, 100%, 100%)" fill-opacity="1"/>
</g>
<path fill-rule="nonzero" fill="rgb(0%, 0%, 0%)" fill-opacity="1" stroke-width="4" stroke-linecap="butt" stroke-linejoin="miter" stroke="rgb(0%, 0%, 0%)" stroke-opacity="1" stroke-miterlimit="4" d="M 14.798088 2.539556 C 18.184806 5.922369 18.184806 11.414556 14.798088 14.797369 C 11.411369 18.184088 5.923088 18.184088 2.540275 14.797369 C -0.846444 11.414556 -0.846444 5.922369 2.540275 2.539556 C 5.923088 -0.847162 11.411369 -0.847162 14.798088 2.539556 Z M 14.798088 2.539556 " transform="matrix(1, 0, 0, 1, 161.5691, 89.7456)"/>
<path fill="none" stroke-width="2" stroke-linecap="butt" stroke-linejoin="miter" stroke="rgb(0%, 0%, 0%)" stroke-opacity="1" stroke-miterlimit="4" d="M 162.398494 139.659381 L 81.2774 186.7961 L 0.00005625 139.835163 L 0.0664625 47.335163 L 81.2774 -0.000775 L 162.046931 47.069538 Z M 162.398494 139.659381 " transform="matrix(1, 0, 0, 1, 90.4726, 2.0164)"/>
<path fill-rule="nonzero" fill="rgb(0%, 0%, 0%)" fill-opacity="1" stroke-width="4" stroke-linecap="butt" stroke-linejoin="miter" stroke="rgb(0%, 0%, 0%)" stroke-opacity="1" stroke-miterlimit="4" d="M 14.797269 2.539169 C 18.183988 5.925888 18.183988 11.414169 14.797269 14.796981 C 11.414456 18.1837 5.926175 18.1837 2.539456 14.796981 C -0.847262 11.414169 -0.847262 5.925888 2.539456 2.539169 C 5.926175 -0.84755 11.414456 -0.84755 14.797269 2.539169 Z M 14.797269 2.539169 " transform="matrix(1, 0, 0, 1, 240.9957, 227.4413)"/>
<path fill="none" stroke-width="2" stroke-linecap="butt" stroke-linejoin="miter" stroke="rgb(0%, 0%, 0%)" stroke-opacity="1" stroke-miterlimit="4" d="M 162.397531 139.659556 L 81.276437 186.796275 L -0.00090625 139.835338 L 0.0655 47.335338 L 81.276437 -0.0006 L 162.045969 47.069713 Z M 162.397531 139.659556 " transform="matrix(1, 0, 0, 1, 171.372, 141.5006)"/>
<path fill-rule="nonzero" fill="rgb(0%, 0%, 0%)" fill-opacity="1" stroke-width="4" stroke-linecap="butt" stroke-linejoin="miter" stroke="rgb(0%, 0%, 0%)" stroke-opacity="1" stroke-miterlimit="4" d="M 14.797269 2.539169 C 18.183988 5.925888 18.183988 11.414169 14.797269 14.796981 C 11.414456 18.1837 5.926175 18.1837 2.539456 14.796981 C -0.847262 11.414169 -0.847262 5.925888 2.539456 2.539169 C 5.926175 -0.84755 11.414456 -0.84755 14.797269 2.539169 Z M 14.797269 2.539169 " transform="matrix(1, 0, 0, 1, 79.9957, 227.4413)"/>
<path fill="none" stroke-width="2" stroke-linecap="butt" stroke-linejoin="miter" stroke="rgb(0%, 0%, 0%)" stroke-opacity="1" stroke-miterlimit="4" d="M 162.397531 139.659656 L 81.276438 186.796375 L -0.00090625 139.835438 L 0.0655 47.331531 L 81.276438 -0.0005 L 162.045969 47.069813 Z M 162.397531 139.659656 " transform="matrix(1, 0, 0, 1, 9.372, 141.5005)"/>
<path fill-rule="nonzero" fill="rgb(0%, 0%, 0%)" fill-opacity="1" stroke-width="4" stroke-linecap="butt" stroke-linejoin="miter" stroke="rgb(0%, 0%, 0%)" stroke-opacity="1" stroke-miterlimit="4" d="M 14.797537 2.538606 C 18.184256 5.925325 18.184256 11.413606 14.797537 14.796419 C 11.414725 18.183138 5.922537 18.183138 2.539725 14.796419 C -0.846994 11.413606 -0.846994 5.925325 2.539725 2.538606 C 5.922537 -0.848112 11.414725 -0.848112 14.797537 2.538606 Z M 14.797537 2.538606 " transform="matrix(1, 0, 0, 1, 403.2259, 230.6528)"/>
<path fill="none" stroke-width="2" stroke-linecap="butt" stroke-linejoin="miter" stroke="rgb(0%, 0%, 0%)" stroke-opacity="1" stroke-miterlimit="4" d="M 162.3979 139.658994 L 81.276806 186.795713 L -0.0005375 139.834775 L 0.0658688 47.334775 L 81.276806 -0.0011625 L 162.046338 47.06915 Z M 162.3979 139.658994 " transform="matrix(1, 0, 0, 1, 333.6021, 141.7121)"/>
<path fill-rule="nonzero" fill="rgb(0%, 0%, 0%)" fill-opacity="1" stroke-width="4" stroke-linecap="butt" stroke-linejoin="miter" stroke="rgb(0%, 0%, 0%)" stroke-opacity="1" stroke-miterlimit="4" d="M 14.797269 2.539169 C 18.183988 5.925887 18.183988 11.414169 14.797269 14.796981 C 11.414456 18.1837 5.926175 18.1837 2.539456 14.796981 C -0.847262 11.414169 -0.847262 5.925887 2.539456 2.539169 C 5.926175 -0.84755 11.414456 -0.84755 14.797269 2.539169 Z M 14.797269 2.539169 " transform="matrix(1, 0, 0, 1, 322.9957, 90.4413)"/>
<path fill="none" stroke-width="2" stroke-linecap="butt" stroke-linejoin="miter" stroke="rgb(0%, 0%, 0%)" stroke-opacity="1" stroke-miterlimit="4" d="M 162.397531 139.659556 L 81.276437 186.796275 L -0.00090625 139.835338 L 0.0655 47.335338 L 81.276437 -0.0006 L 162.045969 47.069713 Z M 162.397531 139.659556 " transform="matrix(1, 0, 0, 1, 253.372, 2.5006)"/>
<path fill-rule="nonzero" fill="rgb(0%, 0%, 0%)" fill-opacity="1" stroke-width="4" stroke-linecap="butt" stroke-linejoin="miter" stroke="rgb(0%, 0%, 0%)" stroke-opacity="1" stroke-miterlimit="4" d="M 14.798088 2.539556 C 18.184806 5.922369 18.184806 11.414556 14.798088 14.797369 C 11.411369 18.184088 5.923088 18.184088 2.540275 14.797369 C -0.846444 11.414556 -0.846444 5.922369 2.540275 2.539556 C 5.923088 -0.847162 11.411369 -0.847162 14.798088 2.539556 Z M 14.798088 2.539556 " transform="matrix(1, 0, 0, 1, 161.5691, 369.7456)"/>
<g clip-path="url(#clip-1)">
<path fill="none" stroke-width="2" stroke-linecap="butt" stroke-linejoin="miter" stroke="rgb(0%, 0%, 0%)" stroke-opacity="1" stroke-miterlimit="4" d="M 162.398494 139.659381 L 81.2774 186.7961 L 0.00005625 139.835163 L 0.0664625 47.335163 L 81.2774 -0.000775 L 162.046931 47.069538 Z M 162.398494 139.659381 " transform="matrix(1, 0, 0, 1, 90.4726, 282.0164)"/>
</g>
<path fill-rule="nonzero" fill="rgb(0%, 0%, 0%)" fill-opacity="1" stroke-width="4" stroke-linecap="butt" stroke-linejoin="miter" stroke="rgb(0%, 0%, 0%)" stroke-opacity="1" stroke-miterlimit="4" d="M 14.797269 2.539169 C 18.183988 5.925888 18.183988 11.414169 14.797269 14.796981 C 11.414456 18.1837 5.926175 18.1837 2.539456 14.796981 C -0.847262 11.414169 -0.847262 5.925888 2.539456 2.539169 C 5.926175 -0.84755 11.414456 -0.84755 14.797269 2.539169 Z M 14.797269 2.539169 " transform="matrix(1, 0, 0, 1, 322.9957, 370.4413)"/>
<g clip-path="url(#clip-2)">
<path fill="none" stroke-width="2" stroke-linecap="butt" stroke-linejoin="miter" stroke="rgb(0%, 0%, 0%)" stroke-opacity="1" stroke-miterlimit="4" d="M 162.397531 139.659556 L 81.276437 186.796275 L -0.00090625 139.835337 L 0.0655 47.335337 L 81.276437 -0.0006 L 162.045969 47.069712 Z M 162.397531 139.659556 " transform="matrix(1, 0, 0, 1, 252.372, 281.5006)"/>
</g>
</svg>
