<?xml version="1.0" encoding="UTF-8"?>
<svg xmlns="http://www.w3.org/2000/svg" xmlns:xlink="http://www.w3.org/1999/xlink" width="659.9672pt" height="606.85232pt" viewBox="0 0 659.9672 606.85232">
<defs>
<clipPath id="clip-0">
<path clip-rule="nonzero" d="M 0 0 L 659.96875 0 L 659.96875 606.851562 L 0 606.851562 Z M 0 0 "/>
</clipPath>
<clipPath id="clip-1">
<path clip-rule="nonzero" d="M 135.746094 123.667969 L 523.464844 123.667969 L 523.464844 480.890625 L 135.746094 480.890625 Z M 135.746094 123.667969 "/>
</clipPath>
<clipPath id="clip-2">
<path clip-rule="nonzero" d="M 209.285156 135.355469 L 317.375 135.355469 L 317.375 244.101562 L 209.285156 244.101562 Z M 209.285156 135.355469 "/>
</clipPath>
<clipPath id="clip-3">
<path clip-rule="nonzero" d="M 212 173.492188 L 217 173.492188 L 217 192 L 212 192 Z M 212 173.492188 "/>
</clipPath>
<clipPath id="clip-4">
<path clip-rule="nonzero" d="M 342 179.492188 L 347 179.492188 L 347 198 L 342 198 Z M 342 179.492188 "/>
</clipPath>
<clipPath id="clip-5">
<path clip-rule="nonzero" d="M 253.363281 182.039062 L 273.300781 182.039062 L 273.300781 201.976562 L 253.363281 201.976562 Z M 253.363281 182.039062 "/>
</clipPath>
<clipPath id="clip-6">
<path clip-rule="nonzero" d="M 197.210938 112.359375 L 331.761719 112.359375 L 331.761719 266.835938 L 197.210938 266.835938 Z M 197.210938 112.359375 "/>
</clipPath>
<clipPath id="clip-7">
<path clip-rule="nonzero" d="M 274.398438 246.292969 L 382.492188 246.292969 L 382.492188 355.035156 L 274.398438 355.035156 Z M 274.398438 246.292969 "/>
</clipPath>
<clipPath id="clip-8">
<path clip-rule="nonzero" d="M 317.210938 292.730469 L 337.148438 292.730469 L 337.148438 312.667969 L 317.210938 312.667969 Z M 317.210938 292.730469 "/>
</clipPath>
<clipPath id="clip-9">
<path clip-rule="nonzero" d="M 262.242188 224.488281 L 396.792969 224.488281 L 396.792969 378.960938 L 262.242188 378.960938 Z M 262.242188 224.488281 "/>
</clipPath>
<clipPath id="clip-10">
<path clip-rule="nonzero" d="M 144.976562 246.292969 L 253.066406 246.292969 L 253.066406 355.035156 L 144.976562 355.035156 Z M 144.976562 246.292969 "/>
</clipPath>
<clipPath id="clip-11">
<path clip-rule="nonzero" d="M 187.789062 292.730469 L 207.722656 292.730469 L 207.722656 312.667969 L 187.789062 312.667969 Z M 187.789062 292.730469 "/>
</clipPath>
<clipPath id="clip-12">
<path clip-rule="nonzero" d="M 132.015625 224.488281 L 266.566406 224.488281 L 266.566406 378.960938 L 132.015625 378.960938 Z M 132.015625 224.488281 "/>
</clipPath>
<clipPath id="clip-13">
<path clip-rule="nonzero" d="M 404.8125 248.871094 L 512.902344 248.871094 L 512.902344 357.617188 L 404.8125 357.617188 Z M 404.8125 248.871094 "/>
</clipPath>
<clipPath id="clip-14">
<path clip-rule="nonzero" d="M 447.625 295.3125 L 467.5625 295.3125 L 467.5625 315.25 L 447.625 315.25 Z M 447.625 295.3125 "/>
</clipPath>
<clipPath id="clip-15">
<path clip-rule="nonzero" d="M 393.457031 225.460938 L 528.007812 225.460938 L 528.007812 379.9375 L 393.457031 379.9375 Z M 393.457031 225.460938 "/>
</clipPath>
<clipPath id="clip-16">
<path clip-rule="nonzero" d="M 340.316406 136.160156 L 448.410156 136.160156 L 448.410156 244.90625 L 340.316406 244.90625 Z M 340.316406 136.160156 "/>
</clipPath>
<clipPath id="clip-17">
<path clip-rule="nonzero" d="M 383.128906 182.597656 L 403.066406 182.597656 L 403.066406 202.535156 L 383.128906 202.535156 Z M 383.128906 182.597656 "/>
</clipPath>
<clipPath id="clip-18">
<path clip-rule="nonzero" d="M 328.160156 112.75 L 462.710938 112.75 L 462.710938 267.222656 L 328.160156 267.222656 Z M 328.160156 112.75 "/>
</clipPath>
<clipPath id="clip-19">
<path clip-rule="nonzero" d="M 146 292.035156 L 151 292.035156 L 151 310 L 146 310 Z M 146 292.035156 "/>
</clipPath>
<clipPath id="clip-20">
<path clip-rule="nonzero" d="M 276 292.035156 L 281 292.035156 L 281 310 L 276 310 Z M 276 292.035156 "/>
</clipPath>
<clipPath id="clip-21">
<path clip-rule="nonzero" d="M 406 292.839844 L 411 292.839844 L 411 311 L 406 311 Z M 406 292.839844 "/>
</clipPath>
<clipPath id="clip-22">
<path clip-rule="nonzero" d="M 209.285156 360.441406 L 317.375 360.441406 L 317.375 469.1875 L 209.285156 469.1875 Z M 209.285156 360.441406 "/>
</clipPath>
<clipPath id="clip-23">
<path clip-rule="nonzero" d="M 211 404.578125 L 216 404.578125 L 216 423 L 211 423 Z M 211 404.578125 "/>
</clipPath>
<clipPath id="clip-24">
<path clip-rule="nonzero" d="M 342 404.578125 L 347 404.578125 L 347 423 L 342 423 Z M 342 404.578125 "/>
</clipPath>
<clipPath id="clip-25">
<path clip-rule="nonzero" d="M 253.363281 407.125 L 273.300781 407.125 L 273.300781 427.0625 L 253.363281 427.0625 Z M 253.363281 407.125 "/>
</clipPath>
<clipPath id="clip-26">
<path clip-rule="nonzero" d="M 197.210938 337.445312 L 331.761719 337.445312 L 331.761719 491.917969 L 197.210938 491.917969 Z M 197.210938 337.445312 "/>
</clipPath>
<clipPath id="clip-27">
<path clip-rule="nonzero" d="M 340.316406 361.246094 L 448.410156 361.246094 L 448.410156 469.988281 L 340.316406 469.988281 Z M 340.316406 361.246094 "/>
</clipPath>
<clipPath id="clip-28">
<path clip-rule="nonzero" d="M 383.128906 407.683594 L 403.066406 407.683594 L 403.066406 427.621094 L 383.128906 427.621094 Z M 383.128906 407.683594 "/>
</clipPath>
<clipPath id="clip-29">
<path clip-rule="nonzero" d="M 328.160156 337.832031 L 462.710938 337.832031 L 462.710938 492.308594 L 328.160156 492.308594 Z M 328.160156 337.832031 "/>
</clipPath>
<clipPath id="clip-30">
<path clip-rule="nonzero" d="M 79.859375 133.75 L 187.953125 133.75 L 187.953125 242.492188 L 79.859375 242.492188 Z M 79.859375 133.75 "/>
</clipPath>
<clipPath id="clip-31">
<path clip-rule="nonzero" d="M 122.671875 180.1875 L 142.609375 180.1875 L 142.609375 200.125 L 122.671875 200.125 Z M 122.671875 180.1875 "/>
</clipPath>
<clipPath id="clip-32">
<path clip-rule="nonzero" d="M 66.902344 111.945312 L 201.453125 111.945312 L 201.453125 266.417969 L 66.902344 266.417969 Z M 66.902344 111.945312 "/>
</clipPath>
<clipPath id="clip-33">
<path clip-rule="nonzero" d="M 82 178.691406 L 87 178.691406 L 87 197 L 82 197 Z M 82 178.691406 "/>
</clipPath>
<clipPath id="clip-34">
<path clip-rule="nonzero" d="M 79.859375 358.832031 L 187.953125 358.832031 L 187.953125 467.578125 L 79.859375 467.578125 Z M 79.859375 358.832031 "/>
</clipPath>
<clipPath id="clip-35">
<path clip-rule="nonzero" d="M 122.671875 405.273438 L 142.609375 405.273438 L 142.609375 425.210938 L 122.671875 425.210938 Z M 122.671875 405.273438 "/>
</clipPath>
<clipPath id="clip-36">
<path clip-rule="nonzero" d="M 66.902344 337.03125 L 201.453125 337.03125 L 201.453125 491.503906 L 66.902344 491.503906 Z M 66.902344 337.03125 "/>
</clipPath>
<clipPath id="clip-37">
<path clip-rule="nonzero" d="M 82 403.773438 L 87 403.773438 L 87 422 L 82 422 Z M 82 403.773438 "/>
</clipPath>
<clipPath id="clip-38">
<path clip-rule="nonzero" d="M 14.746094 246.292969 L 122.839844 246.292969 L 122.839844 355.035156 L 14.746094 355.035156 Z M 14.746094 246.292969 "/>
</clipPath>
<clipPath id="clip-39">
<path clip-rule="nonzero" d="M 57.558594 292.730469 L 77.496094 292.730469 L 77.496094 312.667969 L 57.558594 312.667969 Z M 57.558594 292.730469 "/>
</clipPath>
<clipPath id="clip-40">
<path clip-rule="nonzero" d="M 1.785156 224.488281 L 136.335938 224.488281 L 136.335938 378.960938 L 1.785156 378.960938 Z M 1.785156 224.488281 "/>
</clipPath>
<clipPath id="clip-41">
<path clip-rule="nonzero" d="M 17 291.230469 L 22 291.230469 L 22 310 L 17 310 Z M 17 291.230469 "/>
</clipPath>
<clipPath id="clip-42">
<path clip-rule="nonzero" d="M 144.976562 471.375 L 253.066406 471.375 L 253.066406 580.121094 L 144.976562 580.121094 Z M 144.976562 471.375 "/>
</clipPath>
<clipPath id="clip-43">
<path clip-rule="nonzero" d="M 187.789062 517.816406 L 207.722656 517.816406 L 207.722656 537.75 L 187.789062 537.75 Z M 187.789062 517.816406 "/>
</clipPath>
<clipPath id="clip-44">
<path clip-rule="nonzero" d="M 132.015625 449.570312 L 266.566406 449.570312 L 266.566406 604.046875 L 132.015625 604.046875 Z M 132.015625 449.570312 "/>
</clipPath>
<clipPath id="clip-45">
<path clip-rule="nonzero" d="M 147 516.316406 L 152 516.316406 L 152 535 L 147 535 Z M 147 516.316406 "/>
</clipPath>
<clipPath id="clip-46">
<path clip-rule="nonzero" d="M 275.203125 471.375 L 383.292969 471.375 L 383.292969 580.121094 L 275.203125 580.121094 Z M 275.203125 471.375 "/>
</clipPath>
<clipPath id="clip-47">
<path clip-rule="nonzero" d="M 318.015625 517.816406 L 337.953125 517.816406 L 337.953125 537.75 L 318.015625 537.75 Z M 318.015625 517.816406 "/>
</clipPath>
<clipPath id="clip-48">
<path clip-rule="nonzero" d="M 262.242188 449.570312 L 396.792969 449.570312 L 396.792969 604.046875 L 262.242188 604.046875 Z M 262.242188 449.570312 "/>
</clipPath>
<clipPath id="clip-49">
<path clip-rule="nonzero" d="M 277 516.316406 L 282 516.316406 L 282 535 L 277 535 Z M 277 516.316406 "/>
</clipPath>
<clipPath id="clip-50">
<path clip-rule="nonzero" d="M 405.429688 472.179688 L 513.523438 472.179688 L 513.523438 580.925781 L 405.429688 580.925781 Z M 405.429688 472.179688 "/>
</clipPath>
<clipPath id="clip-51">
<path clip-rule="nonzero" d="M 448.242188 518.617188 L 468.179688 518.617188 L 468.179688 538.554688 L 448.242188 538.554688 Z M 448.242188 518.617188 "/>
</clipPath>
<clipPath id="clip-52">
<path clip-rule="nonzero" d="M 392.46875 450.375 L 527.019531 450.375 L 527.019531 604.851562 L 392.46875 604.851562 Z M 392.46875 450.375 "/>
</clipPath>
<clipPath id="clip-53">
<path clip-rule="nonzero" d="M 408 517.121094 L 413 517.121094 L 413 535 L 408 535 Z M 408 517.121094 "/>
</clipPath>
<clipPath id="clip-54">
<path clip-rule="nonzero" d="M 471.347656 359.636719 L 579.441406 359.636719 L 579.441406 468.382812 L 471.347656 468.382812 Z M 471.347656 359.636719 "/>
</clipPath>
<clipPath id="clip-55">
<path clip-rule="nonzero" d="M 514.160156 406.078125 L 534.097656 406.078125 L 534.097656 426.011719 L 514.160156 426.011719 Z M 514.160156 406.078125 "/>
</clipPath>
<clipPath id="clip-56">
<path clip-rule="nonzero" d="M 458.386719 337.832031 L 592.9375 337.832031 L 592.9375 492.308594 L 458.386719 492.308594 Z M 458.386719 337.832031 "/>
</clipPath>
<clipPath id="clip-57">
<path clip-rule="nonzero" d="M 474 404.578125 L 479 404.578125 L 479 423 L 474 423 Z M 474 404.578125 "/>
</clipPath>
<clipPath id="clip-58">
<path clip-rule="nonzero" d="M 536.460938 247.09375 L 644.554688 247.09375 L 644.554688 355.839844 L 536.460938 355.839844 Z M 536.460938 247.09375 "/>
</clipPath>
<clipPath id="clip-59">
<path clip-rule="nonzero" d="M 579.273438 293.535156 L 599.210938 293.535156 L 599.210938 313.472656 L 579.273438 313.472656 Z M 579.273438 293.535156 "/>
</clipPath>
<clipPath id="clip-60">
<path clip-rule="nonzero" d="M 523.5 225.289062 L 658.050781 225.289062 L 658.050781 379.765625 L 523.5 379.765625 Z M 523.5 225.289062 "/>
</clipPath>
<clipPath id="clip-61">
<path clip-rule="nonzero" d="M 539 292.035156 L 544 292.035156 L 544 310 L 539 310 Z M 539 292.035156 "/>
</clipPath>
<clipPath id="clip-62">
<path clip-rule="nonzero" d="M 472.152344 134.554688 L 580.242188 134.554688 L 580.242188 243.296875 L 472.152344 243.296875 Z M 472.152344 134.554688 "/>
</clipPath>
<clipPath id="clip-63">
<path clip-rule="nonzero" d="M 514.964844 180.992188 L 534.902344 180.992188 L 534.902344 200.929688 L 514.964844 200.929688 Z M 514.964844 180.992188 "/>
</clipPath>
<clipPath id="clip-64">
<path clip-rule="nonzero" d="M 459.191406 112.75 L 593.742188 112.75 L 593.742188 267.222656 L 459.191406 267.222656 Z M 459.191406 112.75 "/>
</clipPath>
<clipPath id="clip-65">
<path clip-rule="nonzero" d="M 474 179.492188 L 479 179.492188 L 479 198 L 474 198 Z M 474 179.492188 "/>
</clipPath>
<clipPath id="clip-66">
<path clip-rule="nonzero" d="M 407.039062 22.011719 L 515.128906 22.011719 L 515.128906 130.753906 L 407.039062 130.753906 Z M 407.039062 22.011719 "/>
</clipPath>
<clipPath id="clip-67">
<path clip-rule="nonzero" d="M 449.851562 68.449219 L 469.789062 68.449219 L 469.789062 88.386719 L 449.851562 88.386719 Z M 449.851562 68.449219 "/>
</clipPath>
<clipPath id="clip-68">
<path clip-rule="nonzero" d="M 394.078125 0.207031 L 528.628906 0.207031 L 528.628906 154.679688 L 394.078125 154.679688 Z M 394.078125 0.207031 "/>
</clipPath>
<clipPath id="clip-69">
<path clip-rule="nonzero" d="M 409 66.953125 L 414 66.953125 L 414 85 L 409 85 Z M 409 66.953125 "/>
</clipPath>
<clipPath id="clip-70">
<path clip-rule="nonzero" d="M 276.007812 22.011719 L 384.097656 22.011719 L 384.097656 130.753906 L 276.007812 130.753906 Z M 276.007812 22.011719 "/>
</clipPath>
<clipPath id="clip-71">
<path clip-rule="nonzero" d="M 318.820312 68.449219 L 338.757812 68.449219 L 338.757812 88.386719 L 318.820312 88.386719 Z M 318.820312 68.449219 "/>
</clipPath>
<clipPath id="clip-72">
<path clip-rule="nonzero" d="M 263.046875 0.207031 L 397.597656 0.207031 L 397.597656 154.679688 L 263.046875 154.679688 Z M 263.046875 0.207031 "/>
</clipPath>
<clipPath id="clip-73">
<path clip-rule="nonzero" d="M 278 66.953125 L 283 66.953125 L 283 85 L 278 85 Z M 278 66.953125 "/>
</clipPath>
<clipPath id="clip-74">
<path clip-rule="nonzero" d="M 145.777344 21.207031 L 253.871094 21.207031 L 253.871094 129.949219 L 145.777344 129.949219 Z M 145.777344 21.207031 "/>
</clipPath>
<clipPath id="clip-75">
<path clip-rule="nonzero" d="M 188.589844 67.644531 L 208.527344 67.644531 L 208.527344 87.582031 L 188.589844 87.582031 Z M 188.589844 67.644531 "/>
</clipPath>
<clipPath id="clip-76">
<path clip-rule="nonzero" d="M 132.816406 0 L 267.371094 0 L 267.371094 153.878906 L 132.816406 153.878906 Z M 132.816406 0 "/>
</clipPath>
<clipPath id="clip-77">
<path clip-rule="nonzero" d="M 148 66.148438 L 153 66.148438 L 153 84 L 148 84 Z M 148 66.148438 "/>
</clipPath>
<clipPath id="clip-78">
<path clip-rule="nonzero" d="M 202 187.597656 L 207 187.597656 L 207 206 L 202 206 Z M 202 187.597656 "/>
</clipPath>
</defs>
<g clip-path="url(#clip-0)">
<rect x="-65.99672" y="-60.685232" width="791.96064" height="728.222784" fill="rgb(100%, 100%, 100%)" fill-opacity="1"/>
</g>
<path fill-rule="nonzero" fill="rgb(100%, 52.157593%, 58.824158%)" fill-opacity="0.0812" d="M 454.390625 172.246094 C 459.617188 190.695312 450.933594 211.507812 460.320312 228.582031 C 468.65625 243.742188 487.261719 248.304688 500.347656 259.261719 C 514.445312 271.066406 521.101562 287.925781 519.808594 306.910156 C 518.699219 323.191406 511.203125 338.457031 498.359375 348.53125 C 485.59375 358.542969 468.136719 362.796875 459.917969 377.03125 C 448.433594 396.917969 462.648438 421.667969 453.328125 441.953125 C 447.828125 453.914062 437.382812 460.527344 427.167969 466.597656 C 419.4375 471.195312 411.4375 475.726562 402.472656 476.628906 C 375.445312 479.34375 355.707031 450.488281 328.863281 451.070312 C 319 451.285156 309.582031 455.628906 300.753906 460.808594 C 289.09375 467.652344 278.363281 476.15625 264.828125 477.265625 C 253.164062 478.21875 242.242188 473.636719 232.988281 466.964844 C 223.339844 460.007812 215.542969 451.066406 211.179688 440.035156 C 206.976562 429.402344 206.335938 417.4375 205.894531 405.816406 C 205.5 395.492188 205.042969 385.140625 199.925781 376.042969 C 190.085938 358.546875 167.628906 353.855469 153.804688 339.953125 C 142.902344 328.988281 138.09375 313.414062 139.476562 298.003906 C 141.273438 278.011719 152.984375 260.277344 170.105469 249.75 C 181.042969 243.023438 193.625 239.429688 200.496094 228.148438 C 206.207031 218.765625 205.210938 207.65625 204.78125 196.554688 C 204.292969 184.0625 204.710938 171.242188 210.796875 160.242188 C 216.035156 150.769531 224.835938 144.160156 233.402344 138.597656 C 242.941406 132.402344 253.253906 127.074219 265.011719 127.488281 C 277.398438 127.921875 288.296875 135.238281 298.761719 142.128906 C 308.113281 148.289062 317.441406 154.152344 328.9375 153.847656 C 339.480469 153.574219 348.683594 147.722656 357.558594 142.078125 C 368.929688 134.847656 380.835938 127.761719 394.207031 127.203125 C 409.019531 126.585938 422.398438 133.882812 433.566406 143.183594 C 442.726562 150.8125 450.980469 160.207031 454.390625 172.246094 Z M 454.390625 172.246094 "/>
<g clip-path="url(#clip-1)">
<path fill="none" stroke-width="5" stroke-linecap="butt" stroke-linejoin="miter" stroke="rgb(100%, 14.901733%, 0%)" stroke-opacity="1" stroke-miterlimit="4" d="M 315.146325 45.078894 C 320.372888 63.528113 311.689294 84.340613 321.076013 101.414831 C 329.41195 116.574988 348.017419 121.137488 361.103356 132.094519 C 375.201013 143.899206 381.857263 160.758581 380.564294 179.742956 C 379.454919 196.024206 371.958825 211.289831 359.115075 221.36405 C 346.34945 231.375769 328.892419 235.629675 320.673669 249.86405 C 309.189294 269.750769 323.404138 294.500769 314.083825 314.785925 C 308.583825 326.746863 298.138513 333.360144 287.923669 339.430456 C 280.1932 344.028113 272.1932 348.559363 263.228356 349.461706 C 236.201013 352.17655 216.462731 323.321081 189.618981 323.903113 C 179.7557 324.117956 170.337731 328.461706 161.509606 333.641394 C 149.84945 340.485144 139.118981 348.98905 125.583825 350.098425 C 113.919763 351.05155 102.997888 346.469519 93.743981 339.797644 C 84.095544 332.840613 76.298669 323.899206 71.935388 312.867956 C 67.732263 302.235144 67.091638 290.2703 66.650231 278.649206 C 66.2557 268.324988 65.798669 257.973425 60.681481 248.875769 C 50.841638 231.379675 28.384606 226.688269 14.560388 212.785925 C 3.658044 201.821081 -1.15055 186.246863 0.232263 170.836706 C 2.029138 150.844519 13.740075 133.110144 30.861169 122.5828 C 41.798669 115.856238 54.3807 112.262488 61.251794 100.981238 C 66.962731 91.598425 65.966638 80.48905 65.53695 69.387488 C 65.048669 56.8953 65.466638 44.074988 71.552575 33.074988 C 76.790856 23.602331 85.591638 16.992956 94.158044 11.430456 C 103.697106 5.235144 114.009606 -0.0929812 125.767419 0.321081 C 138.154138 0.754675 149.052575 8.071081 159.517419 14.961706 C 168.868981 21.121863 178.197106 26.985144 189.6932 26.680456 C 200.236169 26.407019 209.439294 20.555456 218.314294 14.910925 C 229.685388 7.680456 241.591638 0.594519 254.962731 0.035925 C 269.775231 -0.581262 283.154138 6.715613 294.322106 16.016394 C 303.482263 23.6453 311.736169 33.039831 315.146325 45.078894 Z M 315.146325 45.078894 " transform="matrix(1, 0, 0, 1, 139.2443, 127.1672)"/>
</g>
<g clip-path="url(#clip-2)">
<path fill="none" stroke-width="5" stroke-linecap="butt" stroke-linejoin="miter" stroke="rgb(0%, 0%, 0%)" stroke-opacity="1" stroke-miterlimit="4" d="M 86.285713 14.901113 C 106.0279 34.7683 106.0279 66.979238 86.285713 86.842519 C 66.547431 106.709706 34.543525 106.709706 14.805244 86.842519 C -4.933037 66.979238 -4.933037 34.7683 14.805244 14.901113 C 34.543525 -4.966075 66.547431 -4.966075 86.285713 14.901113 Z M 86.285713 14.901113 " transform="matrix(1, 0, 0, 1, 212.7846, 138.8567)"/>
</g>
<g clip-path="url(#clip-3)">
<path fill="none" stroke-width="4" stroke-linecap="butt" stroke-linejoin="miter" stroke="rgb(0%, 0%, 0%)" stroke-opacity="1" stroke-miterlimit="4" d="M 0.000075 0.001325 L 13.648512 0.001325 L -1.152269 0.001325 " transform="matrix(0, -1, 1, 0, 214.1393, 188.1407)"/>
</g>
<path fill-rule="nonzero" fill="rgb(0%, 0%, 0%)" fill-opacity="1" d="M 222.539062 191.292969 L 214.140625 174.492188 L 205.738281 191.292969 Z M 222.539062 191.292969 "/>
<g clip-path="url(#clip-4)">
<path fill="none" stroke-width="4" stroke-linecap="butt" stroke-linejoin="miter" stroke="rgb(0%, 0%, 0%)" stroke-opacity="1" stroke-miterlimit="4" d="M 0.000075 0.001075 L 13.648512 0.001075 L -1.152269 0.001075 " transform="matrix(0, -1, 1, 0, 344.1708, 194.1407)"/>
</g>
<path fill-rule="nonzero" fill="rgb(0%, 0%, 0%)" fill-opacity="1" d="M 352.570312 197.292969 L 344.171875 180.492188 L 335.769531 197.292969 Z M 352.570312 197.292969 "/>
<path fill-rule="nonzero" fill="rgb(0%, 0%, 0%)" fill-opacity="1" d="M 268.257812 187.082031 C 270.980469 189.800781 270.980469 194.214844 268.257812 196.9375 C 265.535156 199.65625 261.125 199.65625 258.402344 196.9375 C 255.683594 194.214844 255.683594 189.800781 258.402344 187.082031 C 261.125 184.359375 265.535156 184.359375 268.257812 187.082031 Z M 268.257812 187.082031 "/>
<g clip-path="url(#clip-5)">
<path fill="none" stroke-width="4" stroke-linecap="butt" stroke-linejoin="miter" stroke="rgb(0%, 0%, 0%)" stroke-opacity="1" stroke-miterlimit="4" d="M 11.895612 2.042031 C 14.618269 4.760781 14.618269 9.174844 11.895612 11.8975 C 9.172956 14.61625 4.7628 14.61625 2.040144 11.8975 C -0.678606 9.174844 -0.678606 4.760781 2.040144 2.042031 C 4.7628 -0.680625 9.172956 -0.680625 11.895612 2.042031 Z M 11.895612 2.042031 " transform="matrix(1, 0, 0, 1, 256.3622, 185.04)"/>
</g>
<g clip-path="url(#clip-6)">
<path fill="none" stroke-width="2" stroke-linecap="butt" stroke-linejoin="miter" stroke="rgb(0%, 0%, 0%)" stroke-opacity="1" stroke-miterlimit="4" d="M 130.548213 112.268456 L 65.337275 150.162988 L 0.0013375 112.409081 L 0.0521188 38.049706 L 65.337275 -0.001075 L 130.266963 37.838769 Z M 130.548213 112.268456 " transform="matrix(1, 0, 0, 1, 199.2096, 114.5167)"/>
</g>
<g clip-path="url(#clip-7)">
<path fill="none" stroke-width="5" stroke-linecap="butt" stroke-linejoin="miter" stroke="rgb(0%, 0%, 0%)" stroke-opacity="1" stroke-miterlimit="4" d="M 86.289 14.900106 C 106.027281 34.767294 106.027281 66.978231 86.289 86.845419 C 66.546812 106.712606 34.542906 106.712606 14.804625 86.845419 C -4.933656 66.978231 -4.933656 34.767294 14.804625 14.900106 C 34.542906 -4.967081 66.546812 -4.967081 86.289 14.900106 Z M 86.289 14.900106 " transform="matrix(1, 0, 0, 1, 277.8985, 249.7913)"/>
</g>
<path fill-rule="nonzero" fill="rgb(0%, 0%, 0%)" fill-opacity="1" d="M 332.105469 297.769531 C 334.828125 300.492188 334.828125 304.90625 332.105469 307.625 C 329.386719 310.347656 324.972656 310.347656 322.253906 307.625 C 319.53125 304.90625 319.53125 300.492188 322.253906 297.769531 C 324.972656 295.050781 329.386719 295.050781 332.105469 297.769531 Z M 332.105469 297.769531 "/>
<g clip-path="url(#clip-8)">
<path fill="none" stroke-width="4" stroke-linecap="butt" stroke-linejoin="miter" stroke="rgb(0%, 0%, 0%)" stroke-opacity="1" stroke-miterlimit="4" d="M 11.894169 2.039531 C 14.616825 4.762188 14.616825 9.17625 11.894169 11.895 C 9.175419 14.617656 4.761356 14.617656 2.042606 11.895 C -0.68005 9.17625 -0.68005 4.762188 2.042606 2.039531 C 4.761356 -0.679219 9.175419 -0.679219 11.894169 2.039531 Z M 11.894169 2.039531 " transform="matrix(1, 0, 0, 1, 320.2113, 295.73)"/>
</g>
<g clip-path="url(#clip-9)">
<path fill="none" stroke-width="2" stroke-linecap="butt" stroke-linejoin="miter" stroke="rgb(0%, 0%, 0%)" stroke-opacity="1" stroke-miterlimit="4" d="M 130.546563 112.265756 L 65.335625 150.160288 L -0.0003125 112.410288 L 0.054375 38.050913 L 65.335625 0.00013125 L 130.265313 37.836069 Z M 130.546563 112.265756 " transform="matrix(1, 0, 0, 1, 264.2425, 226.6444)"/>
</g>
<g clip-path="url(#clip-10)">
<path fill="none" stroke-width="5" stroke-linecap="butt" stroke-linejoin="miter" stroke="rgb(0%, 0%, 0%)" stroke-opacity="1" stroke-miterlimit="4" d="M 86.287019 14.900106 C 106.0253 34.767294 106.0253 66.978231 86.287019 86.845419 C 66.548737 106.712606 34.544831 106.712606 14.80655 86.845419 C -4.935638 66.978231 -4.935638 34.767294 14.80655 14.900106 C 34.544831 -4.967081 66.548737 -4.967081 86.287019 14.900106 Z M 86.287019 14.900106 " transform="matrix(1, 0, 0, 1, 148.4747, 249.7913)"/>
</g>
<path fill-rule="nonzero" fill="rgb(0%, 0%, 0%)" fill-opacity="1" d="M 202.683594 297.769531 C 205.40625 300.492188 205.40625 304.90625 202.683594 307.625 C 199.960938 310.347656 195.550781 310.347656 192.828125 307.625 C 190.105469 304.90625 190.105469 300.492188 192.828125 297.769531 C 195.550781 295.050781 199.960938 295.050781 202.683594 297.769531 Z M 202.683594 297.769531 "/>
<g clip-path="url(#clip-11)">
<path fill="none" stroke-width="4" stroke-linecap="butt" stroke-linejoin="miter" stroke="rgb(0%, 0%, 0%)" stroke-opacity="1" stroke-miterlimit="4" d="M 11.896094 2.039531 C 14.61875 4.762188 14.61875 9.17625 11.896094 11.895 C 9.173438 14.617656 4.763281 14.617656 2.040625 11.895 C -0.682031 9.17625 -0.682031 4.762188 2.040625 2.039531 C 4.763281 -0.679219 9.173438 -0.679219 11.896094 2.039531 Z M 11.896094 2.039531 " transform="matrix(1, 0, 0, 1, 190.7875, 295.73)"/>
</g>
<g clip-path="url(#clip-12)">
<path fill="none" stroke-width="2" stroke-linecap="butt" stroke-linejoin="miter" stroke="rgb(0%, 0%, 0%)" stroke-opacity="1" stroke-miterlimit="4" d="M 130.5476 112.265756 L 65.336662 150.160288 L 0.000725 112.410288 L 0.0515062 38.050913 L 65.336662 0.00013125 L 130.26635 37.836069 Z M 130.5476 112.265756 " transform="matrix(1, 0, 0, 1, 134.0149, 226.6444)"/>
</g>
<g clip-path="url(#clip-13)">
<path fill="none" stroke-width="5" stroke-linecap="butt" stroke-linejoin="miter" stroke="rgb(0%, 0%, 0%)" stroke-opacity="1" stroke-miterlimit="4" d="M 86.286556 14.900438 C 106.028744 34.767625 106.028744 66.978563 86.286556 86.84575 C 66.548275 106.712938 34.544369 106.712938 14.806087 86.84575 C -4.9361 66.978563 -4.9361 34.767625 14.806087 14.900438 C 34.544369 -4.96675 66.548275 -4.96675 86.286556 14.900438 Z M 86.286556 14.900438 " transform="matrix(1, 0, 0, 1, 408.3111, 252.373)"/>
</g>
<path fill-rule="nonzero" fill="rgb(0%, 0%, 0%)" fill-opacity="1" d="M 462.519531 300.351562 C 465.242188 303.074219 465.242188 307.484375 462.519531 310.207031 C 459.796875 312.929688 455.386719 312.929688 452.664062 310.207031 C 449.945312 307.484375 449.945312 303.074219 452.664062 300.351562 C 455.386719 297.632812 459.796875 297.632812 462.519531 300.351562 Z M 462.519531 300.351562 "/>
<g clip-path="url(#clip-14)">
<path fill="none" stroke-width="4" stroke-linecap="butt" stroke-linejoin="miter" stroke="rgb(0%, 0%, 0%)" stroke-opacity="1" stroke-miterlimit="4" d="M 11.895531 2.039963 C 14.618187 4.762619 14.618187 9.172775 11.895531 11.895431 C 9.172875 14.618088 4.762719 14.618088 2.040062 11.895431 C -0.678688 9.172775 -0.678688 4.762619 2.040062 2.039963 C 4.762719 -0.678787 9.172875 -0.678787 11.895531 2.039963 Z M 11.895531 2.039963 " transform="matrix(1, 0, 0, 1, 450.624, 298.3116)"/>
</g>
<g clip-path="url(#clip-15)">
<path fill="none" stroke-width="2" stroke-linecap="butt" stroke-linejoin="miter" stroke="rgb(0%, 0%, 0%)" stroke-opacity="1" stroke-miterlimit="4" d="M 130.548712 112.268419 L 65.337775 150.16295 L 0.0018375 112.409044 L 0.0526187 38.049669 L 65.337775 -0.0011125 L 130.267462 37.838731 Z M 130.548712 112.268419 " transform="matrix(1, 0, 0, 1, 395.4591, 227.6183)"/>
</g>
<g clip-path="url(#clip-16)">
<path fill="none" stroke-width="5" stroke-linecap="butt" stroke-linejoin="miter" stroke="rgb(0%, 0%, 0%)" stroke-opacity="1" stroke-miterlimit="4" d="M 86.289269 14.9019 C 106.02755 34.765181 106.02755 66.976119 86.289269 86.843306 C 66.547081 106.710494 34.543175 106.710494 14.804894 86.843306 C -4.933387 66.976119 -4.933387 34.765181 14.804894 14.9019 C 34.543175 -4.965288 66.547081 -4.965288 86.289269 14.9019 Z M 86.289269 14.9019 " transform="matrix(1, 0, 0, 1, 343.8162, 139.6606)"/>
</g>
<path fill-rule="nonzero" fill="rgb(0%, 0%, 0%)" fill-opacity="1" d="M 398.023438 187.640625 C 400.746094 190.363281 400.746094 194.773438 398.023438 197.496094 C 395.304688 200.214844 390.890625 200.214844 388.171875 197.496094 C 385.449219 194.773438 385.449219 190.363281 388.171875 187.640625 C 390.890625 184.917969 395.304688 184.917969 398.023438 187.640625 Z M 398.023438 187.640625 "/>
<g clip-path="url(#clip-17)">
<path fill="none" stroke-width="4" stroke-linecap="butt" stroke-linejoin="miter" stroke="rgb(0%, 0%, 0%)" stroke-opacity="1" stroke-miterlimit="4" d="M 11.894437 2.041425 C 14.617094 4.764081 14.617094 9.174238 11.894437 11.896894 C 9.175687 14.615644 4.761625 14.615644 2.042875 11.896894 C -0.679781 9.174238 -0.679781 4.764081 2.042875 2.041425 C 4.761625 -0.681231 9.175687 -0.681231 11.894437 2.041425 Z M 11.894437 2.041425 " transform="matrix(1, 0, 0, 1, 386.129, 185.5992)"/>
</g>
<g clip-path="url(#clip-18)">
<path fill="none" stroke-width="2" stroke-linecap="butt" stroke-linejoin="miter" stroke="rgb(0%, 0%, 0%)" stroke-opacity="1" stroke-miterlimit="4" d="M 130.546831 112.265975 L 65.335894 150.160506 L -0.00004375 112.410506 L 0.0546437 38.051131 L 65.335894 0.00035 L 130.265581 37.836288 Z M 130.546831 112.265975 " transform="matrix(1, 0, 0, 1, 330.1602, 114.9059)"/>
</g>
<g clip-path="url(#clip-19)">
<path fill="none" stroke-width="4" stroke-linecap="butt" stroke-linejoin="miter" stroke="rgb(0%, 0%, 0%)" stroke-opacity="1" stroke-miterlimit="4" d="M -0.00049375 -0.001175 L 13.647944 -0.001175 L -1.152838 -0.001175 " transform="matrix(0, -1, 1, 0, 148.8293, 306.6831)"/>
</g>
<path fill-rule="nonzero" fill="rgb(0%, 0%, 0%)" fill-opacity="1" d="M 157.230469 309.835938 L 148.828125 293.035156 L 140.429688 309.835938 Z M 157.230469 309.835938 "/>
<g clip-path="url(#clip-20)">
<path fill="none" stroke-width="4" stroke-linecap="butt" stroke-linejoin="miter" stroke="rgb(0%, 0%, 0%)" stroke-opacity="1" stroke-miterlimit="4" d="M -0.00049375 0.00080625 L 13.647944 0.00080625 L -1.152838 0.00080625 " transform="matrix(0, -1, 1, 0, 278.2531, 306.6831)"/>
</g>
<path fill-rule="nonzero" fill="rgb(0%, 0%, 0%)" fill-opacity="1" d="M 286.652344 309.835938 L 278.253906 293.035156 L 269.851562 309.835938 Z M 286.652344 309.835938 "/>
<g clip-path="url(#clip-21)">
<path fill="none" stroke-width="4" stroke-linecap="butt" stroke-linejoin="miter" stroke="rgb(0%, 0%, 0%)" stroke-opacity="1" stroke-miterlimit="4" d="M -0.00128125 -0.00033125 L 13.647156 -0.00033125 L -1.153625 -0.00033125 " transform="matrix(0, -1, 1, 0, 408.4808, 307.487)"/>
</g>
<path fill-rule="nonzero" fill="rgb(0%, 0%, 0%)" fill-opacity="1" d="M 416.878906 310.640625 L 408.480469 293.839844 L 400.082031 310.640625 Z M 416.878906 310.640625 "/>
<g clip-path="url(#clip-22)">
<path fill="none" stroke-width="5" stroke-linecap="butt" stroke-linejoin="miter" stroke="rgb(0%, 0%, 0%)" stroke-opacity="1" stroke-miterlimit="4" d="M 86.285713 14.898344 C 106.0279 34.765531 106.0279 66.976469 86.285713 86.843656 C 66.547431 106.710844 34.543525 106.710844 14.805244 86.843656 C -4.933037 66.976469 -4.933037 34.765531 14.805244 14.898344 C 34.543525 -4.964937 66.547431 -4.964937 86.285713 14.898344 Z M 86.285713 14.898344 " transform="matrix(1, 0, 0, 1, 212.7846, 363.9415)"/>
</g>
<g clip-path="url(#clip-23)">
<path fill="none" stroke-width="4" stroke-linecap="butt" stroke-linejoin="miter" stroke="rgb(0%, 0%, 0%)" stroke-opacity="1" stroke-miterlimit="4" d="M -0.0010625 0.001325 L 13.647375 0.001325 L -1.153406 0.001325 " transform="matrix(0, -1, 1, 0, 213.1393, 419.2255)"/>
</g>
<path fill-rule="nonzero" fill="rgb(0%, 0%, 0%)" fill-opacity="1" d="M 221.539062 422.378906 L 213.140625 405.578125 L 204.738281 422.378906 Z M 221.539062 422.378906 "/>
<g clip-path="url(#clip-24)">
<path fill="none" stroke-width="4" stroke-linecap="butt" stroke-linejoin="miter" stroke="rgb(0%, 0%, 0%)" stroke-opacity="1" stroke-miterlimit="4" d="M -0.0010625 0.001075 L 13.647375 0.001075 L -1.153406 0.001075 " transform="matrix(0, -1, 1, 0, 344.1708, 419.2255)"/>
</g>
<path fill-rule="nonzero" fill="rgb(0%, 0%, 0%)" fill-opacity="1" d="M 352.570312 422.378906 L 344.171875 405.578125 L 335.769531 422.378906 Z M 352.570312 422.378906 "/>
<path fill-rule="nonzero" fill="rgb(0%, 0%, 0%)" fill-opacity="1" d="M 268.257812 412.164062 C 270.980469 414.886719 270.980469 419.300781 268.257812 422.019531 C 265.535156 424.742188 261.125 424.742188 258.402344 422.019531 C 255.683594 419.300781 255.683594 414.886719 258.402344 412.164062 C 261.125 409.445312 265.535156 409.445312 268.257812 412.164062 Z M 268.257812 412.164062 "/>
<g clip-path="url(#clip-25)">
<path fill="none" stroke-width="4" stroke-linecap="butt" stroke-linejoin="miter" stroke="rgb(0%, 0%, 0%)" stroke-opacity="1" stroke-miterlimit="4" d="M 11.895612 2.039263 C 14.618269 4.761919 14.618269 9.175981 11.895612 11.894731 C 9.172956 14.617388 4.7628 14.617388 2.040144 11.894731 C -0.678606 9.175981 -0.678606 4.761919 2.040144 2.039263 C 4.7628 -0.679487 9.172956 -0.679487 11.895612 2.039263 Z M 11.895612 2.039263 " transform="matrix(1, 0, 0, 1, 256.3622, 410.1248)"/>
</g>
<g clip-path="url(#clip-26)">
<path fill="none" stroke-width="2" stroke-linecap="butt" stroke-linejoin="miter" stroke="rgb(0%, 0%, 0%)" stroke-opacity="1" stroke-miterlimit="4" d="M 130.548213 112.265688 L 65.337275 150.160219 L 0.0013375 112.410219 L 0.0521188 38.050844 L 65.337275 0.0000625 L 130.266963 37.836 Z M 130.548213 112.265688 " transform="matrix(1, 0, 0, 1, 199.2096, 339.6015)"/>
</g>
<g clip-path="url(#clip-27)">
<path fill="none" stroke-width="5" stroke-linecap="butt" stroke-linejoin="miter" stroke="rgb(0%, 0%, 0%)" stroke-opacity="1" stroke-miterlimit="4" d="M 86.289269 14.899131 C 106.02755 34.766319 106.02755 66.977256 86.289269 86.844444 C 66.547081 106.711631 34.543175 106.711631 14.804894 86.844444 C -4.933387 66.977256 -4.933387 34.766319 14.804894 14.899131 C 34.543175 -4.968056 66.547081 -4.968056 86.289269 14.899131 Z M 86.289269 14.899131 " transform="matrix(1, 0, 0, 1, 343.8162, 364.7454)"/>
</g>
<path fill-rule="nonzero" fill="rgb(0%, 0%, 0%)" fill-opacity="1" d="M 398.023438 412.726562 C 400.746094 415.445312 400.746094 419.859375 398.023438 422.578125 C 395.304688 425.300781 390.890625 425.300781 388.171875 422.578125 C 385.449219 419.859375 385.449219 415.445312 388.171875 412.726562 C 390.890625 410.003906 395.304688 410.003906 398.023438 412.726562 Z M 398.023438 412.726562 "/>
<g clip-path="url(#clip-28)">
<path fill="none" stroke-width="4" stroke-linecap="butt" stroke-linejoin="miter" stroke="rgb(0%, 0%, 0%)" stroke-opacity="1" stroke-miterlimit="4" d="M 11.894437 2.042563 C 14.617094 4.761313 14.617094 9.175375 11.894437 11.894125 C 9.175687 14.616781 4.761625 14.616781 2.042875 11.894125 C -0.679781 9.175375 -0.679781 4.761313 2.042875 2.042563 C 4.761625 -0.680094 9.175687 -0.680094 11.894437 2.042563 Z M 11.894437 2.042563 " transform="matrix(1, 0, 0, 1, 386.129, 410.684)"/>
</g>
<g clip-path="url(#clip-29)">
<path fill="none" stroke-width="2" stroke-linecap="butt" stroke-linejoin="miter" stroke="rgb(0%, 0%, 0%)" stroke-opacity="1" stroke-miterlimit="4" d="M 130.546831 112.267113 L 65.335894 150.161644 L -0.00004375 112.407738 L 0.0546437 38.048363 L 65.335894 0.0014875 L 130.265581 37.837425 Z M 130.546831 112.267113 " transform="matrix(1, 0, 0, 1, 330.1602, 339.9907)"/>
</g>
<g clip-path="url(#clip-30)">
<path fill="none" stroke-width="5" stroke-linecap="butt" stroke-linejoin="miter" stroke="rgb(0%, 0%, 0%)" stroke-opacity="1" stroke-miterlimit="4" d="M 86.287537 14.899538 C 106.025819 34.766725 106.025819 66.977663 86.287537 86.84485 C 66.549256 106.712038 34.54535 106.712038 14.803162 86.84485 C -4.935119 66.977663 -4.935119 34.766725 14.803162 14.899538 C 34.54535 -4.96765 66.549256 -4.96765 86.287537 14.899538 Z M 86.287537 14.899538 " transform="matrix(1, 0, 0, 1, 83.3609, 137.2489)"/>
</g>
<path fill-rule="nonzero" fill="rgb(0%, 0%, 0%)" fill-opacity="1" d="M 137.570312 185.230469 C 140.289062 187.949219 140.289062 192.363281 137.570312 195.082031 C 134.847656 197.804688 130.4375 197.804688 127.714844 195.082031 C 124.992188 192.363281 124.992188 187.949219 127.714844 185.230469 C 130.4375 182.507812 134.847656 182.507812 137.570312 185.230469 Z M 137.570312 185.230469 "/>
<g clip-path="url(#clip-31)">
<path fill="none" stroke-width="4" stroke-linecap="butt" stroke-linejoin="miter" stroke="rgb(0%, 0%, 0%)" stroke-opacity="1" stroke-miterlimit="4" d="M 11.896712 2.042869 C 14.615462 4.761619 14.615462 9.175681 11.896712 11.894431 C 9.174056 14.617088 4.7639 14.617088 2.041244 11.894431 C -0.681413 9.175681 -0.681413 4.761619 2.041244 2.042869 C 4.7639 -0.679787 9.174056 -0.679787 11.896712 2.042869 Z M 11.896712 2.042869 " transform="matrix(1, 0, 0, 1, 125.6736, 183.1876)"/>
</g>
<g clip-path="url(#clip-32)">
<path fill="none" stroke-width="2" stroke-linecap="butt" stroke-linejoin="miter" stroke="rgb(0%, 0%, 0%)" stroke-opacity="1" stroke-miterlimit="4" d="M 130.548119 112.269094 L 65.337181 150.159719 L 0.00124375 112.409719 L 0.052025 38.050344 L 65.337181 -0.0004375 L 130.266869 37.8355 Z M 130.548119 112.269094 " transform="matrix(1, 0, 0, 1, 68.9011, 114.102)"/>
</g>
<g clip-path="url(#clip-33)">
<path fill="none" stroke-width="4" stroke-linecap="butt" stroke-linejoin="miter" stroke="rgb(0%, 0%, 0%)" stroke-opacity="1" stroke-miterlimit="4" d="M 0.0008625 0.00013125 L 13.645394 0.00013125 L -1.151481 0.00013125 " transform="matrix(0, -1, 1, 0, 84.5194, 193.3368)"/>
</g>
<path fill-rule="nonzero" fill="rgb(0%, 0%, 0%)" fill-opacity="1" d="M 92.917969 196.488281 L 84.519531 179.691406 L 76.121094 196.488281 Z M 92.917969 196.488281 "/>
<g clip-path="url(#clip-34)">
<path fill="none" stroke-width="5" stroke-linecap="butt" stroke-linejoin="miter" stroke="rgb(0%, 0%, 0%)" stroke-opacity="1" stroke-miterlimit="4" d="M 86.287537 14.900575 C 106.025819 34.767763 106.025819 66.9787 86.287537 86.845888 C 66.549256 106.709169 34.54535 106.709169 14.803162 86.845888 C -4.935119 66.9787 -4.935119 34.767763 14.803162 14.900575 C 34.54535 -4.966612 66.549256 -4.966612 86.287537 14.900575 Z M 86.287537 14.900575 " transform="matrix(1, 0, 0, 1, 83.3609, 362.3338)"/>
</g>
<path fill-rule="nonzero" fill="rgb(0%, 0%, 0%)" fill-opacity="1" d="M 137.570312 410.3125 C 140.289062 413.035156 140.289062 417.445312 137.570312 420.167969 C 134.847656 422.890625 130.4375 422.890625 127.714844 420.167969 C 124.992188 417.445312 124.992188 413.035156 127.714844 410.3125 C 130.4375 407.59375 134.847656 407.59375 137.570312 410.3125 Z M 137.570312 410.3125 "/>
<g clip-path="url(#clip-35)">
<path fill="none" stroke-width="4" stroke-linecap="butt" stroke-linejoin="miter" stroke="rgb(0%, 0%, 0%)" stroke-opacity="1" stroke-miterlimit="4" d="M 11.896712 2.0401 C 14.615462 4.762756 14.615462 9.172913 11.896712 11.895569 C 9.174056 14.618225 4.7639 14.618225 2.041244 11.895569 C -0.681413 9.172913 -0.681413 4.762756 2.041244 2.0401 C 4.7639 -0.67865 9.174056 -0.67865 11.896712 2.0401 Z M 11.896712 2.0401 " transform="matrix(1, 0, 0, 1, 125.6736, 408.2724)"/>
</g>
<g clip-path="url(#clip-36)">
<path fill="none" stroke-width="2" stroke-linecap="butt" stroke-linejoin="miter" stroke="rgb(0%, 0%, 0%)" stroke-opacity="1" stroke-miterlimit="4" d="M 130.548119 112.266325 L 65.337181 150.160856 L 0.00124375 112.410856 L 0.052025 38.051481 L 65.337181 0.0007 L 130.266869 37.836638 Z M 130.548119 112.266325 " transform="matrix(1, 0, 0, 1, 68.9011, 339.1868)"/>
</g>
<g clip-path="url(#clip-37)">
<path fill="none" stroke-width="4" stroke-linecap="butt" stroke-linejoin="miter" stroke="rgb(0%, 0%, 0%)" stroke-opacity="1" stroke-miterlimit="4" d="M -0.000275 0.00013125 L 13.648162 0.00013125 L -1.152619 0.00013125 " transform="matrix(0, -1, 1, 0, 84.5194, 418.4216)"/>
</g>
<path fill-rule="nonzero" fill="rgb(0%, 0%, 0%)" fill-opacity="1" d="M 92.917969 421.574219 L 84.519531 404.773438 L 76.121094 421.574219 Z M 92.917969 421.574219 "/>
<g clip-path="url(#clip-38)">
<path fill="none" stroke-width="5" stroke-linecap="butt" stroke-linejoin="miter" stroke="rgb(0%, 0%, 0%)" stroke-opacity="1" stroke-miterlimit="4" d="M 86.288156 14.900006 C 106.026437 34.767194 106.026437 66.978131 86.288156 86.845319 C 66.549875 106.712506 34.545969 106.712506 14.803781 86.845319 C -4.9345 66.978131 -4.9345 34.767194 14.803781 14.900006 C 34.545969 -4.967181 66.549875 -4.967181 86.288156 14.900006 Z M 86.288156 14.900006 " transform="matrix(1, 0, 0, 1, 18.247, 249.7914)"/>
</g>
<path fill-rule="nonzero" fill="rgb(0%, 0%, 0%)" fill-opacity="1" d="M 72.457031 297.769531 C 75.175781 300.492188 75.175781 304.90625 72.457031 307.625 C 69.734375 310.347656 65.320312 310.347656 62.601562 307.625 C 59.878906 304.90625 59.878906 300.492188 62.601562 297.769531 C 65.320312 295.050781 69.734375 295.050781 72.457031 297.769531 Z M 72.457031 297.769531 "/>
<g clip-path="url(#clip-39)">
<path fill="none" stroke-width="4" stroke-linecap="butt" stroke-linejoin="miter" stroke="rgb(0%, 0%, 0%)" stroke-opacity="1" stroke-miterlimit="4" d="M 11.897231 2.039531 C 14.615981 4.762188 14.615981 9.17625 11.897231 11.895 C 9.174575 14.617656 4.760513 14.617656 2.041763 11.895 C -0.680894 9.17625 -0.680894 4.762188 2.041763 2.039531 C 4.760513 -0.679219 9.174575 -0.679219 11.897231 2.039531 Z M 11.897231 2.039531 " transform="matrix(1, 0, 0, 1, 60.5598, 295.73)"/>
</g>
<g clip-path="url(#clip-40)">
<path fill="none" stroke-width="2" stroke-linecap="butt" stroke-linejoin="miter" stroke="rgb(0%, 0%, 0%)" stroke-opacity="1" stroke-miterlimit="4" d="M 130.548737 112.265756 L 65.3378 150.160288 L 0.0018625 112.410288 L 0.0526437 38.050913 L 65.3378 0.00013125 L 130.267487 37.836069 Z M 130.548737 112.265756 " transform="matrix(1, 0, 0, 1, 3.7872, 226.6444)"/>
</g>
<g clip-path="url(#clip-41)">
<path fill="none" stroke-width="4" stroke-linecap="butt" stroke-linejoin="miter" stroke="rgb(0%, 0%, 0%)" stroke-opacity="1" stroke-miterlimit="4" d="M 0.00029375 0.00065 L 13.648731 0.00065 L -1.15205 0.00065 " transform="matrix(0, -1, 1, 0, 19.4056, 305.8792)"/>
</g>
<path fill-rule="nonzero" fill="rgb(0%, 0%, 0%)" fill-opacity="1" d="M 27.804688 309.03125 L 19.40625 292.230469 L 11.003906 309.03125 Z M 27.804688 309.03125 "/>
<g clip-path="url(#clip-42)">
<path fill="none" stroke-width="5" stroke-linecap="butt" stroke-linejoin="miter" stroke="rgb(0%, 0%, 0%)" stroke-opacity="1" stroke-miterlimit="4" d="M 86.287019 14.901144 C 106.0253 34.768331 106.0253 66.979269 86.287019 86.84255 C 66.548737 106.709738 34.544831 106.709738 14.80655 86.84255 C -4.935638 66.979269 -4.935638 34.768331 14.80655 14.901144 C 34.544831 -4.966044 66.548737 -4.966044 86.287019 14.901144 Z M 86.287019 14.901144 " transform="matrix(1, 0, 0, 1, 148.4747, 474.8762)"/>
</g>
<path fill-rule="nonzero" fill="rgb(0%, 0%, 0%)" fill-opacity="1" d="M 202.683594 522.855469 C 205.40625 525.578125 205.40625 529.988281 202.683594 532.710938 C 199.960938 535.433594 195.550781 535.433594 192.828125 532.710938 C 190.105469 529.988281 190.105469 525.578125 192.828125 522.855469 C 195.550781 520.132812 199.960938 520.132812 202.683594 522.855469 Z M 202.683594 522.855469 "/>
<g clip-path="url(#clip-43)">
<path fill="none" stroke-width="4" stroke-linecap="butt" stroke-linejoin="miter" stroke="rgb(0%, 0%, 0%)" stroke-opacity="1" stroke-miterlimit="4" d="M 11.896094 2.040669 C 14.61875 4.763325 14.61875 9.173481 11.896094 11.896138 C 9.173438 14.618794 4.763281 14.618794 2.040625 11.896138 C -0.682031 9.173481 -0.682031 4.763325 2.040625 2.040669 C 4.763281 -0.681987 9.173438 -0.681987 11.896094 2.040669 Z M 11.896094 2.040669 " transform="matrix(1, 0, 0, 1, 190.7875, 520.8148)"/>
</g>
<g clip-path="url(#clip-44)">
<path fill="none" stroke-width="2" stroke-linecap="butt" stroke-linejoin="miter" stroke="rgb(0%, 0%, 0%)" stroke-opacity="1" stroke-miterlimit="4" d="M 130.5476 112.266794 L 65.336662 150.161325 L 0.000725 112.407419 L 0.0515062 38.05195 L 65.336662 0.00116875 L 130.26635 37.837106 Z M 130.5476 112.266794 " transform="matrix(1, 0, 0, 1, 134.0149, 451.7293)"/>
</g>
<g clip-path="url(#clip-45)">
<path fill="none" stroke-width="4" stroke-linecap="butt" stroke-linejoin="miter" stroke="rgb(0%, 0%, 0%)" stroke-opacity="1" stroke-miterlimit="4" d="M -0.00084375 -0.0003875 L 13.647594 -0.0003875 L -1.153188 -0.0003875 " transform="matrix(0, -1, 1, 0, 149.6332, 530.964)"/>
</g>
<path fill-rule="nonzero" fill="rgb(0%, 0%, 0%)" fill-opacity="1" d="M 158.03125 534.117188 L 149.632812 517.316406 L 141.234375 534.117188 Z M 158.03125 534.117188 "/>
<g clip-path="url(#clip-46)">
<path fill="none" stroke-width="5" stroke-linecap="butt" stroke-linejoin="miter" stroke="rgb(0%, 0%, 0%)" stroke-opacity="1" stroke-miterlimit="4" d="M 86.285981 14.901144 C 106.028169 34.768331 106.028169 66.979269 86.285981 86.84255 C 66.5477 106.709738 34.543794 106.709738 14.805513 86.84255 C -4.936675 66.979269 -4.936675 34.768331 14.805513 14.901144 C 34.543794 -4.966044 66.5477 -4.966044 86.285981 14.901144 Z M 86.285981 14.901144 " transform="matrix(1, 0, 0, 1, 278.7023, 474.8762)"/>
</g>
<path fill-rule="nonzero" fill="rgb(0%, 0%, 0%)" fill-opacity="1" d="M 332.910156 522.855469 C 335.632812 525.578125 335.632812 529.988281 332.910156 532.710938 C 330.191406 535.433594 325.777344 535.433594 323.054688 532.710938 C 320.335938 529.988281 320.335938 525.578125 323.054688 522.855469 C 325.777344 520.132812 330.191406 520.132812 332.910156 522.855469 Z M 332.910156 522.855469 "/>
<g clip-path="url(#clip-47)">
<path fill="none" stroke-width="4" stroke-linecap="butt" stroke-linejoin="miter" stroke="rgb(0%, 0%, 0%)" stroke-opacity="1" stroke-miterlimit="4" d="M 11.895056 2.040669 C 14.617712 4.763325 14.617712 9.173481 11.895056 11.896138 C 9.176306 14.618794 4.762244 14.618794 2.039587 11.896138 C -0.679163 9.173481 -0.679163 4.763325 2.039587 2.040669 C 4.762244 -0.681987 9.176306 -0.681987 11.895056 2.040669 Z M 11.895056 2.040669 " transform="matrix(1, 0, 0, 1, 321.0151, 520.8148)"/>
</g>
<g clip-path="url(#clip-48)">
<path fill="none" stroke-width="2" stroke-linecap="butt" stroke-linejoin="miter" stroke="rgb(0%, 0%, 0%)" stroke-opacity="1" stroke-miterlimit="4" d="M 130.546563 112.266794 L 65.335625 150.161325 L -0.0003125 112.407419 L 0.054375 38.05195 L 65.335625 0.00116875 L 130.265313 37.837106 Z M 130.546563 112.266794 " transform="matrix(1, 0, 0, 1, 264.2425, 451.7293)"/>
</g>
<g clip-path="url(#clip-49)">
<path fill="none" stroke-width="4" stroke-linecap="butt" stroke-linejoin="miter" stroke="rgb(0%, 0%, 0%)" stroke-opacity="1" stroke-miterlimit="4" d="M -0.00084375 -0.001525 L 13.647594 -0.001525 L -1.153188 -0.001525 " transform="matrix(0, -1, 1, 0, 279.8609, 530.964)"/>
</g>
<path fill-rule="nonzero" fill="rgb(0%, 0%, 0%)" fill-opacity="1" d="M 288.261719 534.117188 L 279.859375 517.316406 L 271.460938 534.117188 Z M 288.261719 534.117188 "/>
<g clip-path="url(#clip-50)">
<path fill="none" stroke-width="5" stroke-linecap="butt" stroke-linejoin="miter" stroke="rgb(0%, 0%, 0%)" stroke-opacity="1" stroke-miterlimit="4" d="M 86.28875 14.901931 C 106.027031 34.765213 106.027031 66.97615 86.28875 86.843338 C 66.546562 106.710525 34.542656 106.710525 14.804375 86.843338 C -4.933906 66.97615 -4.933906 34.765213 14.804375 14.901931 C 34.542656 -4.965256 66.546562 -4.965256 86.28875 14.901931 Z M 86.28875 14.901931 " transform="matrix(1, 0, 0, 1, 408.93, 475.6801)"/>
</g>
<path fill-rule="nonzero" fill="rgb(0%, 0%, 0%)" fill-opacity="1" d="M 463.140625 523.660156 C 465.859375 526.382812 465.859375 530.792969 463.140625 533.515625 C 460.417969 536.234375 456.003906 536.234375 453.285156 533.515625 C 450.5625 530.792969 450.5625 526.382812 453.285156 523.660156 C 456.003906 520.9375 460.417969 520.9375 463.140625 523.660156 Z M 463.140625 523.660156 "/>
<g clip-path="url(#clip-51)">
<path fill="none" stroke-width="4" stroke-linecap="butt" stroke-linejoin="miter" stroke="rgb(0%, 0%, 0%)" stroke-opacity="1" stroke-miterlimit="4" d="M 11.897825 2.041456 C 14.616575 4.764113 14.616575 9.174269 11.897825 11.896925 C 9.175169 14.615675 4.761106 14.615675 2.042356 11.896925 C -0.6803 9.174269 -0.6803 4.764113 2.042356 2.041456 C 4.761106 -0.6812 9.175169 -0.6812 11.897825 2.041456 Z M 11.897825 2.041456 " transform="matrix(1, 0, 0, 1, 451.2428, 521.6187)"/>
</g>
<g clip-path="url(#clip-52)">
<path fill="none" stroke-width="2" stroke-linecap="butt" stroke-linejoin="miter" stroke="rgb(0%, 0%, 0%)" stroke-opacity="1" stroke-miterlimit="4" d="M 130.549331 112.267681 L 65.334487 150.162213 L -0.00145 112.408306 L 0.0532375 38.048931 L 65.334487 -0.00185 L 130.264175 37.837994 Z M 130.549331 112.267681 " transform="matrix(1, 0, 0, 1, 394.4702, 452.5331)"/>
</g>
<g clip-path="url(#clip-53)">
<path fill="none" stroke-width="4" stroke-linecap="butt" stroke-linejoin="miter" stroke="rgb(0%, 0%, 0%)" stroke-opacity="1" stroke-miterlimit="4" d="M -0.00163125 0.00134375 L 13.646806 0.00134375 L -1.153975 0.00134375 " transform="matrix(0, -1, 1, 0, 410.0885, 531.7679)"/>
</g>
<path fill-rule="nonzero" fill="rgb(0%, 0%, 0%)" fill-opacity="1" d="M 418.488281 534.921875 L 410.089844 518.121094 L 401.6875 534.921875 Z M 418.488281 534.921875 "/>
<g clip-path="url(#clip-54)">
<path fill="none" stroke-width="5" stroke-linecap="butt" stroke-linejoin="miter" stroke="rgb(0%, 0%, 0%)" stroke-opacity="1" stroke-miterlimit="4" d="M 86.289019 14.901463 C 106.0273 34.76865 106.0273 66.975681 86.289019 86.842869 C 66.546831 106.710056 34.542925 106.710056 14.804644 86.842869 C -4.933638 66.975681 -4.933638 34.76865 14.804644 14.901463 C 34.542925 -4.965725 66.546831 -4.965725 86.289019 14.901463 Z M 86.289019 14.901463 " transform="matrix(1, 0, 0, 1, 474.8477, 363.1376)"/>
</g>
<path fill-rule="nonzero" fill="rgb(0%, 0%, 0%)" fill-opacity="1" d="M 529.054688 411.117188 C 531.777344 413.839844 531.777344 418.25 529.054688 420.972656 C 526.335938 423.695312 521.921875 423.695312 519.203125 420.972656 C 516.480469 418.25 516.480469 413.839844 519.203125 411.117188 C 521.921875 408.394531 526.335938 408.394531 529.054688 411.117188 Z M 529.054688 411.117188 "/>
<g clip-path="url(#clip-55)">
<path fill="none" stroke-width="4" stroke-linecap="butt" stroke-linejoin="miter" stroke="rgb(0%, 0%, 0%)" stroke-opacity="1" stroke-miterlimit="4" d="M 11.894188 2.040888 C 14.616844 4.763544 14.616844 9.1737 11.894188 11.896356 C 9.175438 14.619013 4.761375 14.619013 2.042625 11.896356 C -0.680031 9.1737 -0.680031 4.763544 2.042625 2.040888 C 4.761375 -0.681769 9.175438 -0.681769 11.894188 2.040888 Z M 11.894188 2.040888 " transform="matrix(1, 0, 0, 1, 517.1605, 409.0763)"/>
</g>
<g clip-path="url(#clip-56)">
<path fill="none" stroke-width="2" stroke-linecap="butt" stroke-linejoin="miter" stroke="rgb(0%, 0%, 0%)" stroke-opacity="1" stroke-miterlimit="4" d="M 130.5496 112.267113 L 65.334756 150.161644 L -0.00118125 112.407738 L 0.0535062 38.048363 L 65.334756 0.0014875 L 130.264444 37.837425 Z M 130.5496 112.267113 " transform="matrix(1, 0, 0, 1, 460.3879, 339.9907)"/>
</g>
<g clip-path="url(#clip-57)">
<path fill="none" stroke-width="4" stroke-linecap="butt" stroke-linejoin="miter" stroke="rgb(0%, 0%, 0%)" stroke-opacity="1" stroke-miterlimit="4" d="M -0.0010625 0.0016125 L 13.647375 0.0016125 L -1.153406 0.0016125 " transform="matrix(0, -1, 1, 0, 476.0062, 419.2255)"/>
</g>
<path fill-rule="nonzero" fill="rgb(0%, 0%, 0%)" fill-opacity="1" d="M 484.40625 422.378906 L 476.007812 405.578125 L 467.605469 422.378906 Z M 484.40625 422.378906 "/>
<g clip-path="url(#clip-58)">
<path fill="none" stroke-width="5" stroke-linecap="butt" stroke-linejoin="miter" stroke="rgb(0%, 0%, 0%)" stroke-opacity="1" stroke-miterlimit="4" d="M 86.2885 14.900894 C 106.026781 34.768081 106.026781 66.979019 86.2885 86.846206 C 66.546312 106.709488 34.542406 106.709488 14.804125 86.846206 C -4.934156 66.979019 -4.934156 34.768081 14.804125 14.900894 C 34.542406 -4.966294 66.546312 -4.966294 86.2885 14.900894 Z M 86.2885 14.900894 " transform="matrix(1, 0, 0, 1, 539.9615, 250.5952)"/>
</g>
<path fill-rule="nonzero" fill="rgb(0%, 0%, 0%)" fill-opacity="1" d="M 594.171875 298.574219 C 596.890625 301.296875 596.890625 305.707031 594.171875 308.429688 C 591.449219 311.152344 587.035156 311.152344 584.316406 308.429688 C 581.59375 305.707031 581.59375 301.296875 584.316406 298.574219 C 587.035156 295.851562 591.449219 295.851562 594.171875 298.574219 Z M 594.171875 298.574219 "/>
<g clip-path="url(#clip-59)">
<path fill="none" stroke-width="4" stroke-linecap="butt" stroke-linejoin="miter" stroke="rgb(0%, 0%, 0%)" stroke-opacity="1" stroke-miterlimit="4" d="M 11.897575 2.040319 C 14.616325 4.762975 14.616325 9.173131 11.897575 11.895788 C 9.174919 14.618444 4.760856 14.618444 2.042106 11.895788 C -0.68055 9.173131 -0.68055 4.762975 2.042106 2.040319 C 4.760856 -0.678431 9.174919 -0.678431 11.897575 2.040319 Z M 11.897575 2.040319 " transform="matrix(1, 0, 0, 1, 582.2743, 296.5339)"/>
</g>
<g clip-path="url(#clip-60)">
<path fill="none" stroke-width="2" stroke-linecap="butt" stroke-linejoin="miter" stroke="rgb(0%, 0%, 0%)" stroke-opacity="1" stroke-miterlimit="4" d="M 130.549081 112.266544 L 65.334237 150.161075 L -0.0017 112.411075 L 0.0529875 38.0517 L 65.334237 0.00091875 L 130.267831 37.836856 Z M 130.549081 112.266544 " transform="matrix(1, 0, 0, 1, 525.5017, 227.4483)"/>
</g>
<g clip-path="url(#clip-61)">
<path fill="none" stroke-width="4" stroke-linecap="butt" stroke-linejoin="miter" stroke="rgb(0%, 0%, 0%)" stroke-opacity="1" stroke-miterlimit="4" d="M -0.00049375 0.00109375 L 13.647944 0.00109375 L -1.152838 0.00109375 " transform="matrix(0, -1, 1, 0, 541.12, 306.6831)"/>
</g>
<path fill-rule="nonzero" fill="rgb(0%, 0%, 0%)" fill-opacity="1" d="M 549.519531 309.835938 L 541.121094 293.035156 L 532.71875 309.835938 Z M 549.519531 309.835938 "/>
<g clip-path="url(#clip-62)">
<path fill="none" stroke-width="5" stroke-linecap="butt" stroke-linejoin="miter" stroke="rgb(0%, 0%, 0%)" stroke-opacity="1" stroke-miterlimit="4" d="M 86.286 14.900325 C 106.028188 34.767513 106.028188 66.97845 86.286 86.845638 C 66.547719 106.712825 34.543813 106.712825 14.805531 86.845638 C -4.936656 66.97845 -4.936656 34.767513 14.805531 14.900325 C 34.543813 -4.966862 66.547719 -4.966862 86.286 14.900325 Z M 86.286 14.900325 " transform="matrix(1, 0, 0, 1, 475.6515, 138.0528)"/>
</g>
<path fill-rule="nonzero" fill="rgb(0%, 0%, 0%)" fill-opacity="1" d="M 529.859375 186.03125 C 532.582031 188.753906 532.582031 193.164062 529.859375 195.886719 C 527.140625 198.609375 522.726562 198.609375 520.003906 195.886719 C 517.285156 193.164062 517.285156 188.753906 520.003906 186.03125 C 522.726562 183.3125 527.140625 183.3125 529.859375 186.03125 Z M 529.859375 186.03125 "/>
<g clip-path="url(#clip-63)">
<path fill="none" stroke-width="4" stroke-linecap="butt" stroke-linejoin="miter" stroke="rgb(0%, 0%, 0%)" stroke-opacity="1" stroke-miterlimit="4" d="M 11.895075 2.03985 C 14.617731 4.762506 14.617731 9.172663 11.895075 11.895319 C 9.176325 14.617975 4.762262 14.617975 2.039606 11.895319 C -0.679144 9.172663 -0.679144 4.762506 2.039606 2.03985 C 4.762262 -0.6789 9.176325 -0.6789 11.895075 2.03985 Z M 11.895075 2.03985 " transform="matrix(1, 0, 0, 1, 517.9643, 183.9914)"/>
</g>
<g clip-path="url(#clip-64)">
<path fill="none" stroke-width="2" stroke-linecap="butt" stroke-linejoin="miter" stroke="rgb(0%, 0%, 0%)" stroke-opacity="1" stroke-miterlimit="4" d="M 130.546581 112.265975 L 65.335644 150.160506 L -0.00029375 112.410506 L 0.0543938 38.051131 L 65.335644 0.00035 L 130.265331 37.836288 Z M 130.546581 112.265975 " transform="matrix(1, 0, 0, 1, 461.1917, 114.9059)"/>
</g>
<g clip-path="url(#clip-65)">
<path fill="none" stroke-width="4" stroke-linecap="butt" stroke-linejoin="miter" stroke="rgb(0%, 0%, 0%)" stroke-opacity="1" stroke-miterlimit="4" d="M 0.000075 -0.00150625 L 13.648512 -0.00150625 L -1.152269 -0.00150625 " transform="matrix(0, -1, 1, 0, 476.8101, 194.1407)"/>
</g>
<path fill-rule="nonzero" fill="rgb(0%, 0%, 0%)" fill-opacity="1" d="M 485.210938 197.292969 L 476.808594 180.492188 L 468.410156 197.292969 Z M 485.210938 197.292969 "/>
<g clip-path="url(#clip-66)">
<path fill="none" stroke-width="5" stroke-linecap="butt" stroke-linejoin="miter" stroke="rgb(0%, 0%, 0%)" stroke-opacity="1" stroke-miterlimit="4" d="M 86.286519 14.899756 C 106.028706 34.766944 106.028706 66.977881 86.286519 86.845069 C 66.548237 106.712256 34.544331 106.712256 14.80605 86.845069 C -4.936138 66.977881 -4.936138 34.766944 14.80605 14.899756 C 34.544331 -4.967431 66.548237 -4.967431 86.286519 14.899756 Z M 86.286519 14.899756 " transform="matrix(1, 0, 0, 1, 410.5377, 25.5104)"/>
</g>
<path fill-rule="nonzero" fill="rgb(0%, 0%, 0%)" fill-opacity="1" d="M 464.746094 73.488281 C 467.46875 76.210938 467.46875 80.625 464.746094 83.34375 C 462.023438 86.066406 457.613281 86.066406 454.890625 83.34375 C 452.171875 80.625 452.171875 76.210938 454.890625 73.488281 C 457.613281 70.769531 462.023438 70.769531 464.746094 73.488281 Z M 464.746094 73.488281 "/>
<g clip-path="url(#clip-67)">
<path fill="none" stroke-width="4" stroke-linecap="butt" stroke-linejoin="miter" stroke="rgb(0%, 0%, 0%)" stroke-opacity="1" stroke-miterlimit="4" d="M 11.895594 2.039281 C 14.61825 4.761938 14.61825 9.176 11.895594 11.89475 C 9.172937 14.617406 4.762781 14.617406 2.040125 11.89475 C -0.678625 9.176 -0.678625 4.761938 2.040125 2.039281 C 4.762781 -0.679469 9.172937 -0.679469 11.895594 2.039281 Z M 11.895594 2.039281 " transform="matrix(1, 0, 0, 1, 452.8505, 71.449)"/>
</g>
<g clip-path="url(#clip-68)">
<path fill="none" stroke-width="2" stroke-linecap="butt" stroke-linejoin="miter" stroke="rgb(0%, 0%, 0%)" stroke-opacity="1" stroke-miterlimit="4" d="M 130.5471 112.269313 L 65.336163 150.159938 L 0.000225 112.409938 L 0.0549125 38.050563 L 65.336163 -0.00021875 L 130.26585 37.835719 Z M 130.5471 112.269313 " transform="matrix(1, 0, 0, 1, 396.0779, 2.3635)"/>
</g>
<g clip-path="url(#clip-69)">
<path fill="none" stroke-width="4" stroke-linecap="butt" stroke-linejoin="miter" stroke="rgb(0%, 0%, 0%)" stroke-opacity="1" stroke-miterlimit="4" d="M 0.00064375 -0.0008875 L 13.645175 -0.0008875 L -1.1517 -0.0008875 " transform="matrix(0, -1, 1, 0, 411.6962, 81.5983)"/>
</g>
<path fill-rule="nonzero" fill="rgb(0%, 0%, 0%)" fill-opacity="1" d="M 420.097656 84.75 L 411.695312 67.953125 L 403.296875 84.75 Z M 420.097656 84.75 "/>
<g clip-path="url(#clip-70)">
<path fill="none" stroke-width="5" stroke-linecap="butt" stroke-linejoin="miter" stroke="rgb(0%, 0%, 0%)" stroke-opacity="1" stroke-miterlimit="4" d="M 86.286769 14.899756 C 106.028956 34.766944 106.028956 66.977881 86.286769 86.845069 C 66.548488 106.712256 34.544581 106.712256 14.8063 86.845069 C -4.935887 66.977881 -4.935887 34.766944 14.8063 14.899756 C 34.544581 -4.967431 66.548488 -4.967431 86.286769 14.899756 Z M 86.286769 14.899756 " transform="matrix(1, 0, 0, 1, 279.5062, 25.5104)"/>
</g>
<path fill-rule="nonzero" fill="rgb(0%, 0%, 0%)" fill-opacity="1" d="M 333.714844 73.488281 C 336.4375 76.210938 336.4375 80.625 333.714844 83.34375 C 330.992188 86.066406 326.582031 86.066406 323.859375 83.34375 C 321.136719 80.625 321.136719 76.210938 323.859375 73.488281 C 326.582031 70.769531 330.992188 70.769531 333.714844 73.488281 Z M 333.714844 73.488281 "/>
<g clip-path="url(#clip-71)">
<path fill="none" stroke-width="4" stroke-linecap="butt" stroke-linejoin="miter" stroke="rgb(0%, 0%, 0%)" stroke-opacity="1" stroke-miterlimit="4" d="M 11.895844 2.039281 C 14.6185 4.761938 14.6185 9.176 11.895844 11.89475 C 9.173187 14.617406 4.763031 14.617406 2.040375 11.89475 C -0.682281 9.176 -0.682281 4.761938 2.040375 2.039281 C 4.763031 -0.679469 9.173187 -0.679469 11.895844 2.039281 Z M 11.895844 2.039281 " transform="matrix(1, 0, 0, 1, 321.819, 71.449)"/>
</g>
<g clip-path="url(#clip-72)">
<path fill="none" stroke-width="2" stroke-linecap="butt" stroke-linejoin="miter" stroke="rgb(0%, 0%, 0%)" stroke-opacity="1" stroke-miterlimit="4" d="M 130.54735 112.269313 L 65.336413 150.159938 L 0.000475 112.409938 L 0.0512563 38.050563 L 65.336413 -0.00021875 L 130.2661 37.835719 Z M 130.54735 112.269313 " transform="matrix(1, 0, 0, 1, 265.0464, 2.3635)"/>
</g>
<g clip-path="url(#clip-73)">
<path fill="none" stroke-width="4" stroke-linecap="butt" stroke-linejoin="miter" stroke="rgb(0%, 0%, 0%)" stroke-opacity="1" stroke-miterlimit="4" d="M 0.00064375 -0.0006375 L 13.645175 -0.0006375 L -1.1517 -0.0006375 " transform="matrix(0, -1, 1, 0, 280.6647, 81.5983)"/>
</g>
<path fill-rule="nonzero" fill="rgb(0%, 0%, 0%)" fill-opacity="1" d="M 289.066406 84.75 L 280.664062 67.953125 L 272.265625 84.75 Z M 289.066406 84.75 "/>
<g clip-path="url(#clip-74)">
<path fill="none" stroke-width="5" stroke-linecap="butt" stroke-linejoin="miter" stroke="rgb(0%, 0%, 0%)" stroke-opacity="1" stroke-miterlimit="4" d="M 86.287906 14.898969 C 106.026187 34.766156 106.026187 66.977094 86.287906 86.844281 C 66.549625 106.711469 34.545719 106.711469 14.803531 86.844281 C -4.93475 66.977094 -4.93475 34.766156 14.803531 14.898969 C 34.545719 -4.968219 66.549625 -4.968219 86.287906 14.898969 Z M 86.287906 14.898969 " transform="matrix(1, 0, 0, 1, 149.2785, 24.7065)"/>
</g>
<path fill-rule="nonzero" fill="rgb(0%, 0%, 0%)" fill-opacity="1" d="M 203.488281 72.6875 C 206.207031 75.40625 206.207031 79.820312 203.488281 82.542969 C 200.765625 85.261719 196.355469 85.261719 193.632812 82.542969 C 190.910156 79.820312 190.910156 75.40625 193.632812 72.6875 C 196.355469 69.964844 200.765625 69.964844 203.488281 72.6875 Z M 203.488281 72.6875 "/>
<g clip-path="url(#clip-75)">
<path fill="none" stroke-width="4" stroke-linecap="butt" stroke-linejoin="miter" stroke="rgb(0%, 0%, 0%)" stroke-opacity="1" stroke-miterlimit="4" d="M 11.896981 2.0423 C 14.615731 4.76105 14.615731 9.175113 11.896981 11.897769 C 9.174325 14.616519 4.764169 14.616519 2.041512 11.897769 C -0.681144 9.175113 -0.681144 4.76105 2.041512 2.0423 C 4.764169 -0.680356 9.174325 -0.680356 11.896981 2.0423 Z M 11.896981 2.0423 " transform="matrix(1, 0, 0, 1, 191.5913, 70.6452)"/>
</g>
<g clip-path="url(#clip-76)">
<path fill="none" stroke-width="2" stroke-linecap="butt" stroke-linejoin="miter" stroke="rgb(0%, 0%, 0%)" stroke-opacity="1" stroke-miterlimit="4" d="M 130.548487 112.268525 L 65.33755 150.163056 L 0.0016125 112.40915 L 0.0523937 38.049775 L 65.33755 -0.00100625 L 130.267237 37.838838 Z M 130.548487 112.268525 " transform="matrix(1, 0, 0, 1, 134.8187, 1.5596)"/>
</g>
<g clip-path="url(#clip-77)">
<path fill="none" stroke-width="4" stroke-linecap="butt" stroke-linejoin="miter" stroke="rgb(0%, 0%, 0%)" stroke-opacity="1" stroke-miterlimit="4" d="M 0.00143125 0.0004 L 13.645962 0.0004 L -1.154819 0.0004 " transform="matrix(0, -1, 1, 0, 150.4371, 80.7944)"/>
</g>
<path fill-rule="nonzero" fill="rgb(0%, 0%, 0%)" fill-opacity="1" d="M 158.835938 83.949219 L 150.4375 67.148438 L 142.035156 83.949219 Z M 158.835938 83.949219 "/>
<g clip-path="url(#clip-78)">
<path fill="none" stroke-width="4" stroke-linecap="butt" stroke-linejoin="miter" stroke="rgb(100%, 14.901733%, 0%)" stroke-opacity="1" stroke-miterlimit="4" d="M -0.00069375 0.00041875 L 13.647744 0.00041875 L -1.153038 0.00041875 " transform="matrix(0, -1, 1, 0, 204.7613, 202.2454)"/>
</g>
<path fill-rule="nonzero" fill="rgb(100%, 14.901733%, 0%)" fill-opacity="1" d="M 213.160156 205.398438 L 204.761719 188.597656 L 196.359375 205.398438 Z M 213.160156 205.398438 "/>
</svg>
