<?xml version="1.0" encoding="UTF-8"?>
<svg xmlns="http://www.w3.org/2000/svg" xmlns:xlink="http://www.w3.org/1999/xlink" width="659.0159pt" height="612.24773pt" viewBox="0 0 659.0159 612.24773">
<defs>
<clipPath id="clip-0">
<path clip-rule="nonzero" d="M 0 0 L 659.015625 0 L 659.015625 612.246094 L 0 612.246094 Z M 0 0 "/>
</clipPath>
<clipPath id="clip-1">
<path clip-rule="nonzero" d="M 123 443 L 277 443 L 277 612.246094 L 123 612.246094 Z M 123 443 "/>
</clipPath>
<clipPath id="clip-2">
<path clip-rule="nonzero" d="M 253 443 L 407 443 L 407 612.246094 L 253 612.246094 Z M 253 443 "/>
</clipPath>
<clipPath id="clip-3">
<path clip-rule="nonzero" d="M 383 443 L 537 443 L 537 612.246094 L 383 612.246094 Z M 383 443 "/>
</clipPath>
<clipPath id="clip-4">
<path clip-rule="nonzero" d="M 514 218 L 659.015625 218 L 659.015625 392 L 514 392 Z M 514 218 "/>
</clipPath>
</defs>
<g clip-path="url(#clip-0)">
<rect x="-65.90159" y="-61.224773" width="790.81908" height="734.697276" fill="rgb(100%, 100%, 100%)" fill-opacity="1"/>
</g>
<path fill-rule="nonzero" fill="rgb(100%, 52.157593%, 58.824158%)" fill-opacity="0.0812" stroke-width="5" stroke-linecap="butt" stroke-linejoin="miter" stroke="rgb(100%, 14.901733%, 0%)" stroke-opacity="1" stroke-miterlimit="4" d="M 315.145013 45.076419 C 320.371575 63.525638 311.691888 84.342044 321.078606 101.412356 C 329.410638 116.572513 348.020013 121.138919 361.10595 132.09595 C 375.1997 143.900638 381.85595 160.756106 380.562981 179.744388 C 379.453606 196.021731 371.961419 211.291263 359.117669 221.361575 C 346.352044 231.373294 328.891106 235.631106 320.672356 249.865481 C 309.187981 269.7522 323.406731 294.5022 314.082513 314.78345 C 308.586419 326.748294 298.1372 333.357669 287.922356 339.431888 C 280.191888 344.029544 272.195794 348.560794 263.227044 349.463138 C 236.1997 352.177981 216.465325 323.318606 189.617669 323.904544 C 179.758294 324.115481 170.340325 328.463138 161.508294 333.642825 C 149.852044 340.482669 139.117669 348.990481 125.582513 350.09595 C 113.922356 351.049075 102.996575 346.47095 93.742669 339.795169 C 84.098138 332.838138 76.297356 323.900638 71.937981 312.869388 C 67.73095 302.236575 67.090325 290.271731 66.648919 278.646731 C 66.258294 268.326419 65.797356 257.974856 60.680169 248.8772 C 50.844231 231.381106 28.3872 226.6897 14.562981 212.787356 C 3.660638 201.822513 -1.151862 186.248294 0.23095 170.834231 C 2.027825 150.84595 13.738763 133.111575 30.859856 122.584231 C 41.797356 115.857669 54.379388 112.263919 61.250481 100.978763 C 66.965325 91.59595 65.969231 80.486575 65.535638 69.385013 C 65.051263 56.892825 65.469231 44.076419 71.551263 33.072513 C 76.789544 23.603763 85.590325 16.994388 94.156731 11.427981 C 103.695794 5.236575 114.008294 -0.09155 125.770013 0.322513 C 138.152825 0.756106 149.051263 8.072513 159.516106 14.963138 C 168.867669 21.123294 178.1997 26.982669 189.691888 26.681888 C 200.234856 26.404544 209.437981 20.556888 218.316888 14.912356 C 229.687981 7.681888 241.590325 0.592044 254.961419 0.0373563 C 269.777825 -0.579831 283.156731 6.717044 294.3247 16.017825 C 303.48095 23.646731 311.738763 33.041263 315.145013 45.076419 Z M 315.145013 45.076419 " transform="matrix(1, 0, 0, 1, 139.5503, 129.8728)"/>
<path fill="none" stroke-width="5" stroke-linecap="butt" stroke-linejoin="miter" stroke="rgb(0%, 0%, 0%)" stroke-opacity="1" stroke-miterlimit="4" d="M 86.288306 14.898638 C 106.026588 34.765825 106.026588 66.976763 86.288306 86.84395 C 66.550025 106.711138 34.542213 106.711138 14.803931 86.84395 C -4.93435 66.976763 -4.93435 34.765825 14.803931 14.898638 C 34.542213 -4.96855 66.550025 -4.96855 86.288306 14.898638 Z M 86.288306 14.898638 " transform="matrix(1, 0, 0, 1, 213.0906, 141.5623)"/>
<path fill="none" stroke-width="4" stroke-linecap="butt" stroke-linejoin="miter" stroke="rgb(0%, 0%, 0%)" stroke-opacity="1" stroke-miterlimit="4" d="M -0.00135625 0.0000125 L 13.647081 0.0000125 L -1.1537 0.0000125 " transform="matrix(0, -1, 1, 0, 214.4453, 190.8463)"/>
<path fill-rule="nonzero" fill="rgb(0%, 0%, 0%)" fill-opacity="1" d="M 222.84375 194 L 214.445312 177.199219 L 206.046875 194 Z M 222.84375 194 "/>
<path fill="none" stroke-width="4" stroke-linecap="butt" stroke-linejoin="miter" stroke="rgb(0%, 0%, 0%)" stroke-opacity="1" stroke-miterlimit="4" d="M -0.00135625 -0.0002375 L 13.647081 -0.0002375 L -1.1537 -0.0002375 " transform="matrix(0, -1, 1, 0, 344.4768, 196.8463)"/>
<path fill-rule="nonzero" fill="rgb(0%, 0%, 0%)" fill-opacity="1" d="M 352.875 200 L 344.476562 183.199219 L 336.078125 200 Z M 352.875 200 "/>
<path fill-rule="nonzero" fill="rgb(0%, 0%, 0%)" fill-opacity="1" stroke-width="4" stroke-linecap="butt" stroke-linejoin="miter" stroke="rgb(0%, 0%, 0%)" stroke-opacity="1" stroke-miterlimit="4" d="M 11.8943 2.039556 C 14.616956 4.762213 14.616956 9.176275 11.8943 11.895025 C 9.17555 14.617681 4.761488 14.617681 2.042738 11.895025 C -0.679919 9.176275 -0.679919 4.762213 2.042738 2.039556 C 4.761488 -0.679194 9.17555 -0.679194 11.8943 2.039556 Z M 11.8943 2.039556 " transform="matrix(1, 0, 0, 1, 256.6682, 187.7456)"/>
<path fill="none" stroke-width="2" stroke-linecap="butt" stroke-linejoin="miter" stroke="rgb(0%, 0%, 0%)" stroke-opacity="1" stroke-miterlimit="4" d="M 130.5469 112.265981 L 65.335963 150.160513 L 0.000025 112.410513 L 0.0547125 38.051138 L 65.335963 0.00035625 L 130.26565 37.836294 Z M 130.5469 112.265981 " transform="matrix(1, 0, 0, 1, 199.5156, 117.2223)"/>
<path fill="none" stroke-width="5" stroke-linecap="butt" stroke-linejoin="miter" stroke="rgb(0%, 0%, 0%)" stroke-opacity="1" stroke-miterlimit="4" d="M 86.287687 14.901538 C 106.025969 34.768725 106.025969 66.975756 86.287687 86.842944 C 66.549406 106.710131 34.5455 106.710131 14.803312 86.842944 C -4.934969 66.975756 -4.934969 34.768725 14.803312 14.901538 C 34.5455 -4.96565 66.549406 -4.96565 86.287687 14.901538 Z M 86.287687 14.901538 " transform="matrix(1, 0, 0, 1, 278.2045, 252.4969)"/>
<path fill-rule="nonzero" fill="rgb(0%, 0%, 0%)" fill-opacity="1" stroke-width="4" stroke-linecap="butt" stroke-linejoin="miter" stroke="rgb(0%, 0%, 0%)" stroke-opacity="1" stroke-miterlimit="4" d="M 11.896862 2.040963 C 14.615612 4.763619 14.615612 9.173775 11.896862 11.896431 C 9.174206 14.619088 4.76405 14.619088 2.041394 11.896431 C -0.681263 9.173775 -0.681263 4.763619 2.041394 2.040963 C 4.76405 -0.681694 9.174206 -0.681694 11.896862 2.040963 Z M 11.896862 2.040963 " transform="matrix(1, 0, 0, 1, 320.5172, 298.4356)"/>
<path fill="none" stroke-width="2" stroke-linecap="butt" stroke-linejoin="miter" stroke="rgb(0%, 0%, 0%)" stroke-opacity="1" stroke-miterlimit="4" d="M 130.549156 112.267188 L 65.334313 150.161719 L -0.001625 112.407813 L 0.0530625 38.048438 L 65.334313 0.0015625 L 130.264 37.8375 Z M 130.549156 112.267188 " transform="matrix(1, 0, 0, 1, 264.5485, 229.35)"/>
<path fill="none" stroke-width="5" stroke-linecap="butt" stroke-linejoin="miter" stroke="rgb(0%, 0%, 0%)" stroke-opacity="1" stroke-miterlimit="4" d="M 86.285706 14.901538 C 106.027894 34.768725 106.027894 66.975756 86.285706 86.842944 C 66.547425 106.710131 34.543519 106.710131 14.805238 86.842944 C -4.933044 66.975756 -4.933044 34.768725 14.805238 14.901538 C 34.543519 -4.96565 66.547425 -4.96565 86.285706 14.901538 Z M 86.285706 14.901538 " transform="matrix(1, 0, 0, 1, 148.7807, 252.4969)"/>
<path fill-rule="nonzero" fill="rgb(0%, 0%, 0%)" fill-opacity="1" stroke-width="4" stroke-linecap="butt" stroke-linejoin="miter" stroke="rgb(0%, 0%, 0%)" stroke-opacity="1" stroke-miterlimit="4" d="M 11.894781 2.040963 C 14.617438 4.763619 14.617438 9.173775 11.894781 11.896431 C 9.176031 14.619088 4.761969 14.619088 2.039313 11.896431 C -0.679437 9.173775 -0.679437 4.763619 2.039313 2.040963 C 4.761969 -0.681694 9.176031 -0.681694 11.894781 2.040963 Z M 11.894781 2.040963 " transform="matrix(1, 0, 0, 1, 191.0935, 298.4356)"/>
<path fill="none" stroke-width="2" stroke-linecap="butt" stroke-linejoin="miter" stroke="rgb(0%, 0%, 0%)" stroke-opacity="1" stroke-miterlimit="4" d="M 130.550194 112.267188 L 65.33535 150.161719 L -0.0005875 112.407813 L 0.0541 38.048438 L 65.33535 0.0015625 L 130.265037 37.8375 Z M 130.550194 112.267188 " transform="matrix(1, 0, 0, 1, 134.3209, 229.35)"/>
<path fill="none" stroke-width="5" stroke-linecap="butt" stroke-linejoin="miter" stroke="rgb(0%, 0%, 0%)" stroke-opacity="1" stroke-miterlimit="4" d="M 86.28915 14.901869 C 106.027431 34.76515 106.027431 66.976088 86.28915 86.843275 C 66.546963 106.710463 34.543056 106.710463 14.804775 86.843275 C -4.933506 66.976088 -4.933506 34.76515 14.804775 14.901869 C 34.543056 -4.965319 66.546963 -4.965319 86.28915 14.901869 Z M 86.28915 14.901869 " transform="matrix(1, 0, 0, 1, 408.6171, 255.0786)"/>
<path fill-rule="nonzero" fill="rgb(0%, 0%, 0%)" fill-opacity="1" stroke-width="4" stroke-linecap="butt" stroke-linejoin="miter" stroke="rgb(0%, 0%, 0%)" stroke-opacity="1" stroke-miterlimit="4" d="M 11.894219 2.041394 C 14.616875 4.76405 14.616875 9.174206 11.894219 11.896863 C 9.175469 14.615613 4.761406 14.615613 2.042656 11.896863 C -0.68 9.174206 -0.68 4.76405 2.042656 2.041394 C 4.761406 -0.681262 9.175469 -0.681262 11.894219 2.041394 Z M 11.894219 2.041394 " transform="matrix(1, 0, 0, 1, 450.93, 301.0172)"/>
<path fill="none" stroke-width="2" stroke-linecap="butt" stroke-linejoin="miter" stroke="rgb(0%, 0%, 0%)" stroke-opacity="1" stroke-miterlimit="4" d="M 130.5474 112.265944 L 65.336462 150.160475 L 0.000525 112.410475 L 0.0513062 38.0511 L 65.336462 0.00031875 L 130.26615 37.836256 Z M 130.5474 112.265944 " transform="matrix(1, 0, 0, 1, 395.7651, 230.3239)"/>
<path fill="none" stroke-width="5" stroke-linecap="butt" stroke-linejoin="miter" stroke="rgb(0%, 0%, 0%)" stroke-opacity="1" stroke-miterlimit="4" d="M 86.287956 14.899525 C 106.026237 34.766712 106.026237 66.97765 86.287956 86.844837 C 66.549675 106.712025 34.545769 106.712025 14.803581 86.844837 C -4.9347 66.97765 -4.9347 34.766712 14.803581 14.899525 C 34.545769 -4.967663 66.549675 -4.967663 86.287956 14.899525 Z M 86.287956 14.899525 " transform="matrix(1, 0, 0, 1, 344.1222, 142.3661)"/>
<path fill-rule="nonzero" fill="rgb(0%, 0%, 0%)" fill-opacity="1" stroke-width="4" stroke-linecap="butt" stroke-linejoin="miter" stroke="rgb(0%, 0%, 0%)" stroke-opacity="1" stroke-miterlimit="4" d="M 11.897131 2.042856 C 14.615881 4.761606 14.615881 9.175669 11.897131 11.894419 C 9.174475 14.617075 4.764319 14.617075 2.041663 11.894419 C -0.680994 9.175669 -0.680994 4.761606 2.041663 2.042856 C 4.764319 -0.6798 9.174475 -0.6798 11.897131 2.042856 Z M 11.897131 2.042856 " transform="matrix(1, 0, 0, 1, 386.4349, 188.3048)"/>
<path fill="none" stroke-width="2" stroke-linecap="butt" stroke-linejoin="miter" stroke="rgb(0%, 0%, 0%)" stroke-opacity="1" stroke-miterlimit="4" d="M 130.549425 112.267406 L 65.334581 150.161938 L -0.00135625 112.408031 L 0.0533313 38.048656 L 65.334581 0.00178125 L 130.264269 37.837719 Z M 130.549425 112.267406 " transform="matrix(1, 0, 0, 1, 330.4662, 117.6115)"/>
<path fill="none" stroke-width="4" stroke-linecap="butt" stroke-linejoin="miter" stroke="rgb(0%, 0%, 0%)" stroke-opacity="1" stroke-miterlimit="4" d="M -0.001925 0.00141875 L 13.646512 0.00141875 L -1.154269 0.00141875 " transform="matrix(0, -1, 1, 0, 149.1353, 309.3887)"/>
<path fill-rule="nonzero" fill="rgb(0%, 0%, 0%)" fill-opacity="1" d="M 157.535156 312.542969 L 149.136719 295.742188 L 140.734375 312.542969 Z M 157.535156 312.542969 "/>
<path fill="none" stroke-width="4" stroke-linecap="butt" stroke-linejoin="miter" stroke="rgb(0%, 0%, 0%)" stroke-opacity="1" stroke-miterlimit="4" d="M -0.001925 -0.00050625 L 13.646512 -0.00050625 L -1.154269 -0.00050625 " transform="matrix(0, -1, 1, 0, 278.5591, 309.3887)"/>
<path fill-rule="nonzero" fill="rgb(0%, 0%, 0%)" fill-opacity="1" d="M 286.960938 312.542969 L 278.558594 295.742188 L 270.160156 312.542969 Z M 286.960938 312.542969 "/>
<path fill="none" stroke-width="4" stroke-linecap="butt" stroke-linejoin="miter" stroke="rgb(0%, 0%, 0%)" stroke-opacity="1" stroke-miterlimit="4" d="M 0.00119375 -0.00154375 L 13.645725 -0.00154375 L -1.155056 -0.00154375 " transform="matrix(0, -1, 1, 0, 408.7867, 310.1926)"/>
<path fill-rule="nonzero" fill="rgb(0%, 0%, 0%)" fill-opacity="1" d="M 417.1875 313.34375 L 408.785156 296.546875 L 400.386719 313.34375 Z M 417.1875 313.34375 "/>
<path fill="none" stroke-width="5" stroke-linecap="butt" stroke-linejoin="miter" stroke="rgb(0%, 0%, 0%)" stroke-opacity="1" stroke-miterlimit="4" d="M 86.288306 14.899775 C 106.026588 34.766963 106.026588 66.9779 86.288306 86.845088 C 66.550025 106.712275 34.542213 106.712275 14.803931 86.845088 C -4.93435 66.9779 -4.93435 34.766963 14.803931 14.899775 C 34.542213 -4.967412 66.550025 -4.967412 86.288306 14.899775 Z M 86.288306 14.899775 " transform="matrix(1, 0, 0, 1, 213.0906, 366.6471)"/>
<path fill="none" stroke-width="4" stroke-linecap="butt" stroke-linejoin="miter" stroke="rgb(0%, 0%, 0%)" stroke-opacity="1" stroke-miterlimit="4" d="M 0.0014125 0.0000125 L 13.645944 0.0000125 L -1.154838 0.0000125 " transform="matrix(0, -1, 1, 0, 213.4453, 421.9311)"/>
<path fill-rule="nonzero" fill="rgb(0%, 0%, 0%)" fill-opacity="1" d="M 221.84375 425.085938 L 213.445312 408.285156 L 205.046875 425.085938 Z M 221.84375 425.085938 "/>
<path fill="none" stroke-width="4" stroke-linecap="butt" stroke-linejoin="miter" stroke="rgb(0%, 0%, 0%)" stroke-opacity="1" stroke-miterlimit="4" d="M 0.0014125 -0.0002375 L 13.645944 -0.0002375 L -1.154838 -0.0002375 " transform="matrix(0, -1, 1, 0, 344.4768, 421.9311)"/>
<path fill-rule="nonzero" fill="rgb(0%, 0%, 0%)" fill-opacity="1" d="M 352.875 425.085938 L 344.476562 408.285156 L 336.078125 425.085938 Z M 352.875 425.085938 "/>
<path fill-rule="nonzero" fill="rgb(0%, 0%, 0%)" fill-opacity="1" stroke-width="4" stroke-linecap="butt" stroke-linejoin="miter" stroke="rgb(0%, 0%, 0%)" stroke-opacity="1" stroke-miterlimit="4" d="M 11.8943 2.040694 C 14.616956 4.76335 14.616956 9.173506 11.8943 11.896163 C 9.17555 14.618819 4.761488 14.618819 2.042738 11.896163 C -0.679919 9.173506 -0.679919 4.76335 2.042738 2.040694 C 4.761488 -0.681962 9.17555 -0.681962 11.8943 2.040694 Z M 11.8943 2.040694 " transform="matrix(1, 0, 0, 1, 256.6682, 412.8304)"/>
<path fill="none" stroke-width="2" stroke-linecap="butt" stroke-linejoin="miter" stroke="rgb(0%, 0%, 0%)" stroke-opacity="1" stroke-miterlimit="4" d="M 130.5469 112.267119 L 65.335963 150.16165 L 0.000025 112.407744 L 0.0547125 38.048369 L 65.335963 0.00149375 L 130.26565 37.837431 Z M 130.5469 112.267119 " transform="matrix(1, 0, 0, 1, 199.5156, 342.3071)"/>
<path fill="none" stroke-width="5" stroke-linecap="butt" stroke-linejoin="miter" stroke="rgb(0%, 0%, 0%)" stroke-opacity="1" stroke-miterlimit="4" d="M 86.287956 14.900563 C 106.026237 34.76775 106.026237 66.978688 86.287956 86.845875 C 66.549675 106.709156 34.545769 106.709156 14.803581 86.845875 C -4.9347 66.978688 -4.9347 34.76775 14.803581 14.900563 C 34.545769 -4.966625 66.549675 -4.966625 86.287956 14.900563 Z M 86.287956 14.900563 " transform="matrix(1, 0, 0, 1, 344.1222, 367.451)"/>
<path fill-rule="nonzero" fill="rgb(0%, 0%, 0%)" fill-opacity="1" stroke-width="4" stroke-linecap="butt" stroke-linejoin="miter" stroke="rgb(0%, 0%, 0%)" stroke-opacity="1" stroke-miterlimit="4" d="M 11.897131 2.040088 C 14.615881 4.762744 14.615881 9.1729 11.897131 11.895556 C 9.174475 14.618213 4.764319 14.618213 2.041663 11.895556 C -0.680994 9.1729 -0.680994 4.762744 2.041663 2.040088 C 4.764319 -0.678662 9.174475 -0.678662 11.897131 2.040088 Z M 11.897131 2.040088 " transform="matrix(1, 0, 0, 1, 386.4349, 413.3896)"/>
<path fill="none" stroke-width="2" stroke-linecap="butt" stroke-linejoin="miter" stroke="rgb(0%, 0%, 0%)" stroke-opacity="1" stroke-miterlimit="4" d="M 130.549425 112.268544 L 65.334581 150.163075 L -0.00135625 112.409169 L 0.0533313 38.049794 L 65.334581 -0.0009875 L 130.264269 37.838856 Z M 130.549425 112.268544 " transform="matrix(1, 0, 0, 1, 330.4662, 342.6963)"/>
<path fill-rule="nonzero" fill="rgb(0%, 0%, 0%)" fill-opacity="1" stroke-width="4" stroke-linecap="butt" stroke-linejoin="miter" stroke="rgb(0%, 0%, 0%)" stroke-opacity="1" stroke-miterlimit="4" d="M 11.8954 2.040394 C 14.618056 4.76305 14.618056 9.173206 11.8954 11.895863 C 9.172744 14.618519 4.762587 14.618519 2.039931 11.895863 C -0.678819 9.173206 -0.678819 4.76305 2.039931 2.040394 C 4.762587 -0.682262 9.172744 -0.682262 11.8954 2.040394 Z M 11.8954 2.040394 " transform="matrix(1, 0, 0, 1, 125.9796, 185.8932)"/>
<path fill="none" stroke-width="2" stroke-linecap="butt" stroke-linejoin="miter" stroke="rgb(0%, 0%, 0%)" stroke-opacity="1" stroke-miterlimit="4" d="M 130.546806 112.266619 L 65.335869 150.16115 L -0.00006875 112.41115 L 0.0546188 38.051775 L 65.335869 0.00099375 L 130.265556 37.836931 Z M 130.546806 112.266619 " transform="matrix(1, 0, 0, 1, 69.2071, 116.8076)"/>
<path fill-rule="nonzero" fill="rgb(0%, 0%, 0%)" fill-opacity="1" stroke-width="4" stroke-linecap="butt" stroke-linejoin="miter" stroke="rgb(0%, 0%, 0%)" stroke-opacity="1" stroke-miterlimit="4" d="M 11.8954 2.041531 C 14.618056 4.764188 14.618056 9.174344 11.8954 11.897 C 9.172744 14.61575 4.762587 14.61575 2.039931 11.897 C -0.678819 9.174344 -0.678819 4.764188 2.039931 2.041531 C 4.762587 -0.681125 9.172744 -0.681125 11.8954 2.041531 Z M 11.8954 2.041531 " transform="matrix(1, 0, 0, 1, 125.9796, 410.978)"/>
<path fill="none" stroke-width="2" stroke-linecap="butt" stroke-linejoin="miter" stroke="rgb(0%, 0%, 0%)" stroke-opacity="1" stroke-miterlimit="4" d="M 130.546806 112.267756 L 65.335869 150.162288 L -0.00006875 112.408381 L 0.0546188 38.049006 L 65.335869 -0.001775 L 130.265556 37.838069 Z M 130.546806 112.267756 " transform="matrix(1, 0, 0, 1, 69.2071, 341.8924)"/>
<path fill-rule="nonzero" fill="rgb(0%, 0%, 0%)" fill-opacity="1" stroke-width="4" stroke-linecap="butt" stroke-linejoin="miter" stroke="rgb(0%, 0%, 0%)" stroke-opacity="1" stroke-miterlimit="4" d="M 11.895919 2.040963 C 14.618575 4.763619 14.618575 9.173775 11.895919 11.896431 C 9.173263 14.619088 4.763106 14.619088 2.04045 11.896431 C -0.682206 9.173775 -0.682206 4.763619 2.04045 2.040963 C 4.763106 -0.681694 9.173263 -0.681694 11.895919 2.040963 Z M 11.895919 2.040963 " transform="matrix(1, 0, 0, 1, 60.8658, 298.4356)"/>
<path fill="none" stroke-width="2" stroke-linecap="butt" stroke-linejoin="miter" stroke="rgb(0%, 0%, 0%)" stroke-opacity="1" stroke-miterlimit="4" d="M 130.547425 112.267188 L 65.336488 150.161719 L 0.00055 112.407813 L 0.0513313 38.048438 L 65.336488 0.0015625 L 130.266175 37.8375 Z M 130.547425 112.267188 " transform="matrix(1, 0, 0, 1, 4.0932, 229.35)"/>
<path fill-rule="nonzero" fill="rgb(0%, 0%, 0%)" fill-opacity="1" stroke-width="4" stroke-linecap="butt" stroke-linejoin="miter" stroke="rgb(0%, 0%, 0%)" stroke-opacity="1" stroke-miterlimit="4" d="M 11.894781 2.0421 C 14.617438 4.76085 14.617438 9.174913 11.894781 11.897569 C 9.176031 14.616319 4.761969 14.616319 2.039313 11.897569 C -0.679437 9.174913 -0.679437 4.76085 2.039313 2.0421 C 4.761969 -0.680556 9.176031 -0.680556 11.894781 2.0421 Z M 11.894781 2.0421 " transform="matrix(1, 0, 0, 1, 191.0935, 523.5204)"/>
<g clip-path="url(#clip-1)">
<path fill="none" stroke-width="2" stroke-linecap="butt" stroke-linejoin="miter" stroke="rgb(0%, 0%, 0%)" stroke-opacity="1" stroke-miterlimit="4" d="M 130.550194 112.268225 L 65.33535 150.162756 L -0.0005875 112.40885 L 0.0541 38.049475 L 65.33535 -0.00130625 L 130.265037 37.838538 Z M 130.550194 112.268225 " transform="matrix(1, 0, 0, 1, 134.3209, 454.4349)"/>
</g>
<path fill-rule="nonzero" fill="rgb(0%, 0%, 0%)" fill-opacity="1" stroke-width="4" stroke-linecap="butt" stroke-linejoin="miter" stroke="rgb(0%, 0%, 0%)" stroke-opacity="1" stroke-miterlimit="4" d="M 11.89765 2.0421 C 14.6164 4.76085 14.6164 9.174913 11.89765 11.897569 C 9.174994 14.616319 4.760931 14.616319 2.042181 11.897569 C -0.680475 9.174913 -0.680475 4.76085 2.042181 2.0421 C 4.760931 -0.680556 9.174994 -0.680556 11.89765 2.0421 Z M 11.89765 2.0421 " transform="matrix(1, 0, 0, 1, 321.3211, 523.5204)"/>
<g clip-path="url(#clip-2)">
<path fill="none" stroke-width="2" stroke-linecap="butt" stroke-linejoin="miter" stroke="rgb(0%, 0%, 0%)" stroke-opacity="1" stroke-miterlimit="4" d="M 130.549156 112.268225 L 65.334313 150.162756 L -0.001625 112.40885 L 0.0530625 38.049475 L 65.334313 -0.00130625 L 130.264 37.838538 Z M 130.549156 112.268225 " transform="matrix(1, 0, 0, 1, 264.5485, 454.4349)"/>
</g>
<path fill-rule="nonzero" fill="rgb(0%, 0%, 0%)" fill-opacity="1" stroke-width="4" stroke-linecap="butt" stroke-linejoin="miter" stroke="rgb(0%, 0%, 0%)" stroke-opacity="1" stroke-miterlimit="4" d="M 11.896512 2.042888 C 14.619169 4.761638 14.619169 9.1757 11.896512 11.89445 C 9.173856 14.617106 4.7637 14.617106 2.041044 11.89445 C -0.681613 9.1757 -0.681613 4.761638 2.041044 2.042888 C 4.7637 -0.679769 9.173856 -0.679769 11.896512 2.042888 Z M 11.896512 2.042888 " transform="matrix(1, 0, 0, 1, 451.5488, 524.3243)"/>
<g clip-path="url(#clip-3)">
<path fill="none" stroke-width="2" stroke-linecap="butt" stroke-linejoin="miter" stroke="rgb(0%, 0%, 0%)" stroke-opacity="1" stroke-miterlimit="4" d="M 130.548019 112.269013 L 65.337081 150.163544 L 0.00114375 112.409638 L 0.051925 38.050263 L 65.337081 -0.00051875 L 130.266769 37.835419 Z M 130.548019 112.269013 " transform="matrix(1, 0, 0, 1, 394.7762, 455.2388)"/>
</g>
<path fill-rule="nonzero" fill="rgb(0%, 0%, 0%)" fill-opacity="1" stroke-width="4" stroke-linecap="butt" stroke-linejoin="miter" stroke="rgb(0%, 0%, 0%)" stroke-opacity="1" stroke-miterlimit="4" d="M 11.896881 2.042319 C 14.615631 4.761069 14.615631 9.175131 11.896881 11.897788 C 9.174225 14.616538 4.764069 14.616538 2.041413 11.897788 C -0.681244 9.175131 -0.681244 4.761069 2.041413 2.042319 C 4.764069 -0.680337 9.174225 -0.680337 11.896881 2.042319 Z M 11.896881 2.042319 " transform="matrix(1, 0, 0, 1, 517.4664, 411.7819)"/>
<path fill="none" stroke-width="2" stroke-linecap="butt" stroke-linejoin="miter" stroke="rgb(0%, 0%, 0%)" stroke-opacity="1" stroke-miterlimit="4" d="M 130.548288 112.268544 L 65.33735 150.163075 L 0.0014125 112.409169 L 0.0521938 38.049794 L 65.33735 -0.0009875 L 130.267038 37.838856 Z M 130.548288 112.268544 " transform="matrix(1, 0, 0, 1, 460.6939, 342.6963)"/>
<path fill-rule="nonzero" fill="rgb(0%, 0%, 0%)" fill-opacity="1" stroke-width="4" stroke-linecap="butt" stroke-linejoin="miter" stroke="rgb(0%, 0%, 0%)" stroke-opacity="1" stroke-miterlimit="4" d="M 11.896263 2.04175 C 14.618919 4.7605 14.618919 9.174563 11.896263 11.897219 C 9.173606 14.615969 4.76345 14.615969 2.040794 11.897219 C -0.681862 9.174563 -0.681862 4.7605 2.040794 2.04175 C 4.76345 -0.680906 9.173606 -0.680906 11.896263 2.04175 Z M 11.896263 2.04175 " transform="matrix(1, 0, 0, 1, 582.5803, 299.2395)"/>
<g clip-path="url(#clip-4)">
<path fill="none" stroke-width="2" stroke-linecap="butt" stroke-linejoin="miter" stroke="rgb(0%, 0%, 0%)" stroke-opacity="1" stroke-miterlimit="4" d="M 130.547769 112.267975 L 65.336831 150.162506 L 0.00089375 112.4086 L 0.051675 38.049225 L 65.336831 -0.00155625 L 130.266519 37.838288 Z M 130.547769 112.267975 " transform="matrix(1, 0, 0, 1, 525.8077, 230.1539)"/>
</g>
<path fill-rule="nonzero" fill="rgb(0%, 0%, 0%)" fill-opacity="1" stroke-width="4" stroke-linecap="butt" stroke-linejoin="miter" stroke="rgb(0%, 0%, 0%)" stroke-opacity="1" stroke-miterlimit="4" d="M 11.897669 2.041281 C 14.616419 4.763938 14.616419 9.174094 11.897669 11.89675 C 9.175012 14.6155 4.76095 14.6155 2.0422 11.89675 C -0.680456 9.174094 -0.680456 4.763938 2.0422 2.041281 C 4.76095 -0.681375 9.175012 -0.681375 11.897669 2.041281 Z M 11.897669 2.041281 " transform="matrix(1, 0, 0, 1, 518.2703, 186.697)"/>
<path fill="none" stroke-width="2" stroke-linecap="butt" stroke-linejoin="miter" stroke="rgb(0%, 0%, 0%)" stroke-opacity="1" stroke-miterlimit="4" d="M 130.549175 112.267406 L 65.334331 150.161938 L -0.00160625 112.408031 L 0.0530813 38.048656 L 65.334331 0.00178125 L 130.264019 37.837719 Z M 130.549175 112.267406 " transform="matrix(1, 0, 0, 1, 461.4977, 117.6115)"/>
<path fill-rule="nonzero" fill="rgb(0%, 0%, 0%)" fill-opacity="1" stroke-width="4" stroke-linecap="butt" stroke-linejoin="miter" stroke="rgb(0%, 0%, 0%)" stroke-opacity="1" stroke-miterlimit="4" d="M 11.894281 2.040713 C 14.616938 4.763369 14.616938 9.173525 11.894281 11.896181 C 9.175531 14.618838 4.761469 14.618838 2.042719 11.896181 C -0.679937 9.173525 -0.679937 4.763369 2.042719 2.040713 C 4.761469 -0.681944 9.175531 -0.681944 11.894281 2.040713 Z M 11.894281 2.040713 " transform="matrix(1, 0, 0, 1, 453.1565, 74.1546)"/>
<path fill="none" stroke-width="2" stroke-linecap="butt" stroke-linejoin="miter" stroke="rgb(0%, 0%, 0%)" stroke-opacity="1" stroke-miterlimit="4" d="M 130.549694 112.266838 L 65.33485 150.161369 L -0.0010875 112.407463 L 0.0536 38.051994 L 65.33485 0.0012125 L 130.264538 37.83715 Z M 130.549694 112.266838 " transform="matrix(1, 0, 0, 1, 396.3839, 5.0691)"/>
<path fill-rule="nonzero" fill="rgb(0%, 0%, 0%)" fill-opacity="1" d="M 334.019531 76.195312 C 336.742188 78.917969 336.742188 83.328125 334.019531 86.050781 C 331.300781 88.773438 326.886719 88.773438 324.164062 86.050781 C 321.445312 83.328125 321.445312 78.917969 324.164062 76.195312 C 326.886719 73.472656 331.300781 73.472656 334.019531 76.195312 Z M 334.019531 76.195312 "/>
<path fill="none" stroke-width="4" stroke-linecap="butt" stroke-linejoin="miter" stroke="rgb(0%, 0%, 0%)" stroke-opacity="1" stroke-miterlimit="4" d="M 11.894531 2.040713 C 14.617188 4.763369 14.617188 9.173525 11.894531 11.896181 C 9.175781 14.618838 4.761719 14.618838 2.042969 11.896181 C -0.679688 9.173525 -0.679688 4.763369 2.042969 2.040713 C 4.761719 -0.681944 9.175781 -0.681944 11.894531 2.040713 Z M 11.894531 2.040713 " transform="matrix(1, 0, 0, 1, 322.125, 74.1546)"/>
<path fill="none" stroke-width="2" stroke-linecap="butt" stroke-linejoin="miter" stroke="rgb(0%, 0%, 0%)" stroke-opacity="1" stroke-miterlimit="4" d="M 130.549944 112.266838 L 65.3351 150.161369 L -0.0008375 112.407463 L 0.05385 38.051994 L 65.3351 0.0012125 L 130.264788 37.83715 Z M 130.549944 112.266838 " transform="matrix(1, 0, 0, 1, 265.3524, 5.0691)"/>
<path fill-rule="nonzero" fill="rgb(0%, 0%, 0%)" fill-opacity="1" stroke-width="4" stroke-linecap="butt" stroke-linejoin="miter" stroke="rgb(0%, 0%, 0%)" stroke-opacity="1" stroke-miterlimit="4" d="M 11.895669 2.039825 C 14.618325 4.762481 14.618325 9.172638 11.895669 11.895294 C 9.173012 14.61795 4.762856 14.61795 2.0402 11.895294 C -0.67855 9.172638 -0.67855 4.762481 2.0402 2.039825 C 4.762856 -0.678925 9.173012 -0.678925 11.895669 2.039825 Z M 11.895669 2.039825 " transform="matrix(1, 0, 0, 1, 191.8973, 73.3508)"/>
<path fill="none" stroke-width="2" stroke-linecap="butt" stroke-linejoin="miter" stroke="rgb(0%, 0%, 0%)" stroke-opacity="1" stroke-miterlimit="4" d="M 130.547175 112.26605 L 65.336237 150.160581 L 0.0003 112.410581 L 0.0549875 38.051206 L 65.336237 0.000425 L 130.265925 37.836363 Z M 130.547175 112.26605 " transform="matrix(1, 0, 0, 1, 135.1247, 4.2652)"/>
<path fill="none" stroke-width="4" stroke-linecap="butt" stroke-linejoin="miter" stroke="rgb(100%, 14.901733%, 0%)" stroke-opacity="1" stroke-miterlimit="4" d="M 0.00188125 -0.00089375 L 13.646412 -0.00089375 L -1.154369 -0.00089375 " transform="matrix(0, -1, 1, 0, 205.0673, 204.9511)"/>
<path fill-rule="nonzero" fill="rgb(100%, 14.901733%, 0%)" fill-opacity="1" d="M 213.46875 208.105469 L 205.066406 191.304688 L 196.667969 208.105469 Z M 213.46875 208.105469 "/>
</svg>
