<?xml version="1.0" encoding="UTF-8"?>
<svg xmlns="http://www.w3.org/2000/svg" xmlns:xlink="http://www.w3.org/1999/xlink" width="47.906pt" height="96.2775pt" viewBox="0 0 47.906 96.2775">
<defs>
<clipPath id="clip-0">
<path clip-rule="nonzero" d="M 0 0 L 47.90625 0 L 47.90625 96.277344 L 0 96.277344 Z M 0 0 "/>
</clipPath>
<clipPath id="clip-1">
<path clip-rule="nonzero" d="M 7 9.390625 L 12 9.390625 L 12 96.277344 L 7 96.277344 Z M 7 9.390625 "/>
</clipPath>
<clipPath id="clip-2">
<path clip-rule="nonzero" d="M 8 62 L 12 62 L 12 71.78125 L 8 71.78125 Z M 8 62 "/>
</clipPath>
<clipPath id="clip-3">
<path clip-rule="nonzero" d="M 7 2 L 12 2 L 12 17.191406 L 7 17.191406 Z M 7 2 "/>
</clipPath>
<clipPath id="clip-4">
<path clip-rule="nonzero" d="M 37 9.390625 L 42 9.390625 L 42 96.277344 L 37 96.277344 Z M 37 9.390625 "/>
</clipPath>
<clipPath id="clip-5">
<path clip-rule="nonzero" d="M 37 62 L 41 62 L 41 71.78125 L 37 71.78125 Z M 37 62 "/>
</clipPath>
<clipPath id="clip-6">
<path clip-rule="nonzero" d="M 37 2 L 42 2 L 42 17.191406 L 37 17.191406 Z M 37 2 "/>
</clipPath>
</defs>
<g clip-path="url(#clip-0)">
<rect x="-4.7906" y="-9.62775" width="57.4872" height="115.533" fill="rgb(100%, 100%, 100%)" fill-opacity="1"/>
</g>
<g clip-path="url(#clip-1)">
<path fill="none" stroke-width="4" stroke-linecap="butt" stroke-linejoin="miter" stroke="rgb(0%, 0%, 0%)" stroke-opacity="1" stroke-miterlimit="4" d="M -0.00129375 0.00025625 L 85.354175 0.00025625 " transform="matrix(0, -1, -1, 0, 9.7776, 95.7448)"/>
</g>
<g clip-path="url(#clip-2)">
<path fill="none" stroke-width="3" stroke-linecap="butt" stroke-linejoin="miter" stroke="rgb(0%, 0%, 0%)" stroke-opacity="1" stroke-miterlimit="4" d="M 11.7005 -0.00035625 L 18.60675 -0.00035625 " transform="matrix(0, 1, 1, 0, 9.7777, 52.1745)"/>
</g>
<path fill-rule="nonzero" fill="rgb(0%, 0%, 0%)" fill-opacity="1" d="M 3.175781 65.375 L 9.777344 52.175781 L 16.378906 65.375 Z M 3.175781 65.375 "/>
<g clip-path="url(#clip-3)">
<path fill="none" stroke-width="4" stroke-linecap="butt" stroke-linejoin="miter" stroke="rgb(0%, 0%, 0%)" stroke-opacity="1" stroke-miterlimit="4" d="M -0.0011 0.00120625 L 6.377806 0.00120625 L -5.622194 0.00120625 " transform="matrix(0, 1, 1, 0, 9.8777, 9.8136)"/>
</g>
<path fill-rule="nonzero" fill="rgb(0%, 0%, 0%)" fill-opacity="1" d="M 2.878906 9.191406 C 2.878906 13.058594 6.011719 16.191406 9.878906 16.191406 C 13.742188 16.191406 16.878906 13.058594 16.878906 9.191406 C 16.878906 5.324219 13.742188 2.191406 9.878906 2.191406 C 6.011719 2.191406 2.878906 5.324219 2.878906 9.191406 Z M 2.878906 9.191406 "/>
<g clip-path="url(#clip-4)">
<path fill="none" stroke-width="4" stroke-linecap="butt" stroke-linejoin="miter" stroke="rgb(0%, 0%, 0%)" stroke-opacity="1" stroke-miterlimit="4" d="M -0.00129375 -0.0017375 L 85.354175 -0.0017375 " transform="matrix(0, -1, -1, 0, 39.4592, 95.7448)"/>
</g>
<g clip-path="url(#clip-5)">
<path fill="none" stroke-width="3" stroke-linecap="butt" stroke-linejoin="miter" stroke="rgb(0%, 0%, 0%)" stroke-opacity="1" stroke-miterlimit="4" d="M -0.00025 -0.0017375 L 6.906 -0.0017375 " transform="matrix(0, -1, -1, 0, 39.4592, 70.781)"/>
</g>
<path fill-rule="nonzero" fill="rgb(0%, 0%, 0%)" fill-opacity="1" d="M 32.859375 65.375 L 39.460938 52.175781 L 46.058594 65.375 Z M 32.859375 65.375 "/>
<g clip-path="url(#clip-6)">
<path fill="none" stroke-width="4" stroke-linecap="butt" stroke-linejoin="miter" stroke="rgb(0%, 0%, 0%)" stroke-opacity="1" stroke-miterlimit="4" d="M -0.0011 0.0017375 L 6.377806 0.0017375 L -5.622194 0.0017375 " transform="matrix(0, 1, 1, 0, 39.4592, 9.8136)"/>
</g>
<path fill-rule="nonzero" fill="rgb(0%, 0%, 0%)" fill-opacity="1" d="M 32.460938 9.191406 C 32.460938 13.058594 35.59375 16.191406 39.460938 16.191406 C 43.324219 16.191406 46.460938 13.058594 46.460938 9.191406 C 46.460938 5.324219 43.324219 2.191406 39.460938 2.191406 C 35.59375 2.191406 32.460938 5.324219 32.460938 9.191406 Z M 32.460938 9.191406 "/>
</svg>
