<?xml version="1.0" encoding="UTF-8"?>
<svg xmlns="http://www.w3.org/2000/svg" xmlns:xlink="http://www.w3.org/1999/xlink" width="25.7247pt" height="22.2648pt" viewBox="0 0 25.7247 22.2648">
<defs>
<clipPath id="clip-0">
<path clip-rule="nonzero" d="M 17 12 L 25.726562 12 L 25.726562 17 L 17 17 Z M 17 12 "/>
</clipPath>
<clipPath id="clip-1">
<path clip-rule="nonzero" d="M 3 1 L 6 1 L 6 4.746094 L 3 4.746094 Z M 3 1 "/>
</clipPath>
<clipPath id="clip-2">
<rect x="0" y="0" width="9" height="5"/>
</clipPath>
<g id="source-5" clip-path="url(#clip-2)">
<path fill-rule="nonzero" fill="rgb(0%, 0%, 0%)" fill-opacity="1" d="M 2.085938 2.398438 C 2.230469 2.398438 2.597656 2.390625 2.847656 2.285156 C 3.195312 2.136719 3.222656 1.839844 3.222656 1.769531 C 3.222656 1.550781 3.03125 1.347656 2.6875 1.347656 C 2.136719 1.347656 1.382812 1.832031 1.382812 2.703125 C 1.382812 3.210938 1.675781 3.605469 2.164062 3.605469 C 2.878906 3.605469 3.296875 3.074219 3.296875 3.015625 C 3.296875 2.988281 3.265625 2.953125 3.234375 2.953125 C 3.210938 2.953125 3.203125 2.960938 3.171875 3.003906 C 2.777344 3.496094 2.234375 3.496094 2.175781 3.496094 C 1.785156 3.496094 1.742188 3.074219 1.742188 2.917969 C 1.742188 2.855469 1.746094 2.703125 1.820312 2.398438 Z M 1.851562 2.289062 C 2.046875 1.53125 2.558594 1.457031 2.6875 1.457031 C 2.921875 1.457031 3.058594 1.601562 3.058594 1.769531 C 3.058594 2.289062 2.261719 2.289062 2.054688 2.289062 Z M 1.851562 2.289062 "/>
<g clip-path="url(#clip-1)">
<path fill-rule="nonzero" fill="rgb(0%, 0%, 0%)" fill-opacity="1" d="M 5.234375 3.660156 L 5.117188 3.660156 C 5.105469 3.738281 5.070312 3.945312 5.023438 3.980469 C 4.996094 4 4.730469 4 4.679688 4 L 4.039062 4 C 4.402344 3.675781 4.527344 3.578125 4.734375 3.414062 C 4.992188 3.210938 5.234375 2.992188 5.234375 2.660156 C 5.234375 2.238281 4.863281 1.980469 4.417969 1.980469 C 3.984375 1.980469 3.691406 2.285156 3.691406 2.605469 C 3.691406 2.785156 3.84375 2.800781 3.878906 2.800781 C 3.960938 2.800781 4.0625 2.742188 4.0625 2.617188 C 4.0625 2.554688 4.039062 2.429688 3.855469 2.429688 C 3.964844 2.183594 4.203125 2.105469 4.367188 2.105469 C 4.714844 2.105469 4.894531 2.378906 4.894531 2.660156 C 4.894531 2.964844 4.679688 3.203125 4.566406 3.332031 L 3.726562 4.160156 C 3.691406 4.191406 3.691406 4.199219 3.691406 4.296875 L 5.128906 4.296875 Z M 5.234375 3.660156 "/>
</g>
</g>
<clipPath id="clip-3">
<path clip-rule="nonzero" d="M 9 18 L 18 18 L 18 22.265625 L 9 22.265625 Z M 9 18 "/>
</clipPath>
<clipPath id="clip-4">
<path clip-rule="nonzero" d="M 1 0.265625 L 4 0.265625 L 4 4 L 1 4 Z M 1 0.265625 "/>
</clipPath>
<clipPath id="clip-5">
<rect x="0" y="0" width="9" height="5"/>
</clipPath>
<g id="source-8" clip-path="url(#clip-5)">
<g clip-path="url(#clip-4)">
<path fill-rule="nonzero" fill="rgb(0%, 0%, 0%)" fill-opacity="1" d="M 1.925781 1.917969 C 2.070312 1.917969 2.4375 1.90625 2.6875 1.804688 C 3.035156 1.652344 3.0625 1.359375 3.0625 1.289062 C 3.0625 1.070312 2.871094 0.867188 2.527344 0.867188 C 1.976562 0.867188 1.222656 1.351562 1.222656 2.222656 C 1.222656 2.730469 1.515625 3.121094 2.003906 3.121094 C 2.71875 3.121094 3.136719 2.59375 3.136719 2.535156 C 3.136719 2.503906 3.105469 2.472656 3.074219 2.472656 C 3.050781 2.472656 3.042969 2.480469 3.011719 2.519531 C 2.617188 3.015625 2.074219 3.015625 2.015625 3.015625 C 1.628906 3.015625 1.582031 2.59375 1.582031 2.4375 C 1.582031 2.375 1.585938 2.222656 1.660156 1.917969 Z M 1.691406 1.808594 C 1.886719 1.050781 2.398438 0.976562 2.527344 0.976562 C 2.761719 0.976562 2.898438 1.121094 2.898438 1.289062 C 2.898438 1.808594 2.101562 1.808594 1.894531 1.808594 Z M 1.691406 1.808594 "/>
</g>
<path fill-rule="nonzero" fill="rgb(0%, 0%, 0%)" fill-opacity="1" d="M 4.480469 1.597656 C 4.480469 1.503906 4.472656 1.5 4.378906 1.5 C 4.152344 1.71875 3.835938 1.722656 3.691406 1.722656 L 3.691406 1.847656 C 3.777344 1.847656 4.007812 1.847656 4.199219 1.75 L 4.199219 3.53125 C 4.199219 3.644531 4.199219 3.691406 3.851562 3.691406 L 3.71875 3.691406 L 3.71875 3.816406 C 3.78125 3.8125 4.210938 3.800781 4.339844 3.800781 C 4.445312 3.800781 4.886719 3.8125 4.964844 3.816406 L 4.964844 3.691406 L 4.832031 3.691406 C 4.480469 3.691406 4.480469 3.644531 4.480469 3.53125 Z M 4.480469 1.597656 "/>
</g>
<clipPath id="clip-6">
<path clip-rule="nonzero" d="M 17 5 L 25.726562 5 L 25.726562 10 L 17 10 Z M 17 5 "/>
</clipPath>
<clipPath id="clip-7">
<path clip-rule="nonzero" d="M 1 0.375 L 4 0.375 L 4 4 L 1 4 Z M 1 0.375 "/>
</clipPath>
<clipPath id="clip-8">
<rect x="0" y="0" width="9" height="5"/>
</clipPath>
<g id="source-11" clip-path="url(#clip-8)">
<g clip-path="url(#clip-7)">
<path fill-rule="nonzero" fill="rgb(0%, 0%, 0%)" fill-opacity="1" d="M 2.636719 2.027344 C 2.78125 2.027344 3.148438 2.019531 3.398438 1.914062 C 3.746094 1.765625 3.769531 1.472656 3.769531 1.402344 C 3.769531 1.183594 3.582031 0.976562 3.238281 0.976562 C 2.6875 0.976562 1.933594 1.460938 1.933594 2.332031 C 1.933594 2.839844 2.226562 3.234375 2.714844 3.234375 C 3.425781 3.234375 3.847656 2.707031 3.847656 2.648438 C 3.847656 2.617188 3.816406 2.582031 3.785156 2.582031 C 3.761719 2.582031 3.75 2.59375 3.722656 2.632812 C 3.328125 3.125 2.785156 3.125 2.726562 3.125 C 2.335938 3.125 2.292969 2.707031 2.292969 2.546875 C 2.292969 2.488281 2.296875 2.332031 2.371094 2.027344 Z M 2.402344 1.917969 C 2.59375 1.160156 3.109375 1.085938 3.238281 1.085938 C 3.472656 1.085938 3.605469 1.230469 3.605469 1.402344 C 3.605469 1.917969 2.808594 1.917969 2.605469 1.917969 Z M 2.402344 1.917969 "/>
</g>
<path fill-rule="nonzero" fill="rgb(0%, 0%, 0%)" fill-opacity="1" d="M 4.976562 2.761719 C 5.246094 2.761719 5.441406 2.949219 5.441406 3.324219 C 5.441406 3.757812 5.191406 3.886719 4.988281 3.886719 C 4.851562 3.886719 4.542969 3.847656 4.394531 3.640625 C 4.558594 3.632812 4.597656 3.519531 4.597656 3.445312 C 4.597656 3.335938 4.515625 3.253906 4.40625 3.253906 C 4.308594 3.253906 4.210938 3.3125 4.210938 3.457031 C 4.210938 3.785156 4.574219 3.996094 4.996094 3.996094 C 5.480469 3.996094 5.816406 3.671875 5.816406 3.324219 C 5.816406 3.050781 5.589844 2.78125 5.207031 2.699219 C 5.574219 2.566406 5.707031 2.304688 5.707031 2.09375 C 5.707031 1.816406 5.390625 1.613281 5.003906 1.613281 C 4.617188 1.613281 4.320312 1.800781 4.320312 2.078125 C 4.320312 2.195312 4.394531 2.265625 4.5 2.265625 C 4.609375 2.265625 4.679688 2.183594 4.679688 2.085938 C 4.679688 1.984375 4.609375 1.910156 4.5 1.902344 C 4.621094 1.75 4.863281 1.714844 4.992188 1.714844 C 5.148438 1.714844 5.367188 1.789062 5.367188 2.09375 C 5.367188 2.238281 5.320312 2.398438 5.230469 2.507812 C 5.113281 2.640625 5.015625 2.648438 4.84375 2.65625 C 4.753906 2.664062 4.75 2.664062 4.730469 2.667969 C 4.722656 2.667969 4.695312 2.675781 4.695312 2.714844 C 4.695312 2.761719 4.726562 2.761719 4.785156 2.761719 Z M 4.976562 2.761719 "/>
</g>
<clipPath id="clip-9">
<rect x="0" y="0" width="9" height="4"/>
</clipPath>
<g id="source-14" clip-path="url(#clip-9)">
<path fill-rule="nonzero" fill="rgb(0%, 0%, 0%)" fill-opacity="1" d="M 2.515625 1.652344 C 2.660156 1.652344 3.027344 1.644531 3.277344 1.539062 C 3.628906 1.390625 3.652344 1.09375 3.652344 1.023438 C 3.652344 0.804688 3.460938 0.601562 3.117188 0.601562 C 2.566406 0.601562 1.8125 1.085938 1.8125 1.957031 C 1.8125 2.464844 2.105469 2.859375 2.59375 2.859375 C 3.308594 2.859375 3.726562 2.328125 3.726562 2.269531 C 3.726562 2.242188 3.695312 2.207031 3.667969 2.207031 C 3.640625 2.207031 3.632812 2.214844 3.601562 2.257812 C 3.207031 2.75 2.664062 2.75 2.605469 2.75 C 2.21875 2.75 2.171875 2.328125 2.171875 2.171875 C 2.171875 2.109375 2.175781 1.957031 2.253906 1.652344 Z M 2.28125 1.542969 C 2.476562 0.785156 2.988281 0.710938 3.117188 0.710938 C 3.351562 0.710938 3.488281 0.855469 3.488281 1.023438 C 3.488281 1.542969 2.691406 1.542969 2.484375 1.542969 Z M 2.28125 1.542969 "/>
<path fill-rule="nonzero" fill="rgb(0%, 0%, 0%)" fill-opacity="1" d="M 5.75 2.980469 L 5.75 2.855469 L 5.359375 2.855469 L 5.359375 1.296875 C 5.359375 1.226562 5.359375 1.199219 5.285156 1.199219 C 5.242188 1.199219 5.226562 1.199219 5.191406 1.25 L 4.039062 2.855469 L 4.039062 2.980469 L 5.0625 2.980469 L 5.0625 3.265625 C 5.0625 3.382812 5.0625 3.425781 4.78125 3.425781 L 4.6875 3.425781 L 4.6875 3.550781 C 4.863281 3.542969 5.085938 3.535156 5.210938 3.535156 C 5.339844 3.535156 5.5625 3.542969 5.738281 3.550781 L 5.738281 3.425781 L 5.644531 3.425781 C 5.359375 3.425781 5.359375 3.382812 5.359375 3.265625 L 5.359375 2.980469 Z M 5.089844 1.578125 L 5.089844 2.855469 L 4.167969 2.855469 Z M 5.089844 1.578125 "/>
</g>
<clipPath id="clip-10">
<path clip-rule="nonzero" d="M 1 0.230469 L 4 0.230469 L 4 4 L 1 4 Z M 1 0.230469 "/>
</clipPath>
<clipPath id="clip-11">
<rect x="0" y="0" width="9" height="5"/>
</clipPath>
<g id="source-17" clip-path="url(#clip-11)">
<g clip-path="url(#clip-10)">
<path fill-rule="nonzero" fill="rgb(0%, 0%, 0%)" fill-opacity="1" d="M 1.917969 1.882812 C 2.0625 1.882812 2.433594 1.875 2.683594 1.769531 C 3.03125 1.621094 3.054688 1.328125 3.054688 1.257812 C 3.054688 1.039062 2.867188 0.832031 2.523438 0.832031 C 1.96875 0.832031 1.214844 1.316406 1.214844 2.1875 C 1.214844 2.695312 1.511719 3.089844 2 3.089844 C 2.710938 3.089844 3.128906 2.5625 3.128906 2.503906 C 3.128906 2.472656 3.101562 2.4375 3.070312 2.4375 C 3.042969 2.4375 3.035156 2.449219 3.003906 2.488281 C 2.613281 2.980469 2.070312 2.980469 2.007812 2.980469 C 1.621094 2.980469 1.574219 2.5625 1.574219 2.402344 C 1.574219 2.34375 1.582031 2.1875 1.65625 1.882812 Z M 1.6875 1.773438 C 1.878906 1.015625 2.394531 0.941406 2.523438 0.941406 C 2.757812 0.941406 2.890625 1.085938 2.890625 1.257812 C 2.890625 1.773438 2.09375 1.773438 1.890625 1.773438 Z M 1.6875 1.773438 "/>
</g>
<path fill-rule="nonzero" fill="rgb(0%, 0%, 0%)" fill-opacity="1" d="M 3.847656 1.835938 C 4.027344 1.882812 4.128906 1.882812 4.1875 1.882812 C 4.644531 1.882812 4.917969 1.570312 4.917969 1.515625 C 4.917969 1.476562 4.894531 1.46875 4.875 1.46875 C 4.867188 1.46875 4.863281 1.46875 4.847656 1.476562 C 4.765625 1.507812 4.578125 1.578125 4.320312 1.578125 C 4.222656 1.578125 4.039062 1.570312 3.8125 1.484375 C 3.777344 1.46875 3.769531 1.46875 3.769531 1.46875 C 3.722656 1.46875 3.722656 1.503906 3.722656 1.5625 L 3.722656 2.589844 C 3.722656 2.648438 3.722656 2.691406 3.777344 2.691406 C 3.808594 2.691406 3.8125 2.683594 3.847656 2.640625 C 3.996094 2.449219 4.210938 2.421875 4.332031 2.421875 C 4.542969 2.421875 4.636719 2.589844 4.652344 2.617188 C 4.714844 2.734375 4.738281 2.867188 4.738281 3.066406 C 4.738281 3.171875 4.738281 3.378906 4.632812 3.53125 C 4.542969 3.65625 4.394531 3.742188 4.222656 3.742188 C 3.996094 3.742188 3.761719 3.617188 3.675781 3.382812 C 3.808594 3.394531 3.875 3.308594 3.875 3.214844 C 3.875 3.066406 3.746094 3.035156 3.699219 3.035156 C 3.695312 3.035156 3.527344 3.035156 3.527344 3.222656 C 3.527344 3.539062 3.8125 3.851562 4.230469 3.851562 C 4.675781 3.851562 5.066406 3.519531 5.066406 3.082031 C 5.066406 2.6875 4.769531 2.324219 4.335938 2.324219 C 4.183594 2.324219 4 2.363281 3.847656 2.496094 Z M 3.847656 1.835938 "/>
</g>
<clipPath id="clip-12">
<path clip-rule="nonzero" d="M 1 0.246094 L 4 0.246094 L 4 4 L 1 4 Z M 1 0.246094 "/>
</clipPath>
<clipPath id="clip-13">
<rect x="0" y="0" width="8" height="5"/>
</clipPath>
<g id="source-20" clip-path="url(#clip-13)">
<g clip-path="url(#clip-12)">
<path fill-rule="nonzero" fill="rgb(0%, 0%, 0%)" fill-opacity="1" d="M 1.910156 1.898438 C 2.054688 1.898438 2.425781 1.890625 2.671875 1.785156 C 3.023438 1.636719 3.046875 1.339844 3.046875 1.269531 C 3.046875 1.050781 2.855469 0.847656 2.511719 0.847656 C 1.960938 0.847656 1.207031 1.332031 1.207031 2.203125 C 1.207031 2.710938 1.503906 3.105469 1.988281 3.105469 C 2.703125 3.105469 3.121094 2.578125 3.121094 2.515625 C 3.121094 2.488281 3.089844 2.453125 3.0625 2.453125 C 3.035156 2.453125 3.027344 2.460938 2.996094 2.503906 C 2.601562 2.996094 2.058594 2.996094 2 2.996094 C 1.613281 2.996094 1.566406 2.578125 1.566406 2.417969 C 1.566406 2.355469 1.570312 2.203125 1.648438 1.898438 Z M 1.675781 1.789062 C 1.871094 1.03125 2.382812 0.957031 2.511719 0.957031 C 2.746094 0.957031 2.882812 1.101562 2.882812 1.269531 C 2.882812 1.789062 2.085938 1.789062 1.882812 1.789062 Z M 1.675781 1.789062 "/>
</g>
<path fill-rule="nonzero" fill="rgb(0%, 0%, 0%)" fill-opacity="1" d="M 3.820312 2.65625 C 3.820312 2.371094 3.847656 2.113281 3.976562 1.898438 C 4.097656 1.710938 4.285156 1.582031 4.507812 1.582031 C 4.613281 1.582031 4.753906 1.609375 4.820312 1.707031 C 4.734375 1.710938 4.660156 1.769531 4.660156 1.871094 C 4.660156 1.960938 4.722656 2.035156 4.824219 2.035156 C 4.929688 2.035156 4.992188 1.964844 4.992188 1.863281 C 4.992188 1.664062 4.847656 1.480469 4.5 1.480469 C 4 1.480469 3.488281 1.941406 3.488281 2.691406 C 3.488281 3.59375 3.910156 3.867188 4.296875 3.867188 C 4.722656 3.867188 5.089844 3.542969 5.089844 3.085938 C 5.089844 2.644531 4.738281 2.316406 4.328125 2.316406 C 4.050781 2.316406 3.898438 2.5 3.820312 2.65625 Z M 4.296875 3.753906 C 4.121094 3.753906 3.984375 3.652344 3.910156 3.5 C 3.859375 3.394531 3.832031 3.222656 3.832031 3.011719 C 3.832031 2.675781 4.035156 2.414062 4.3125 2.414062 C 4.472656 2.414062 4.582031 2.476562 4.667969 2.605469 C 4.753906 2.738281 4.757812 2.882812 4.757812 3.085938 C 4.757812 3.285156 4.757812 3.429688 4.660156 3.566406 C 4.578125 3.6875 4.464844 3.753906 4.296875 3.753906 Z M 4.296875 3.753906 "/>
</g>
<clipPath id="clip-14">
<path clip-rule="nonzero" d="M 1 1 L 4 1 L 4 4.75 L 1 4.75 Z M 1 1 "/>
</clipPath>
<clipPath id="clip-15">
<rect x="0" y="0" width="6" height="5"/>
</clipPath>
<g id="source-23" clip-path="url(#clip-15)">
<g clip-path="url(#clip-14)">
<path fill-rule="nonzero" fill="rgb(0%, 0%, 0%)" fill-opacity="1" d="M 1.394531 4.160156 C 1.355469 4.332031 1.34375 4.367188 1.125 4.367188 C 1.066406 4.367188 1.011719 4.367188 1.011719 4.460938 C 1.011719 4.5 1.035156 4.519531 1.074219 4.519531 C 1.210938 4.519531 1.355469 4.503906 1.496094 4.503906 C 1.65625 4.503906 1.828125 4.519531 1.988281 4.519531 C 2.011719 4.519531 2.078125 4.519531 2.078125 4.421875 C 2.078125 4.367188 2.027344 4.367188 1.957031 4.367188 C 1.707031 4.367188 1.707031 4.332031 1.707031 4.285156 C 1.707031 4.226562 1.917969 3.414062 1.953125 3.289062 C 2.015625 3.433594 2.15625 3.609375 2.410156 3.609375 C 2.988281 3.609375 3.609375 2.882812 3.609375 2.148438 C 3.609375 1.679688 3.328125 1.351562 2.949219 1.351562 C 2.699219 1.351562 2.460938 1.53125 2.296875 1.726562 C 2.246094 1.457031 2.03125 1.351562 1.847656 1.351562 C 1.617188 1.351562 1.523438 1.546875 1.480469 1.636719 C 1.390625 1.804688 1.324219 2.105469 1.324219 2.121094 C 1.324219 2.167969 1.375 2.167969 1.382812 2.167969 C 1.433594 2.167969 1.4375 2.164062 1.46875 2.054688 C 1.554688 1.703125 1.652344 1.460938 1.832031 1.460938 C 1.917969 1.460938 1.988281 1.5 1.988281 1.691406 C 1.988281 1.804688 1.972656 1.859375 1.953125 1.945312 Z M 2.269531 2 C 2.304688 1.867188 2.441406 1.726562 2.53125 1.652344 C 2.703125 1.496094 2.847656 1.460938 2.933594 1.460938 C 3.132812 1.460938 3.253906 1.636719 3.253906 1.929688 C 3.253906 2.222656 3.089844 2.796875 3 2.984375 C 2.828125 3.335938 2.589844 3.5 2.40625 3.5 C 2.078125 3.5 2.011719 3.085938 2.011719 3.054688 C 2.011719 3.046875 2.011719 3.035156 2.027344 2.976562 Z M 2.269531 2 "/>
</g>
</g>
</defs>
<path fill="none" stroke-width="0.6" stroke-linecap="round" stroke-linejoin="round" stroke="rgb(0%, 0%, 0%)" stroke-opacity="1" stroke-miterlimit="10" d="M 4.859375 11.256988 L 8.394531 17.381988 L 15.464844 17.381988 L 19 11.256988 L 15.464844 5.135894 L 8.394531 5.135894 Z M 4.859375 11.256988 " transform="matrix(1, 0, 0, -1, 0, 22.2648)"/>
<path fill-rule="evenodd" fill="rgb(0%, 0%, 0%)" fill-opacity="1" d="M 7.320312 9.09375 L 7.480469 6.414062 L 5.242188 7.894531 Z M 7.320312 9.09375 "/>
<path fill="none" stroke-width="0.8" stroke-linecap="butt" stroke-linejoin="round" stroke="rgb(0%, 0%, 0%)" stroke-opacity="1" stroke-miterlimit="10" d="M 6.519531 14.186675 C 6.457031 14.081206 6.421875 14.0148 6.421875 14.0148 " transform="matrix(1, 0, 0, -1, 0, 22.2648)"/>
<path fill-rule="evenodd" fill="rgb(0%, 0%, 0%)" fill-opacity="1" d="M 7.320312 9.09375 L 7.480469 6.414062 L 5.242188 7.894531 Z M 7.320312 9.09375 "/>
<path fill="none" stroke-width="0.8" stroke-linecap="butt" stroke-linejoin="round" stroke="rgb(0%, 0%, 0%)" stroke-opacity="1" stroke-miterlimit="10" d="M 6.519531 14.186675 C 6.457031 14.081206 6.421875 14.0148 6.421875 14.0148 " transform="matrix(1, 0, 0, -1, 0, 22.2648)"/>
<path fill-rule="evenodd" fill="rgb(0%, 0%, 0%)" fill-opacity="1" d="M 17.953125 15.226562 L 18.113281 12.546875 L 15.875 14.027344 Z M 17.953125 15.226562 "/>
<path fill="none" stroke-width="0.8" stroke-linecap="butt" stroke-linejoin="round" stroke="rgb(0%, 0%, 0%)" stroke-opacity="1" stroke-miterlimit="10" d="M 17.152344 8.053863 C 17.089844 7.948394 17.054688 7.881988 17.054688 7.881988 " transform="matrix(1, 0, 0, -1, 0, 22.2648)"/>
<path fill-rule="evenodd" fill="rgb(0%, 0%, 0%)" fill-opacity="1" d="M 18.589844 7.898438 L 16.347656 6.421875 L 16.511719 9.097656 Z M 18.589844 7.898438 "/>
<path fill="none" stroke-width="0.8" stroke-linecap="butt" stroke-linejoin="round" stroke="rgb(0%, 0%, 0%)" stroke-opacity="1" stroke-miterlimit="10" d="M 17.308594 14.182769 C 17.371094 14.073394 17.410156 14.006988 17.410156 14.006988 " transform="matrix(1, 0, 0, -1, 0, 22.2648)"/>
<path fill-rule="evenodd" fill="rgb(0%, 0%, 0%)" fill-opacity="1" d="M 18.589844 7.898438 L 16.347656 6.421875 L 16.511719 9.097656 Z M 18.589844 7.898438 "/>
<path fill="none" stroke-width="0.8" stroke-linecap="butt" stroke-linejoin="round" stroke="rgb(0%, 0%, 0%)" stroke-opacity="1" stroke-miterlimit="10" d="M 17.308594 14.182769 C 17.371094 14.073394 17.410156 14.006988 17.410156 14.006988 " transform="matrix(1, 0, 0, -1, 0, 22.2648)"/>
<path fill-rule="evenodd" fill="rgb(0%, 0%, 0%)" fill-opacity="1" d="M 7.980469 14.015625 L 5.738281 12.535156 L 5.898438 15.214844 Z M 7.980469 14.015625 "/>
<path fill="none" stroke-width="0.8" stroke-linecap="butt" stroke-linejoin="round" stroke="rgb(0%, 0%, 0%)" stroke-opacity="1" stroke-miterlimit="10" d="M 6.699219 8.065581 C 6.761719 7.956206 6.800781 7.8898 6.800781 7.8898 " transform="matrix(1, 0, 0, -1, 0, 22.2648)"/>
<path fill-rule="evenodd" fill="rgb(0%, 0%, 0%)" fill-opacity="1" d="M 11.289062 18.324219 L 13.6875 17.121094 L 11.289062 15.921875 Z M 11.289062 18.324219 "/>
<path fill="none" stroke-width="0.8" stroke-linecap="butt" stroke-linejoin="round" stroke="rgb(0%, 0%, 0%)" stroke-opacity="1" stroke-miterlimit="10" d="M 11.769531 5.143706 L 11.566406 5.143706 " transform="matrix(1, 0, 0, -1, 0, 22.2648)"/>
<path fill-rule="evenodd" fill="rgb(0%, 0%, 0%)" fill-opacity="1" d="M 11.289062 6.082031 L 13.6875 4.882812 L 11.289062 3.683594 Z M 11.289062 6.082031 "/>
<path fill="none" stroke-width="0.8" stroke-linecap="butt" stroke-linejoin="round" stroke="rgb(0%, 0%, 0%)" stroke-opacity="1" stroke-miterlimit="10" d="M 11.769531 17.381988 L 11.566406 17.381988 " transform="matrix(1, 0, 0, -1, 0, 22.2648)"/>
<g clip-path="url(#clip-0)">
<use xlink:href="#source-5" transform="matrix(1, 0, 0, 1, 17, 12)"/>
</g>
<g clip-path="url(#clip-3)">
<use xlink:href="#source-8" transform="matrix(1, 0, 0, 1, 9, 18)"/>
</g>
<g clip-path="url(#clip-6)">
<use xlink:href="#source-11" transform="matrix(1, 0, 0, 1, 17, 5)"/>
</g>
<use xlink:href="#source-14" transform="matrix(1, 0, 0, 1, 8, 0)"/>
<use xlink:href="#source-17" transform="matrix(1, 0, 0, 1, 0, 5)"/>
<use xlink:href="#source-20" transform="matrix(1, 0, 0, 1, 0, 12)"/>
<use xlink:href="#source-23" transform="matrix(1, 0, 0, 1, 10, 8)"/>
</svg>
