<?xml version="1.0" encoding="UTF-8"?>
<svg xmlns="http://www.w3.org/2000/svg" xmlns:xlink="http://www.w3.org/1999/xlink" width="16.5936pt" height="99.3565pt" viewBox="0 0 16.5936 99.3565">
<defs>
<clipPath id="clip-0">
<path clip-rule="nonzero" d="M 0 0 L 16.59375 0 L 16.59375 99.355469 L 0 99.355469 Z M 0 0 "/>
</clipPath>
<clipPath id="clip-1">
<path clip-rule="nonzero" d="M 5 10.746094 L 10 10.746094 L 10 98.097656 L 5 98.097656 Z M 5 10.746094 "/>
</clipPath>
<clipPath id="clip-2">
<path clip-rule="nonzero" d="M 6 63 L 10 63 L 10 73.132812 L 6 73.132812 Z M 6 63 "/>
</clipPath>
<clipPath id="clip-3">
<path clip-rule="nonzero" d="M 6 3 L 11 3 L 11 18.542969 L 6 18.542969 Z M 6 3 "/>
</clipPath>
</defs>
<g clip-path="url(#clip-0)">
<rect x="-1.65936" y="-9.93565" width="19.91232" height="119.2278" fill="rgb(100%, 100%, 100%)" fill-opacity="1"/>
</g>
<g clip-path="url(#clip-1)">
<path fill="none" stroke-width="4" stroke-linecap="butt" stroke-linejoin="miter" stroke="rgb(0%, 0%, 0%)" stroke-opacity="1" stroke-miterlimit="4" d="M 0.00044375 0.00023125 L 85.352006 0.00023125 " transform="matrix(0, -1, -1, 0, 7.9807, 97.0981)"/>
</g>
<g clip-path="url(#clip-2)">
<path fill="none" stroke-width="3" stroke-linecap="butt" stroke-linejoin="miter" stroke="rgb(0%, 0%, 0%)" stroke-opacity="1" stroke-miterlimit="4" d="M 11.698862 -0.00023125 L 18.605112 -0.00023125 " transform="matrix(0, 1, 1, 0, 7.9807, 53.5277)"/>
</g>
<path fill-rule="nonzero" fill="rgb(0%, 0%, 0%)" fill-opacity="1" d="M 1.378906 66.726562 L 7.980469 53.527344 L 14.582031 66.726562 Z M 1.378906 66.726562 "/>
<g clip-path="url(#clip-3)">
<path fill="none" stroke-width="4" stroke-linecap="butt" stroke-linejoin="miter" stroke="rgb(0%, 0%, 0%)" stroke-opacity="1" stroke-miterlimit="4" d="M 0.00106875 0.00133125 L 6.376069 0.00133125 L -5.623931 0.00133125 " transform="matrix(0, 1, 1, 0, 8.0807, 11.1669)"/>
</g>
<path fill-rule="nonzero" fill="rgb(0%, 0%, 0%)" fill-opacity="1" d="M 1.082031 10.542969 C 1.082031 14.410156 4.214844 17.542969 8.082031 17.542969 C 11.945312 17.542969 15.082031 14.410156 15.082031 10.542969 C 15.082031 6.679688 11.945312 3.542969 8.082031 3.542969 C 4.214844 3.542969 1.082031 6.679688 1.082031 10.542969 Z M 1.082031 10.542969 "/>
</svg>
