<?xml version="1.0" encoding="UTF-8"?>
<svg xmlns="http://www.w3.org/2000/svg" xmlns:xlink="http://www.w3.org/1999/xlink" width="47.0766pt" height="96.6632pt" viewBox="0 0 47.0766 96.6632">
<defs>
<clipPath id="clip-0">
<path clip-rule="nonzero" d="M 35 10.121094 L 40 10.121094 L 40 96.664062 L 35 96.664062 Z M 35 10.121094 "/>
</clipPath>
<clipPath id="clip-1">
<path clip-rule="nonzero" d="M 35 49.90625 L 39 49.90625 L 39 60 L 35 60 Z M 35 49.90625 "/>
</clipPath>
<clipPath id="clip-2">
<path clip-rule="nonzero" d="M 35 2 L 40 2 L 40 17.921875 L 35 17.921875 Z M 35 2 "/>
</clipPath>
<clipPath id="clip-3">
<path clip-rule="nonzero" d="M 6 10.121094 L 11 10.121094 L 11 96.664062 L 6 96.664062 Z M 6 10.121094 "/>
</clipPath>
<clipPath id="clip-4">
<path clip-rule="nonzero" d="M 6 63 L 10 63 L 10 72.511719 L 6 72.511719 Z M 6 63 "/>
</clipPath>
<clipPath id="clip-5">
<path clip-rule="nonzero" d="M 6 2 L 11 2 L 11 17.921875 L 6 17.921875 Z M 6 2 "/>
</clipPath>
</defs>
<rect x="-4.70766" y="-9.66632" width="56.49192" height="115.99584" fill="rgb(100%, 100%, 100%)" fill-opacity="1"/>
<g clip-path="url(#clip-0)">
<path fill="none" stroke-width="4" stroke-linecap="butt" stroke-linejoin="miter" stroke="rgb(0%, 0%, 0%)" stroke-opacity="1" stroke-miterlimit="4" d="M -0.0007625 -0.00135 L 85.354706 -0.00135 " transform="matrix(0, -1, -1, 0, 37.4674, 96.4758)"/>
</g>
<g clip-path="url(#clip-1)">
<path fill="none" stroke-width="3" stroke-linecap="butt" stroke-linejoin="miter" stroke="rgb(0%, 0%, 0%)" stroke-opacity="1" stroke-miterlimit="4" d="M 0.00085 0.00135 L 6.9071 0.00135 " transform="matrix(0, 1, 1, 0, 37.4674, 50.9054)"/>
</g>
<path fill-rule="nonzero" fill="rgb(0%, 0%, 0%)" fill-opacity="1" d="M 44.066406 56.3125 L 37.46875 69.511719 L 30.867188 56.3125 Z M 44.066406 56.3125 "/>
<g clip-path="url(#clip-2)">
<path fill="none" stroke-width="4" stroke-linecap="butt" stroke-linejoin="miter" stroke="rgb(0%, 0%, 0%)" stroke-opacity="1" stroke-miterlimit="4" d="M -0.00163125 -0.00099375 L 6.377275 -0.00099375 L -5.622725 -0.00099375 " transform="matrix(0, 1, 1, 0, 37.5674, 10.5446)"/>
</g>
<path fill-rule="nonzero" fill="rgb(0%, 0%, 0%)" fill-opacity="1" d="M 30.566406 16.921875 L 44.566406 16.921875 L 44.566406 2.921875 L 30.566406 2.921875 Z M 30.566406 16.921875 "/>
<g clip-path="url(#clip-3)">
<path fill="none" stroke-width="4" stroke-linecap="butt" stroke-linejoin="miter" stroke="rgb(0%, 0%, 0%)" stroke-opacity="1" stroke-miterlimit="4" d="M -0.0007625 0.00145625 L 85.354706 0.00145625 " transform="matrix(0, -1, -1, 0, 8.1538, 96.4758)"/>
</g>
<g clip-path="url(#clip-4)">
<path fill="none" stroke-width="3" stroke-linecap="butt" stroke-linejoin="miter" stroke="rgb(0%, 0%, 0%)" stroke-opacity="1" stroke-miterlimit="4" d="M 11.700069 -0.00145625 L 18.606319 -0.00145625 " transform="matrix(0, 1, 1, 0, 8.1538, 52.9054)"/>
</g>
<path fill-rule="nonzero" fill="rgb(0%, 0%, 0%)" fill-opacity="1" d="M 1.554688 66.105469 L 8.152344 52.90625 L 14.753906 66.105469 Z M 1.554688 66.105469 "/>
<g clip-path="url(#clip-5)">
<path fill="none" stroke-width="4" stroke-linecap="butt" stroke-linejoin="miter" stroke="rgb(0%, 0%, 0%)" stroke-opacity="1" stroke-miterlimit="4" d="M -0.00163125 0.00010625 L 6.377275 0.00010625 L -5.622725 0.00010625 " transform="matrix(0, 1, 1, 0, 8.2538, 10.5446)"/>
</g>
<path fill-rule="nonzero" fill="rgb(0%, 0%, 0%)" fill-opacity="1" d="M 1.253906 9.921875 C 1.253906 13.789062 4.386719 16.921875 8.253906 16.921875 C 12.121094 16.921875 15.253906 13.789062 15.253906 9.921875 C 15.253906 6.054688 12.121094 2.921875 8.253906 2.921875 C 4.386719 2.921875 1.253906 6.054688 1.253906 9.921875 Z M 1.253906 9.921875 "/>
</svg>
