<?xml version="1.0" encoding="UTF-8"?>
<svg xmlns="http://www.w3.org/2000/svg" xmlns:xlink="http://www.w3.org/1999/xlink" width="120.06521pt" height="116.7973pt" viewBox="0 0 120.06521 116.7973">
<defs>
<clipPath id="clip-0">
<path clip-rule="nonzero" d="M 0 0 L 120.066406 0 L 120.066406 116.796875 L 0 116.796875 Z M 0 0 "/>
</clipPath>
</defs>
<g clip-path="url(#clip-0)">
<rect x="-12.006521" y="-11.67973" width="144.078252" height="140.15676" fill="rgb(100%, 100%, 100%)" fill-opacity="1"/>
</g>
<path fill="none" stroke-width="5" stroke-linecap="butt" stroke-linejoin="miter" stroke="rgb(0%, 0%, 0%)" stroke-opacity="1" stroke-miterlimit="4" d="M 0.0011175 -0.00186875 L 100.001117 -0.00186875 L 100.001117 99.998131 L 0.0011175 99.998131 Z M 0.0011175 -0.00186875 " transform="matrix(1, 0, 0, 1, 9.64732, 8.9589)"/>
<path fill-rule="nonzero" fill="rgb(0%, 0%, 0%)" fill-opacity="1" d="M 114.417969 4.976562 C 116.792969 7.386719 116.792969 11.285156 114.417969 13.695312 C 112.046875 16.101562 108.199219 16.101562 105.824219 13.695312 C 103.449219 11.285156 103.449219 7.386719 105.824219 4.976562 C 108.199219 2.570312 112.046875 2.570312 114.417969 4.976562 Z M 114.417969 4.976562 "/>
<path fill-rule="nonzero" fill="rgb(0%, 0%, 0%)" fill-opacity="1" d="M 13.421875 4.976562 C 15.792969 7.386719 15.792969 11.285156 13.421875 13.695312 C 11.046875 16.101562 7.199219 16.101562 4.824219 13.695312 C 2.449219 11.285156 2.449219 7.386719 4.824219 4.976562 C 7.199219 2.570312 11.046875 2.570312 13.421875 4.976562 Z M 13.421875 4.976562 "/>
<path fill-rule="nonzero" fill="rgb(0%, 0%, 0%)" fill-opacity="1" d="M 13.421875 104.976562 C 15.792969 107.386719 15.792969 111.285156 13.421875 113.695312 C 11.046875 116.101562 7.199219 116.101562 4.824219 113.695312 C 2.449219 111.285156 2.449219 107.386719 4.824219 104.976562 C 7.199219 102.570312 11.046875 102.570312 13.421875 104.976562 Z M 13.421875 104.976562 "/>
<path fill-rule="nonzero" fill="rgb(0%, 0%, 0%)" fill-opacity="1" d="M 114.417969 104.976562 C 116.792969 107.386719 116.792969 111.285156 114.417969 113.695312 C 112.046875 116.101562 108.199219 116.101562 105.824219 113.695312 C 103.449219 111.285156 103.449219 107.386719 105.824219 104.976562 C 108.199219 102.570312 112.046875 102.570312 114.417969 104.976562 Z M 114.417969 104.976562 "/>
</svg>
