<?xml version="1.0" encoding="UTF-8"?>
<svg xmlns="http://www.w3.org/2000/svg" xmlns:xlink="http://www.w3.org/1999/xlink" width="49.668pt" height="89.6561pt" viewBox="0 0 49.668 89.6561">
<defs>
<clipPath id="clip-0">
<path clip-rule="nonzero" d="M 0 0 L 49.667969 0 L 49.667969 89.65625 L 0 89.65625 Z M 0 0 "/>
</clipPath>
<clipPath id="clip-1">
<path clip-rule="nonzero" d="M 23 42.769531 L 28 42.769531 L 28 88.6875 L 23 88.6875 Z M 23 42.769531 "/>
</clipPath>
<clipPath id="clip-2">
<path clip-rule="nonzero" d="M 24 57.550781 L 28 57.550781 L 28 67 L 24 67 Z M 24 57.550781 "/>
</clipPath>
<clipPath id="clip-3">
<path clip-rule="nonzero" d="M 23 42.191406 L 28 42.191406 L 28 50.570312 L 23 50.570312 Z M 23 42.191406 "/>
</clipPath>
<clipPath id="clip-4">
<path clip-rule="nonzero" d="M 0.941406 2.039062 L 49.667969 2.039062 L 49.667969 47.78125 L 0.941406 47.78125 Z M 0.941406 2.039062 "/>
</clipPath>
<clipPath id="clip-5">
<path clip-rule="nonzero" d="M 35 3 L 49.667969 3 L 49.667969 18 L 35 18 Z M 35 3 "/>
</clipPath>
<clipPath id="clip-6">
<path clip-rule="nonzero" d="M 27 16 L 49 16 L 49 38 L 27 38 Z M 27 16 "/>
</clipPath>
<clipPath id="clip-7">
<path clip-rule="nonzero" d="M 33.722656 16.511719 L 27.851562 32.644531 L 42.132812 37.84375 L 48.003906 21.710938 Z M 33.722656 16.511719 "/>
</clipPath>
<clipPath id="clip-8">
<path clip-rule="nonzero" d="M 29 20 L 43 20 L 43 35 L 29 35 Z M 29 20 "/>
</clipPath>
<clipPath id="clip-9">
<path clip-rule="nonzero" d="M 33.722656 16.511719 L 27.851562 32.644531 L 42.132812 37.84375 L 48.003906 21.710938 Z M 33.722656 16.511719 "/>
</clipPath>
<clipPath id="clip-10">
<path clip-rule="nonzero" d="M 3 17 L 23 17 L 23 38 L 3 38 Z M 3 17 "/>
</clipPath>
<clipPath id="clip-11">
<path clip-rule="nonzero" d="M 22.242188 33.660156 L 17.796875 17.082031 L 3.117188 21.015625 L 7.558594 37.59375 Z M 22.242188 33.660156 "/>
</clipPath>
<clipPath id="clip-12">
<path clip-rule="nonzero" d="M 7 20 L 21 20 L 21 35 L 7 35 Z M 7 20 "/>
</clipPath>
<clipPath id="clip-13">
<path clip-rule="nonzero" d="M 22.242188 33.660156 L 17.796875 17.082031 L 3.117188 21.015625 L 7.558594 37.59375 Z M 22.242188 33.660156 "/>
</clipPath>
</defs>
<g clip-path="url(#clip-0)">
<rect x="-4.9668" y="-8.96561" width="59.6016" height="107.58732" fill="rgb(100%, 100%, 100%)" fill-opacity="1"/>
</g>
<g clip-path="url(#clip-1)">
<path fill="none" stroke-width="4" stroke-linecap="butt" stroke-linejoin="miter" stroke="rgb(0%, 0%, 0%)" stroke-opacity="1" stroke-miterlimit="4" d="M 0.0017 0.0006875 L 43.919669 0.0006875 " transform="matrix(0, -1, -1, 0, 25.5085, 87.6892)"/>
</g>
<g clip-path="url(#clip-2)">
<path fill="none" stroke-width="3" stroke-linecap="butt" stroke-linejoin="miter" stroke="rgb(0%, 0%, 0%)" stroke-opacity="1" stroke-miterlimit="4" d="M -0.00101875 -0.0006875 L 6.905231 -0.0006875 " transform="matrix(0, 1, 1, 0, 25.5085, 58.5518)"/>
</g>
<path fill-rule="nonzero" fill="rgb(0%, 0%, 0%)" fill-opacity="1" d="M 32.109375 63.957031 L 25.507812 77.160156 L 18.910156 63.957031 Z M 32.109375 63.957031 "/>
<g clip-path="url(#clip-3)">
<path fill="none" stroke-width="4" stroke-linecap="butt" stroke-linejoin="miter" stroke="rgb(0%, 0%, 0%)" stroke-opacity="1" stroke-miterlimit="4" d="M 0.00040625 0.000875 L 6.379313 0.000875 " transform="matrix(0, 1, 1, 0, 25.6085, 43.191)"/>
</g>
<g clip-path="url(#clip-4)">
<path fill="none" stroke-width="4" stroke-linecap="butt" stroke-linejoin="miter" stroke="rgb(0%, 0%, 0%)" stroke-opacity="1" stroke-miterlimit="4" d="M 2.062081 29.654094 L 2.405831 27.681437 C 6.269112 9.974406 12.050362 -0.420125 18.206612 0.0134687 C 24.089425 0.427531 29.550362 10.716594 33.241769 27.681437 L 33.585519 29.650187 " transform="matrix(1, 0, 0, -1, 7.7387, 44.783)"/>
</g>
<g clip-path="url(#clip-5)">
<path fill-rule="nonzero" fill="rgb(0%, 0%, 0%)" fill-opacity="1" d="M 49.074219 11.40625 C 49.738281 7.59375 47.1875 3.972656 43.378906 3.308594 C 39.570312 2.648438 35.945312 5.199219 35.28125 9.007812 C 34.621094 12.816406 37.171875 16.441406 40.980469 17.101562 C 44.789062 17.765625 48.414062 15.214844 49.074219 11.40625 Z M 49.074219 11.40625 "/>
</g>
<path fill-rule="nonzero" fill="rgb(0%, 0%, 0%)" fill-opacity="1" d="M 15.835938 9 C 15.171875 5.195312 11.546875 2.644531 7.738281 3.308594 C 3.929688 3.972656 1.382812 7.597656 2.046875 11.40625 C 2.710938 15.214844 6.335938 17.765625 10.144531 17.101562 C 13.953125 16.4375 16.5 12.808594 15.835938 9 Z M 15.835938 9 "/>
<g clip-path="url(#clip-6)">
<g clip-path="url(#clip-7)">
<path fill="none" stroke-width="3" stroke-linecap="butt" stroke-linejoin="miter" stroke="rgb(0%, 0%, 0%)" stroke-opacity="1" stroke-miterlimit="4" d="M 11.700053 -0.000229214 L 13.200185 0.00121425 L 15.166209 0.00179386 " transform="matrix(-0.34202, 0.939693, 0.939693, 0.34202, 40.5214, 20.0525)"/>
</g>
</g>
<g clip-path="url(#clip-8)">
<g clip-path="url(#clip-9)">
<path fill-rule="nonzero" fill="rgb(0%, 0%, 0%)" fill-opacity="1" d="M 29.804688 30.199219 L 40.519531 20.050781 L 42.207031 34.714844 Z M 29.804688 30.199219 "/>
</g>
</g>
<g clip-path="url(#clip-10)">
<g clip-path="url(#clip-11)">
<path fill="none" stroke-width="3" stroke-linecap="butt" stroke-linejoin="miter" stroke="rgb(0%, 0%, 0%)" stroke-opacity="1" stroke-miterlimit="4" d="M 0.00155539 -0.000546174 L 1.962964 -0.000377663 L 3.463903 0.00185176 " transform="matrix(-0.258819, -0.965926, -0.965926, 0.258819, 14.6405, 34.6618)"/>
</g>
</g>
<g clip-path="url(#clip-12)">
<g clip-path="url(#clip-13)">
<path fill-rule="nonzero" fill="rgb(0%, 0%, 0%)" fill-opacity="1" d="M 7.757812 34.472656 L 10.714844 20.011719 L 20.507812 31.054688 Z M 7.757812 34.472656 "/>
</g>
</g>
</svg>
