<?xml version="1.0" encoding="UTF-8"?>
<svg xmlns="http://www.w3.org/2000/svg" xmlns:xlink="http://www.w3.org/1999/xlink" width="50.3124pt" height="49.8795pt" viewBox="0 0 50.3124 49.8795">
<defs>
<clipPath id="clip-0">
<path clip-rule="nonzero" d="M 0 0 L 50.3125 0 L 50.3125 49.878906 L 0 49.878906 Z M 0 0 "/>
</clipPath>
<clipPath id="clip-1">
<path clip-rule="nonzero" d="M 1.027344 3.648438 L 50.265625 3.648438 L 50.265625 49.394531 L 1.027344 49.394531 Z M 1.027344 3.648438 "/>
</clipPath>
<clipPath id="clip-2">
<path clip-rule="nonzero" d="M 26 21 L 48 21 L 48 43 L 26 43 Z M 26 21 "/>
</clipPath>
<clipPath id="clip-3">
<path clip-rule="nonzero" d="M 41.222656 42.453125 L 47.089844 26.324219 L 32.808594 21.125 L 26.9375 37.253906 Z M 41.222656 42.453125 "/>
</clipPath>
<clipPath id="clip-4">
<path clip-rule="nonzero" d="M 28 24 L 42 24 L 42 40 L 28 40 Z M 28 24 "/>
</clipPath>
<clipPath id="clip-5">
<path clip-rule="nonzero" d="M 41.222656 42.453125 L 47.089844 26.324219 L 32.808594 21.125 L 26.9375 37.253906 Z M 41.222656 42.453125 "/>
</clipPath>
<clipPath id="clip-6">
<path clip-rule="nonzero" d="M 3 20 L 24 20 L 24 42 L 3 42 Z M 3 20 "/>
</clipPath>
<clipPath id="clip-7">
<path clip-rule="nonzero" d="M 23.933594 36.238281 L 17.785156 20.214844 L 3.59375 25.660156 L 9.746094 41.6875 Z M 23.933594 36.238281 "/>
</clipPath>
<clipPath id="clip-8">
<path clip-rule="nonzero" d="M 9 23 L 22 23 L 22 39 L 9 39 Z M 9 23 "/>
</clipPath>
<clipPath id="clip-9">
<path clip-rule="nonzero" d="M 23.933594 36.238281 L 17.785156 20.214844 L 3.59375 25.660156 L 9.746094 41.6875 Z M 23.933594 36.238281 "/>
</clipPath>
</defs>
<g clip-path="url(#clip-0)">
<rect x="-5.03124" y="-4.98795" width="60.37488" height="59.8554" fill="rgb(100%, 100%, 100%)" fill-opacity="1"/>
</g>
<g clip-path="url(#clip-1)">
<path fill="none" stroke-width="4" stroke-linecap="butt" stroke-linejoin="miter" stroke="rgb(0%, 0%, 0%)" stroke-opacity="1" stroke-miterlimit="4" d="M 2.061419 29.652813 L 2.405169 27.684063 C 6.26845 9.973125 12.053606 -0.421406 18.20595 0.0121875 C 24.088762 0.42625 29.5497 10.719219 33.241106 27.680156 L 33.584856 29.652813 " transform="matrix(1, 0, 0, -1, 7.8253, 46.395)"/>
</g>
<path fill-rule="nonzero" fill="rgb(0%, 0%, 0%)" fill-opacity="1" d="M 49.164062 13.015625 C 49.824219 9.207031 47.273438 5.582031 43.464844 4.921875 C 39.65625 4.257812 36.03125 6.808594 35.371094 10.617188 C 34.707031 14.425781 37.257812 18.050781 41.066406 18.714844 C 44.875 19.375 48.5 16.824219 49.164062 13.015625 Z M 49.164062 13.015625 "/>
<path fill-rule="nonzero" fill="rgb(0%, 0%, 0%)" fill-opacity="1" d="M 15.925781 10.613281 C 15.257812 6.804688 11.632812 4.257812 7.824219 4.921875 C 4.015625 5.585938 1.46875 9.210938 2.132812 13.019531 C 2.796875 16.828125 6.421875 19.378906 10.230469 18.710938 C 14.039062 18.046875 16.589844 14.421875 15.925781 10.613281 Z M 15.925781 10.613281 "/>
<g clip-path="url(#clip-2)">
<g clip-path="url(#clip-3)">
<path fill="none" stroke-width="3" stroke-linecap="butt" stroke-linejoin="miter" stroke="rgb(0%, 0%, 0%)" stroke-opacity="1" stroke-miterlimit="4" d="M 0.000983654 -0.000253881 L 1.963337 -0.00101029 L 3.463468 0.000433171 " transform="matrix(0.34202, -0.939693, -0.939693, -0.34202, 34.4213, 38.9149)"/>
</g>
</g>
<g clip-path="url(#clip-4)">
<g clip-path="url(#clip-5)">
<path fill-rule="nonzero" fill="rgb(0%, 0%, 0%)" fill-opacity="1" d="M 28.890625 34.8125 L 39.609375 24.664062 L 41.296875 39.324219 Z M 28.890625 34.8125 "/>
</g>
</g>
<g clip-path="url(#clip-6)">
<g clip-path="url(#clip-7)">
<path fill="none" stroke-width="3" stroke-linecap="butt" stroke-linejoin="miter" stroke="rgb(0%, 0%, 0%)" stroke-opacity="1" stroke-miterlimit="4" d="M 0.00159237 0.000921824 L 1.963918 0.000804351 L 3.466302 0.00150755 " transform="matrix(-0.358368, -0.93358, -0.93358, 0.358368, 16.4819, 38.0285)"/>
</g>
</g>
<g clip-path="url(#clip-8)">
<g clip-path="url(#clip-9)">
<path fill-rule="nonzero" fill="rgb(0%, 0%, 0%)" fill-opacity="1" d="M 9.617188 38.558594 L 11.046875 23.871094 L 21.9375 33.828125 Z M 9.617188 38.558594 "/>
</g>
</g>
</svg>
