<?xml version="1.0" encoding="UTF-8"?>
<svg xmlns="http://www.w3.org/2000/svg" xmlns:xlink="http://www.w3.org/1999/xlink" width="205.7236pt" height="166.1999pt" viewBox="0 0 205.7236 166.1999">
<defs>
<clipPath id="clip-0">
<path clip-rule="nonzero" d="M 0 0 L 205.722656 0 L 205.722656 166.199219 L 0 166.199219 Z M 0 0 "/>
</clipPath>
<clipPath id="clip-1">
<path clip-rule="nonzero" d="M 180 0 L 205.722656 0 L 205.722656 24 L 180 24 Z M 180 0 "/>
</clipPath>
<clipPath id="clip-2">
<path clip-rule="nonzero" d="M 180 19 L 205.722656 19 L 205.722656 64 L 180 64 Z M 180 19 "/>
</clipPath>
<clipPath id="clip-3">
<path clip-rule="nonzero" d="M 180 59 L 205.722656 59 L 205.722656 104 L 180 104 Z M 180 59 "/>
</clipPath>
<clipPath id="clip-4">
<path clip-rule="nonzero" d="M 180 99 L 205.722656 99 L 205.722656 144 L 180 144 Z M 180 99 "/>
</clipPath>
<clipPath id="clip-5">
<path clip-rule="nonzero" d="M 0 139 L 25 139 L 25 166.199219 L 0 166.199219 Z M 0 139 "/>
</clipPath>
<clipPath id="clip-6">
<path clip-rule="nonzero" d="M 20 139 L 65 139 L 65 166.199219 L 20 166.199219 Z M 20 139 "/>
</clipPath>
<clipPath id="clip-7">
<path clip-rule="nonzero" d="M 60 139 L 105 139 L 105 166.199219 L 60 166.199219 Z M 60 139 "/>
</clipPath>
<clipPath id="clip-8">
<path clip-rule="nonzero" d="M 100 139 L 145 139 L 145 166.199219 L 100 166.199219 Z M 100 139 "/>
</clipPath>
<clipPath id="clip-9">
<path clip-rule="nonzero" d="M 140 139 L 185 139 L 185 166.199219 L 140 166.199219 Z M 140 139 "/>
</clipPath>
<clipPath id="clip-10">
<path clip-rule="nonzero" d="M 180 139 L 205.722656 139 L 205.722656 166.199219 L 180 166.199219 Z M 180 139 "/>
</clipPath>
</defs>
<g clip-path="url(#clip-0)">
<rect x="-20.57236" y="-16.61999" width="246.86832" height="199.43988" fill="rgb(100%, 100%, 100%)" fill-opacity="1"/>
</g>
<path fill="none" stroke-width="4" stroke-linecap="butt" stroke-linejoin="miter" stroke="rgb(0%, 0%, 0%)" stroke-opacity="1" stroke-miterlimit="4" d="M 0.00118125 0.0008875 L 40.360556 0.0008875 L 40.360556 40.360262 L 0.00118125 40.360262 Z M 0.00118125 0.0008875 " transform="matrix(1, 0, 0, 1, -17.8879, -18.6337)"/>
<path fill="none" stroke-width="4" stroke-linecap="butt" stroke-linejoin="miter" stroke="rgb(0%, 0%, 0%)" stroke-opacity="1" stroke-miterlimit="4" d="M 0.00118125 0.0008875 L 40.360556 0.0008875 L 40.360556 40.360262 L 0.00118125 40.360262 Z M 0.00118125 0.0008875 " transform="matrix(1, 0, 0, 1, 22.1121, -18.6337)"/>
<path fill="none" stroke-width="4" stroke-linecap="butt" stroke-linejoin="miter" stroke="rgb(0%, 0%, 0%)" stroke-opacity="1" stroke-miterlimit="4" d="M 0.00118125 0.0008875 L 40.360556 0.0008875 L 40.360556 40.360262 L 0.00118125 40.360262 Z M 0.00118125 0.0008875 " transform="matrix(1, 0, 0, 1, 62.1121, -18.6337)"/>
<path fill="none" stroke-width="4" stroke-linecap="butt" stroke-linejoin="miter" stroke="rgb(0%, 0%, 0%)" stroke-opacity="1" stroke-miterlimit="4" d="M 0.00118125 0.0008875 L 40.360556 0.0008875 L 40.360556 40.360262 L 0.00118125 40.360262 Z M 0.00118125 0.0008875 " transform="matrix(1, 0, 0, 1, 102.1121, -18.6337)"/>
<path fill="none" stroke-width="4" stroke-linecap="butt" stroke-linejoin="miter" stroke="rgb(0%, 0%, 0%)" stroke-opacity="1" stroke-miterlimit="4" d="M 0.00118125 0.0008875 L 40.360556 0.0008875 L 40.360556 40.360262 L 0.00118125 40.360262 Z M 0.00118125 0.0008875 " transform="matrix(1, 0, 0, 1, 142.1121, -18.6337)"/>
<g clip-path="url(#clip-1)">
<path fill="none" stroke-width="4" stroke-linecap="butt" stroke-linejoin="miter" stroke="rgb(0%, 0%, 0%)" stroke-opacity="1" stroke-miterlimit="4" d="M 0.00118125 0.0008875 L 40.360556 0.0008875 L 40.360556 40.360262 L 0.00118125 40.360262 Z M 0.00118125 0.0008875 " transform="matrix(1, 0, 0, 1, 182.1121, -18.6337)"/>
</g>
<path fill="none" stroke-width="4" stroke-linecap="butt" stroke-linejoin="miter" stroke="rgb(0%, 0%, 0%)" stroke-opacity="1" stroke-miterlimit="4" d="M 0.00118125 0.0008875 L 40.360556 0.0008875 L 40.360556 40.360262 L 0.00118125 40.360262 Z M 0.00118125 0.0008875 " transform="matrix(1, 0, 0, 1, -17.8879, 21.3663)"/>
<path fill="none" stroke-width="4" stroke-linecap="butt" stroke-linejoin="miter" stroke="rgb(0%, 0%, 0%)" stroke-opacity="1" stroke-miterlimit="4" d="M 0.00118125 0.0008875 L 40.360556 0.0008875 L 40.360556 40.360262 L 0.00118125 40.360262 Z M 0.00118125 0.0008875 " transform="matrix(1, 0, 0, 1, 22.1121, 21.3663)"/>
<path fill="none" stroke-width="4" stroke-linecap="butt" stroke-linejoin="miter" stroke="rgb(0%, 0%, 0%)" stroke-opacity="1" stroke-miterlimit="4" d="M 0.00118125 0.0008875 L 40.360556 0.0008875 L 40.360556 40.360262 L 0.00118125 40.360262 Z M 0.00118125 0.0008875 " transform="matrix(1, 0, 0, 1, 62.1121, 21.3663)"/>
<path fill="none" stroke-width="4" stroke-linecap="butt" stroke-linejoin="miter" stroke="rgb(0%, 0%, 0%)" stroke-opacity="1" stroke-miterlimit="4" d="M 0.00118125 0.0008875 L 40.360556 0.0008875 L 40.360556 40.360262 L 0.00118125 40.360262 Z M 0.00118125 0.0008875 " transform="matrix(1, 0, 0, 1, 102.1121, 21.3663)"/>
<path fill="none" stroke-width="4" stroke-linecap="butt" stroke-linejoin="miter" stroke="rgb(0%, 0%, 0%)" stroke-opacity="1" stroke-miterlimit="4" d="M 0.00118125 0.0008875 L 40.360556 0.0008875 L 40.360556 40.360262 L 0.00118125 40.360262 Z M 0.00118125 0.0008875 " transform="matrix(1, 0, 0, 1, 142.1121, 21.3663)"/>
<g clip-path="url(#clip-2)">
<path fill="none" stroke-width="4" stroke-linecap="butt" stroke-linejoin="miter" stroke="rgb(0%, 0%, 0%)" stroke-opacity="1" stroke-miterlimit="4" d="M 0.00118125 0.0008875 L 40.360556 0.0008875 L 40.360556 40.360262 L 0.00118125 40.360262 Z M 0.00118125 0.0008875 " transform="matrix(1, 0, 0, 1, 182.1121, 21.3663)"/>
</g>
<path fill="none" stroke-width="4" stroke-linecap="butt" stroke-linejoin="miter" stroke="rgb(0%, 0%, 0%)" stroke-opacity="1" stroke-miterlimit="4" d="M 0.00118125 0.0008875 L 40.360556 0.0008875 L 40.360556 40.360262 L 0.00118125 40.360262 Z M 0.00118125 0.0008875 " transform="matrix(1, 0, 0, 1, -17.8879, 61.3663)"/>
<path fill="none" stroke-width="4" stroke-linecap="butt" stroke-linejoin="miter" stroke="rgb(0%, 0%, 0%)" stroke-opacity="1" stroke-miterlimit="4" d="M 0.00118125 0.0008875 L 40.360556 0.0008875 L 40.360556 40.360262 L 0.00118125 40.360262 Z M 0.00118125 0.0008875 " transform="matrix(1, 0, 0, 1, 22.1121, 61.3663)"/>
<path fill="none" stroke-width="4" stroke-linecap="butt" stroke-linejoin="miter" stroke="rgb(0%, 0%, 0%)" stroke-opacity="1" stroke-miterlimit="4" d="M 0.00118125 0.0008875 L 40.360556 0.0008875 L 40.360556 40.360262 L 0.00118125 40.360262 Z M 0.00118125 0.0008875 " transform="matrix(1, 0, 0, 1, 62.1121, 61.3663)"/>
<path fill="none" stroke-width="4" stroke-linecap="butt" stroke-linejoin="miter" stroke="rgb(0%, 0%, 0%)" stroke-opacity="1" stroke-miterlimit="4" d="M 0.00118125 0.0008875 L 40.360556 0.0008875 L 40.360556 40.360262 L 0.00118125 40.360262 Z M 0.00118125 0.0008875 " transform="matrix(1, 0, 0, 1, 102.1121, 61.3663)"/>
<path fill="none" stroke-width="4" stroke-linecap="butt" stroke-linejoin="miter" stroke="rgb(0%, 0%, 0%)" stroke-opacity="1" stroke-miterlimit="4" d="M 0.00118125 0.0008875 L 40.360556 0.0008875 L 40.360556 40.360262 L 0.00118125 40.360262 Z M 0.00118125 0.0008875 " transform="matrix(1, 0, 0, 1, 142.1121, 61.3663)"/>
<g clip-path="url(#clip-3)">
<path fill="none" stroke-width="4" stroke-linecap="butt" stroke-linejoin="miter" stroke="rgb(0%, 0%, 0%)" stroke-opacity="1" stroke-miterlimit="4" d="M 0.00118125 0.0008875 L 40.360556 0.0008875 L 40.360556 40.360262 L 0.00118125 40.360262 Z M 0.00118125 0.0008875 " transform="matrix(1, 0, 0, 1, 182.1121, 61.3663)"/>
</g>
<path fill="none" stroke-width="4" stroke-linecap="butt" stroke-linejoin="miter" stroke="rgb(0%, 0%, 0%)" stroke-opacity="1" stroke-miterlimit="4" d="M 0.00118125 0.0008875 L 40.360556 0.0008875 L 40.360556 40.360262 L 0.00118125 40.360262 Z M 0.00118125 0.0008875 " transform="matrix(1, 0, 0, 1, -17.8879, 101.3663)"/>
<path fill="none" stroke-width="4" stroke-linecap="butt" stroke-linejoin="miter" stroke="rgb(0%, 0%, 0%)" stroke-opacity="1" stroke-miterlimit="4" d="M 0.00118125 0.0008875 L 40.360556 0.0008875 L 40.360556 40.360262 L 0.00118125 40.360262 Z M 0.00118125 0.0008875 " transform="matrix(1, 0, 0, 1, 22.1121, 101.3663)"/>
<path fill="none" stroke-width="4" stroke-linecap="butt" stroke-linejoin="miter" stroke="rgb(0%, 0%, 0%)" stroke-opacity="1" stroke-miterlimit="4" d="M 0.00118125 0.0008875 L 40.360556 0.0008875 L 40.360556 40.360262 L 0.00118125 40.360262 Z M 0.00118125 0.0008875 " transform="matrix(1, 0, 0, 1, 62.1121, 101.3663)"/>
<path fill="none" stroke-width="4" stroke-linecap="butt" stroke-linejoin="miter" stroke="rgb(0%, 0%, 0%)" stroke-opacity="1" stroke-miterlimit="4" d="M 0.00118125 0.0008875 L 40.360556 0.0008875 L 40.360556 40.360262 L 0.00118125 40.360262 Z M 0.00118125 0.0008875 " transform="matrix(1, 0, 0, 1, 102.1121, 101.3663)"/>
<path fill="none" stroke-width="4" stroke-linecap="butt" stroke-linejoin="miter" stroke="rgb(0%, 0%, 0%)" stroke-opacity="1" stroke-miterlimit="4" d="M 0.00118125 0.0008875 L 40.360556 0.0008875 L 40.360556 40.360262 L 0.00118125 40.360262 Z M 0.00118125 0.0008875 " transform="matrix(1, 0, 0, 1, 142.1121, 101.3663)"/>
<g clip-path="url(#clip-4)">
<path fill="none" stroke-width="4" stroke-linecap="butt" stroke-linejoin="miter" stroke="rgb(0%, 0%, 0%)" stroke-opacity="1" stroke-miterlimit="4" d="M 0.00118125 0.0008875 L 40.360556 0.0008875 L 40.360556 40.360262 L 0.00118125 40.360262 Z M 0.00118125 0.0008875 " transform="matrix(1, 0, 0, 1, 182.1121, 101.3663)"/>
</g>
<g clip-path="url(#clip-5)">
<path fill="none" stroke-width="4" stroke-linecap="butt" stroke-linejoin="miter" stroke="rgb(0%, 0%, 0%)" stroke-opacity="1" stroke-miterlimit="4" d="M 0.00118125 0.0008875 L 40.360556 0.0008875 L 40.360556 40.360262 L 0.00118125 40.360262 Z M 0.00118125 0.0008875 " transform="matrix(1, 0, 0, 1, -17.8879, 141.3663)"/>
</g>
<g clip-path="url(#clip-6)">
<path fill="none" stroke-width="4" stroke-linecap="butt" stroke-linejoin="miter" stroke="rgb(0%, 0%, 0%)" stroke-opacity="1" stroke-miterlimit="4" d="M 0.00118125 0.0008875 L 40.360556 0.0008875 L 40.360556 40.360262 L 0.00118125 40.360262 Z M 0.00118125 0.0008875 " transform="matrix(1, 0, 0, 1, 22.1121, 141.3663)"/>
</g>
<g clip-path="url(#clip-7)">
<path fill="none" stroke-width="4" stroke-linecap="butt" stroke-linejoin="miter" stroke="rgb(0%, 0%, 0%)" stroke-opacity="1" stroke-miterlimit="4" d="M 0.00118125 0.0008875 L 40.360556 0.0008875 L 40.360556 40.360262 L 0.00118125 40.360262 Z M 0.00118125 0.0008875 " transform="matrix(1, 0, 0, 1, 62.1121, 141.3663)"/>
</g>
<g clip-path="url(#clip-8)">
<path fill="none" stroke-width="4" stroke-linecap="butt" stroke-linejoin="miter" stroke="rgb(0%, 0%, 0%)" stroke-opacity="1" stroke-miterlimit="4" d="M 0.00118125 0.0008875 L 40.360556 0.0008875 L 40.360556 40.360262 L 0.00118125 40.360262 Z M 0.00118125 0.0008875 " transform="matrix(1, 0, 0, 1, 102.1121, 141.3663)"/>
</g>
<g clip-path="url(#clip-9)">
<path fill="none" stroke-width="4" stroke-linecap="butt" stroke-linejoin="miter" stroke="rgb(0%, 0%, 0%)" stroke-opacity="1" stroke-miterlimit="4" d="M 0.00118125 0.0008875 L 40.360556 0.0008875 L 40.360556 40.360262 L 0.00118125 40.360262 Z M 0.00118125 0.0008875 " transform="matrix(1, 0, 0, 1, 142.1121, 141.3663)"/>
</g>
<g clip-path="url(#clip-10)">
<path fill="none" stroke-width="4" stroke-linecap="butt" stroke-linejoin="miter" stroke="rgb(0%, 0%, 0%)" stroke-opacity="1" stroke-miterlimit="4" d="M 0.00118125 0.0008875 L 40.360556 0.0008875 L 40.360556 40.360262 L 0.00118125 40.360262 Z M 0.00118125 0.0008875 " transform="matrix(1, 0, 0, 1, 182.1121, 141.3663)"/>
</g>
</svg>
