<?xml version="1.0" encoding="UTF-8"?>
<svg xmlns="http://www.w3.org/2000/svg" xmlns:xlink="http://www.w3.org/1999/xlink" width="250.3739pt" height="205.1434pt" viewBox="0 0 250.3739 205.1434">
<defs>
<clipPath id="clip-0">
<path clip-rule="nonzero" d="M 43 147 L 103 147 L 103 205.144531 L 43 205.144531 Z M 43 147 "/>
</clipPath>
<clipPath id="clip-1">
<path clip-rule="nonzero" d="M 93 147 L 153 147 L 153 205.144531 L 93 205.144531 Z M 93 147 "/>
</clipPath>
<clipPath id="clip-2">
<path clip-rule="nonzero" d="M 0 147 L 53 147 L 53 205.144531 L 0 205.144531 Z M 0 147 "/>
</clipPath>
<clipPath id="clip-3">
<path clip-rule="nonzero" d="M 193 147 L 250.375 147 L 250.375 205.144531 L 193 205.144531 Z M 193 147 "/>
</clipPath>
<clipPath id="clip-4">
<path clip-rule="nonzero" d="M 193 47 L 250.375 47 L 250.375 106 L 193 106 Z M 193 47 "/>
</clipPath>
<clipPath id="clip-5">
<path clip-rule="nonzero" d="M 143 147 L 203 147 L 203 205.144531 L 143 205.144531 Z M 143 147 "/>
</clipPath>
<clipPath id="clip-6">
<path clip-rule="nonzero" d="M 193 97 L 250.375 97 L 250.375 156 L 193 156 Z M 193 97 "/>
</clipPath>
<clipPath id="clip-7">
<path clip-rule="nonzero" d="M 193 0 L 250.375 0 L 250.375 56 L 193 56 Z M 193 0 "/>
</clipPath>
<clipPath id="clip-8">
<path clip-rule="nonzero" d="M 225 29 L 250.375 29 L 250.375 74 L 225 74 Z M 225 29 "/>
</clipPath>
<clipPath id="clip-9">
<path clip-rule="nonzero" d="M 0 179 L 21 179 L 21 205.144531 L 0 205.144531 Z M 0 179 "/>
</clipPath>
<clipPath id="clip-10">
<path clip-rule="nonzero" d="M 225 129 L 250.375 129 L 250.375 174 L 225 174 Z M 225 129 "/>
</clipPath>
<clipPath id="clip-11">
<path clip-rule="nonzero" d="M 75 179 L 121 179 L 121 205.144531 L 75 205.144531 Z M 75 179 "/>
</clipPath>
<clipPath id="clip-12">
<path clip-rule="nonzero" d="M 175 179 L 221 179 L 221 205.144531 L 175 205.144531 Z M 175 179 "/>
</clipPath>
</defs>
<rect x="-25.03739" y="-20.51434" width="300.44868" height="246.17208" fill="rgb(100%, 100%, 100%)" fill-opacity="1"/>
<g clip-path="url(#clip-0)">
<path fill="none" stroke-width="4" stroke-linecap="butt" stroke-linejoin="miter" stroke="rgb(100%, 14.901733%, 0%)" stroke-opacity="1" stroke-miterlimit="4" d="M 0.000185616 0.00214784 L 18.476112 -0.000614299 " transform="matrix(0.707107, 0.707107, -0.707107, 0.707107, 66.5092, 169.9671)"/>
</g>
<path fill="none" stroke-width="4" stroke-linecap="butt" stroke-linejoin="miter" stroke="rgb(100%, 14.901733%, 0%)" stroke-opacity="1" stroke-miterlimit="4" d="M -0.000309359 -0.00165286 L 18.475617 0.00110927 " transform="matrix(0.707107, -0.707107, 0.707107, 0.707107, 66.5092, 33.0322)"/>
<path fill="none" stroke-width="4" stroke-linecap="butt" stroke-linejoin="miter" stroke="rgb(100%, 14.901733%, 0%)" stroke-opacity="1" stroke-miterlimit="4" d="M -0.000309359 -0.00165286 L 18.475617 0.00110927 " transform="matrix(0.707107, -0.707107, 0.707107, 0.707107, 166.5092, 33.0322)"/>
<path fill="none" stroke-width="4" stroke-linecap="butt" stroke-linejoin="miter" stroke="rgb(100%, 14.901733%, 0%)" stroke-opacity="1" stroke-miterlimit="4" d="M -0.000309359 -0.00165286 L 18.475617 0.00110927 " transform="matrix(0.707107, -0.707107, 0.707107, 0.707107, 66.5092, 133.0322)"/>
<path fill="none" stroke-width="4" stroke-linecap="butt" stroke-linejoin="miter" stroke="rgb(100%, 14.901733%, 0%)" stroke-opacity="1" stroke-miterlimit="4" d="M -0.000309359 -0.00165286 L 18.475617 0.00110927 " transform="matrix(0.707107, -0.707107, 0.707107, 0.707107, 166.5092, 133.0322)"/>
<g clip-path="url(#clip-1)">
<path fill="none" stroke-width="4" stroke-linecap="butt" stroke-linejoin="miter" stroke="rgb(100%, 14.901733%, 0%)" stroke-opacity="1" stroke-miterlimit="4" d="M -0.000309359 -0.00165286 L 18.475617 0.00110927 " transform="matrix(0.707107, -0.707107, 0.707107, 0.707107, 116.5092, 183.0322)"/>
</g>
<g clip-path="url(#clip-2)">
<path fill="none" stroke-width="4" stroke-linecap="butt" stroke-linejoin="miter" stroke="rgb(100%, 14.901733%, 0%)" stroke-opacity="1" stroke-miterlimit="4" d="M -0.000309359 -0.00165286 L 18.475617 0.00110927 " transform="matrix(0.707107, -0.707107, 0.707107, 0.707107, 16.5092, 183.0322)"/>
</g>
<path fill="none" stroke-width="4" stroke-linecap="butt" stroke-linejoin="miter" stroke="rgb(100%, 14.901733%, 0%)" stroke-opacity="1" stroke-miterlimit="4" d="M -0.000309359 -0.00165286 L 18.475617 0.00110927 " transform="matrix(0.707107, -0.707107, 0.707107, 0.707107, 16.5092, 83.0322)"/>
<g clip-path="url(#clip-3)">
<path fill="none" stroke-width="4" stroke-linecap="butt" stroke-linejoin="miter" stroke="rgb(100%, 14.901733%, 0%)" stroke-opacity="1" stroke-miterlimit="4" d="M -0.000309359 -0.00165286 L 18.475617 0.00110927 " transform="matrix(0.707107, -0.707107, 0.707107, 0.707107, 216.5092, 183.0322)"/>
</g>
<g clip-path="url(#clip-4)">
<path fill="none" stroke-width="4" stroke-linecap="butt" stroke-linejoin="miter" stroke="rgb(100%, 14.901733%, 0%)" stroke-opacity="1" stroke-miterlimit="4" d="M -0.000309359 -0.00165286 L 18.475617 0.00110927 " transform="matrix(0.707107, -0.707107, 0.707107, 0.707107, 216.5092, 83.0322)"/>
</g>
<path fill="none" stroke-width="4" stroke-linecap="butt" stroke-linejoin="miter" stroke="rgb(100%, 14.901733%, 0%)" stroke-opacity="1" stroke-miterlimit="4" d="M 0.000185616 0.00214784 L 18.476112 -0.000614299 " transform="matrix(0.707107, 0.707107, -0.707107, 0.707107, 166.5092, 69.9671)"/>
<path fill="none" stroke-width="4" stroke-linecap="butt" stroke-linejoin="miter" stroke="rgb(100%, 14.901733%, 0%)" stroke-opacity="1" stroke-miterlimit="4" d="M 0.000185616 0.00214784 L 18.476112 -0.000614299 " transform="matrix(0.707107, 0.707107, -0.707107, 0.707107, 66.5092, 69.9671)"/>
<path fill="none" stroke-width="4" stroke-linecap="butt" stroke-linejoin="miter" stroke="rgb(100%, 14.901733%, 0%)" stroke-opacity="1" stroke-miterlimit="4" d="M 0.000185616 0.00214784 L 18.476112 -0.000614299 " transform="matrix(0.707107, 0.707107, -0.707107, 0.707107, 116.5092, 19.9671)"/>
<path fill="none" stroke-width="4" stroke-linecap="butt" stroke-linejoin="miter" stroke="rgb(100%, 14.901733%, 0%)" stroke-opacity="1" stroke-miterlimit="4" d="M 0.000185616 0.00214784 L 18.476112 -0.000614299 " transform="matrix(0.707107, 0.707107, -0.707107, 0.707107, 116.5092, 119.9671)"/>
<path fill="none" stroke-width="4" stroke-linecap="butt" stroke-linejoin="miter" stroke="rgb(100%, 14.901733%, 0%)" stroke-opacity="1" stroke-miterlimit="4" d="M 0.000185616 0.00214784 L 18.476112 -0.000614299 " transform="matrix(0.707107, 0.707107, -0.707107, 0.707107, 16.5092, 119.9671)"/>
<path fill="none" stroke-width="4" stroke-linecap="butt" stroke-linejoin="miter" stroke="rgb(100%, 14.901733%, 0%)" stroke-opacity="1" stroke-miterlimit="4" d="M 0.000185616 0.00214784 L 18.476112 -0.000614299 " transform="matrix(0.707107, 0.707107, -0.707107, 0.707107, 16.5092, 19.9671)"/>
<g clip-path="url(#clip-5)">
<path fill="none" stroke-width="4" stroke-linecap="butt" stroke-linejoin="miter" stroke="rgb(100%, 14.901733%, 0%)" stroke-opacity="1" stroke-miterlimit="4" d="M 0.000185616 0.00214784 L 18.476112 -0.000614299 " transform="matrix(0.707107, 0.707107, -0.707107, 0.707107, 166.5092, 169.9671)"/>
</g>
<g clip-path="url(#clip-6)">
<path fill="none" stroke-width="4" stroke-linecap="butt" stroke-linejoin="miter" stroke="rgb(100%, 14.901733%, 0%)" stroke-opacity="1" stroke-miterlimit="4" d="M 0.000185616 0.00214784 L 18.476112 -0.000614299 " transform="matrix(0.707107, 0.707107, -0.707107, 0.707107, 216.5092, 119.9671)"/>
</g>
<g clip-path="url(#clip-7)">
<path fill="none" stroke-width="4" stroke-linecap="butt" stroke-linejoin="miter" stroke="rgb(100%, 14.901733%, 0%)" stroke-opacity="1" stroke-miterlimit="4" d="M 0.000185616 0.00214784 L 18.476112 -0.000614299 " transform="matrix(0.707107, 0.707107, -0.707107, 0.707107, 216.5092, 19.9671)"/>
</g>
<path fill="none" stroke-width="4" stroke-linecap="butt" stroke-linejoin="miter" stroke="rgb(100%, 14.901733%, 0%)" stroke-opacity="1" stroke-miterlimit="4" d="M -0.000309359 -0.00165286 L 18.475617 0.00110927 " transform="matrix(0.707107, -0.707107, 0.707107, 0.707107, 116.5092, 83.0322)"/>
<path fill="none" stroke-width="4" stroke-linecap="butt" stroke-linejoin="miter" stroke="rgb(0%, 0%, 0%)" stroke-opacity="1" stroke-miterlimit="4" d="M 0.0018125 0.00071875 L 40.361188 0.00071875 L 40.361188 40.360094 L 0.0018125 40.360094 Z M 0.0018125 0.00071875 " transform="matrix(1, 0, 0, 1, -22.0565, -18.614)"/>
<path fill="none" stroke-width="4" stroke-linecap="butt" stroke-linejoin="miter" stroke="rgb(0%, 0%, 0%)" stroke-opacity="1" stroke-miterlimit="4" d="M 0.0018125 0.00071875 L 40.361188 0.00071875 L 40.361188 40.360094 L 0.0018125 40.360094 Z M 0.0018125 0.00071875 " transform="matrix(1, 0, 0, 1, 77.9435, -18.614)"/>
<path fill="none" stroke-width="4" stroke-linecap="butt" stroke-linejoin="miter" stroke="rgb(0%, 0%, 0%)" stroke-opacity="1" stroke-miterlimit="4" d="M 0.0018125 0.00071875 L 40.361188 0.00071875 L 40.361188 40.360094 L 0.0018125 40.360094 Z M 0.0018125 0.00071875 " transform="matrix(1, 0, 0, 1, 177.9435, -18.614)"/>
<path fill="none" stroke-width="4" stroke-linecap="butt" stroke-linejoin="miter" stroke="rgb(0%, 0%, 0%)" stroke-opacity="1" stroke-miterlimit="4" d="M 0.0018125 0.00071875 L 40.361188 0.00071875 L 40.361188 40.360094 L 0.0018125 40.360094 Z M 0.0018125 0.00071875 " transform="matrix(1, 0, 0, 1, 27.9435, 31.386)"/>
<path fill="none" stroke-width="4" stroke-linecap="butt" stroke-linejoin="miter" stroke="rgb(0%, 0%, 0%)" stroke-opacity="1" stroke-miterlimit="4" d="M 0.0018125 0.00071875 L 40.361188 0.00071875 L 40.361188 40.360094 L 0.0018125 40.360094 Z M 0.0018125 0.00071875 " transform="matrix(1, 0, 0, 1, 127.9435, 31.386)"/>
<g clip-path="url(#clip-8)">
<path fill="none" stroke-width="4" stroke-linecap="butt" stroke-linejoin="miter" stroke="rgb(0%, 0%, 0%)" stroke-opacity="1" stroke-miterlimit="4" d="M 0.0018125 0.00071875 L 40.361188 0.00071875 L 40.361188 40.360094 L 0.0018125 40.360094 Z M 0.0018125 0.00071875 " transform="matrix(1, 0, 0, 1, 227.9435, 31.386)"/>
</g>
<path fill="none" stroke-width="4" stroke-linecap="butt" stroke-linejoin="miter" stroke="rgb(0%, 0%, 0%)" stroke-opacity="1" stroke-miterlimit="4" d="M 0.0018125 0.00071875 L 40.361188 0.00071875 L 40.361188 40.360094 L 0.0018125 40.360094 Z M 0.0018125 0.00071875 " transform="matrix(1, 0, 0, 1, -22.0565, 81.386)"/>
<path fill="none" stroke-width="4" stroke-linecap="butt" stroke-linejoin="miter" stroke="rgb(0%, 0%, 0%)" stroke-opacity="1" stroke-miterlimit="4" d="M 0.0018125 0.00071875 L 40.361188 0.00071875 L 40.361188 40.360094 L 0.0018125 40.360094 Z M 0.0018125 0.00071875 " transform="matrix(1, 0, 0, 1, 77.9435, 81.386)"/>
<path fill="none" stroke-width="4" stroke-linecap="butt" stroke-linejoin="miter" stroke="rgb(0%, 0%, 0%)" stroke-opacity="1" stroke-miterlimit="4" d="M 0.0018125 0.00071875 L 40.361188 0.00071875 L 40.361188 40.360094 L 0.0018125 40.360094 Z M 0.0018125 0.00071875 " transform="matrix(1, 0, 0, 1, 177.9435, 81.386)"/>
<path fill="none" stroke-width="4" stroke-linecap="butt" stroke-linejoin="miter" stroke="rgb(0%, 0%, 0%)" stroke-opacity="1" stroke-miterlimit="4" d="M 0.0018125 0.00071875 L 40.361188 0.00071875 L 40.361188 40.360094 L 0.0018125 40.360094 Z M 0.0018125 0.00071875 " transform="matrix(1, 0, 0, 1, 27.9435, 131.386)"/>
<g clip-path="url(#clip-9)">
<path fill="none" stroke-width="4" stroke-linecap="butt" stroke-linejoin="miter" stroke="rgb(0%, 0%, 0%)" stroke-opacity="1" stroke-miterlimit="4" d="M 0.0018125 0.00071875 L 40.361188 0.00071875 L 40.361188 40.360094 L 0.0018125 40.360094 Z M 0.0018125 0.00071875 " transform="matrix(1, 0, 0, 1, -22.0565, 181.386)"/>
</g>
<path fill="none" stroke-width="4" stroke-linecap="butt" stroke-linejoin="miter" stroke="rgb(0%, 0%, 0%)" stroke-opacity="1" stroke-miterlimit="4" d="M 0.0018125 0.00081875 L 40.361188 0.00081875 L 40.361188 40.360194 L 0.0018125 40.360194 Z M 0.0018125 0.00081875 " transform="matrix(1, 0, 0, 1, 127.9435, 131.3859)"/>
<g clip-path="url(#clip-10)">
<path fill="none" stroke-width="4" stroke-linecap="butt" stroke-linejoin="miter" stroke="rgb(0%, 0%, 0%)" stroke-opacity="1" stroke-miterlimit="4" d="M 0.0018125 0.00081875 L 40.361188 0.00081875 L 40.361188 40.360194 L 0.0018125 40.360194 Z M 0.0018125 0.00081875 " transform="matrix(1, 0, 0, 1, 227.9435, 131.3859)"/>
</g>
<g clip-path="url(#clip-11)">
<path fill="none" stroke-width="4" stroke-linecap="butt" stroke-linejoin="miter" stroke="rgb(0%, 0%, 0%)" stroke-opacity="1" stroke-miterlimit="4" d="M 0.0018125 0.00081875 L 40.361188 0.00081875 L 40.361188 40.360194 L 0.0018125 40.360194 Z M 0.0018125 0.00081875 " transform="matrix(1, 0, 0, 1, 77.9435, 181.3859)"/>
</g>
<g clip-path="url(#clip-12)">
<path fill="none" stroke-width="4" stroke-linecap="butt" stroke-linejoin="miter" stroke="rgb(0%, 0%, 0%)" stroke-opacity="1" stroke-miterlimit="4" d="M 0.0018125 0.00081875 L 40.361188 0.00081875 L 40.361188 40.360194 L 0.0018125 40.360194 Z M 0.0018125 0.00081875 " transform="matrix(1, 0, 0, 1, 177.9435, 181.3859)"/>
</g>
</svg>
