<?xml version="1.0" encoding="UTF-8"?>
<svg xmlns="http://www.w3.org/2000/svg" xmlns:xlink="http://www.w3.org/1999/xlink" width="52.0428pt" height="50.5018pt" viewBox="0 0 52.0428 50.5018">
<defs>
<clipPath id="clip-0">
<path clip-rule="nonzero" d="M 0 0 L 52.042969 0 L 52.042969 50.5 L 0 50.5 Z M 0 0 "/>
</clipPath>
<clipPath id="clip-1">
<path clip-rule="nonzero" d="M 0.757812 3.382812 L 51.089844 3.382812 L 51.089844 50.054688 L 0.757812 50.054688 Z M 0.757812 3.382812 "/>
</clipPath>
<clipPath id="clip-2">
<path clip-rule="nonzero" d="M 26 21 L 47 21 L 47 44 L 26 44 Z M 26 21 "/>
</clipPath>
<clipPath id="clip-3">
<path clip-rule="nonzero" d="M 32.539062 21.785156 L 26.667969 37.914062 L 40.949219 43.113281 L 46.820312 26.984375 Z M 32.539062 21.785156 "/>
</clipPath>
<clipPath id="clip-4">
<path clip-rule="nonzero" d="M 32 24 L 45 24 L 45 40 L 32 40 Z M 32 24 "/>
</clipPath>
<clipPath id="clip-5">
<path clip-rule="nonzero" d="M 32.539062 21.785156 L 26.667969 37.914062 L 40.949219 43.113281 L 46.820312 26.984375 Z M 32.539062 21.785156 "/>
</clipPath>
<clipPath id="clip-6">
<path clip-rule="nonzero" d="M 3 20 L 24 20 L 24 43 L 3 43 Z M 3 20 "/>
</clipPath>
<clipPath id="clip-7">
<path clip-rule="nonzero" d="M 23.664062 36.898438 L 17.511719 20.875 L 3.324219 26.320312 L 9.472656 42.347656 Z M 23.664062 36.898438 "/>
</clipPath>
<clipPath id="clip-8">
<path clip-rule="nonzero" d="M 9 24 L 22 24 L 22 40 L 9 40 Z M 9 24 "/>
</clipPath>
<clipPath id="clip-9">
<path clip-rule="nonzero" d="M 23.664062 36.898438 L 17.511719 20.875 L 3.324219 26.320312 L 9.472656 42.347656 Z M 23.664062 36.898438 "/>
</clipPath>
</defs>
<g clip-path="url(#clip-0)">
<rect x="-5.20428" y="-5.05018" width="62.45136" height="60.60216" fill="rgb(100%, 100%, 100%)" fill-opacity="1"/>
</g>
<g clip-path="url(#clip-1)">
<path fill="none" stroke-width="4" stroke-linecap="butt" stroke-linejoin="miter" stroke="rgb(0%, 0%, 0%)" stroke-opacity="1" stroke-miterlimit="4" d="M 2.062488 29.653256 L 2.406238 27.6806 C 6.269519 9.973569 12.050769 -0.420962 18.207019 0.0126313 C 24.089831 0.426694 29.550769 10.719663 33.242175 27.6806 L 33.585925 29.64935 " transform="matrix(1, 0, 0, -1, 7.5547, 47.0556)"/>
</g>
<path fill-rule="nonzero" fill="rgb(0%, 0%, 0%)" fill-opacity="1" d="M 33.898438 18.175781 L 47.691406 20.574219 L 50.089844 6.78125 L 36.296875 4.382812 Z M 33.898438 18.175781 "/>
<path fill-rule="nonzero" fill="rgb(0%, 0%, 0%)" fill-opacity="1" d="M 15.652344 11.273438 C 14.988281 7.464844 11.363281 4.917969 7.554688 5.582031 C 3.746094 6.246094 1.199219 9.871094 1.863281 13.679688 C 2.527344 17.488281 6.152344 20.039062 9.960938 19.375 C 13.769531 18.707031 16.316406 15.082031 15.652344 11.273438 Z M 15.652344 11.273438 "/>
<g clip-path="url(#clip-2)">
<g clip-path="url(#clip-3)">
<path fill="none" stroke-width="3" stroke-linecap="butt" stroke-linejoin="miter" stroke="rgb(0%, 0%, 0%)" stroke-opacity="1" stroke-miterlimit="4" d="M -0.0003279 -0.00167571 L 1.965696 -0.0010961 L 3.465827 0.000347363 " transform="matrix(-0.34202, 0.939693, 0.939693, 0.34202, 39.3374, 25.3251)"/>
</g>
</g>
<g clip-path="url(#clip-4)">
<g clip-path="url(#clip-5)">
<path fill-rule="nonzero" fill="rgb(0%, 0%, 0%)" fill-opacity="1" d="M 44.867188 29.429688 L 34.152344 39.574219 L 32.464844 24.914062 Z M 44.867188 29.429688 "/>
</g>
</g>
<g clip-path="url(#clip-6)">
<g clip-path="url(#clip-7)">
<path fill="none" stroke-width="3" stroke-linecap="butt" stroke-linejoin="miter" stroke="rgb(0%, 0%, 0%)" stroke-opacity="1" stroke-miterlimit="4" d="M 0.00162364 -0.000234966 L 1.96395 -0.000352439 L 3.466333 0.000350761 " transform="matrix(-0.358368, -0.93358, -0.93358, 0.358368, 16.2113, 38.6891)"/>
</g>
</g>
<g clip-path="url(#clip-8)">
<g clip-path="url(#clip-9)">
<path fill-rule="nonzero" fill="rgb(0%, 0%, 0%)" fill-opacity="1" d="M 9.34375 39.21875 L 10.777344 24.53125 L 21.667969 34.488281 Z M 9.34375 39.21875 "/>
</g>
</g>
</svg>
