<?xml version="1.0" encoding="UTF-8"?>
<svg xmlns="http://www.w3.org/2000/svg" xmlns:xlink="http://www.w3.org/1999/xlink" width="24.1896pt" height="22.3044pt" viewBox="0 0 24.1896 22.3044">
<defs>
<clipPath id="clip-0">
<path clip-rule="nonzero" d="M 10 9 L 12 9 L 12 22.304688 L 10 22.304688 Z M 10 9 "/>
</clipPath>
<clipPath id="clip-1">
<path clip-rule="nonzero" d="M 0 4.914062 L 7.378906 4.914062 L 7.378906 8.445312 L 0 8.445312 Z M 0 4.914062 "/>
</clipPath>
<clipPath id="clip-2">
<path clip-rule="nonzero" d="M 0 0.914062 L 3 0.914062 L 3 4 L 0 4 Z M 0 0.914062 "/>
</clipPath>
<clipPath id="clip-3">
<path clip-rule="nonzero" d="M 3 1 L 5 1 L 5 4.445312 L 3 4.445312 Z M 3 1 "/>
</clipPath>
<clipPath id="clip-4">
<rect x="0" y="0" width="8" height="5"/>
</clipPath>
<g id="source-5" clip-path="url(#clip-4)">
<g clip-path="url(#clip-2)">
<path fill-rule="nonzero" fill="rgb(0%, 0%, 0%)" fill-opacity="1" d="M 1.269531 2.128906 C 1.433594 2.128906 1.859375 2.117188 2.148438 1.996094 C 2.550781 1.824219 2.578125 1.484375 2.578125 1.402344 C 2.578125 1.148438 2.359375 0.914062 1.964844 0.914062 C 1.324219 0.914062 0.457031 1.472656 0.457031 2.480469 C 0.457031 3.066406 0.796875 3.519531 1.359375 3.519531 C 2.183594 3.519531 2.664062 2.910156 2.664062 2.839844 C 2.664062 2.808594 2.632812 2.765625 2.597656 2.765625 C 2.566406 2.765625 2.554688 2.777344 2.523438 2.824219 C 2.066406 3.394531 1.441406 3.394531 1.371094 3.394531 C 0.921875 3.394531 0.871094 2.910156 0.871094 2.726562 C 0.871094 2.65625 0.875 2.480469 0.964844 2.128906 Z M 0.996094 2 C 1.222656 1.128906 1.816406 1.039062 1.964844 1.039062 C 2.234375 1.039062 2.390625 1.207031 2.390625 1.402344 C 2.390625 2 1.46875 2 1.234375 2 Z M 0.996094 2 "/>
</g>
<g clip-path="url(#clip-3)">
<path fill-rule="nonzero" fill="rgb(0%, 0%, 0%)" fill-opacity="1" d="M 4.21875 1.757812 C 4.21875 1.652344 4.210938 1.644531 4.097656 1.644531 C 3.839844 1.898438 3.476562 1.902344 3.308594 1.902344 L 3.308594 2.050781 C 3.40625 2.050781 3.671875 2.050781 3.894531 1.9375 L 3.894531 3.988281 C 3.894531 4.121094 3.894531 4.175781 3.492188 4.175781 L 3.339844 4.175781 L 3.339844 4.320312 C 3.410156 4.316406 3.90625 4.304688 4.054688 4.304688 C 4.179688 4.304688 4.6875 4.316406 4.777344 4.320312 L 4.777344 4.175781 L 4.621094 4.175781 C 4.21875 4.175781 4.21875 4.121094 4.21875 3.988281 Z M 4.21875 1.757812 "/>
</g>
</g>
<clipPath id="clip-5">
<path clip-rule="nonzero" d="M 17.433594 5.617188 L 24.191406 5.617188 L 24.191406 9.152344 L 17.433594 9.152344 Z M 17.433594 5.617188 "/>
</clipPath>
<clipPath id="clip-6">
<path clip-rule="nonzero" d="M 0.433594 0.617188 L 3 0.617188 L 3 4 L 0.433594 4 Z M 0.433594 0.617188 "/>
</clipPath>
<clipPath id="clip-7">
<path clip-rule="nonzero" d="M 3 1 L 5 1 L 5 4.152344 L 3 4.152344 Z M 3 1 "/>
</clipPath>
<clipPath id="clip-8">
<rect x="0" y="0" width="8" height="5"/>
</clipPath>
<g id="source-8" clip-path="url(#clip-8)">
<g clip-path="url(#clip-6)">
<path fill-rule="nonzero" fill="rgb(0%, 0%, 0%)" fill-opacity="1" d="M 1.59375 1.832031 C 1.746094 1.832031 2.136719 1.820312 2.398438 1.699219 C 2.769531 1.527344 2.796875 1.1875 2.796875 1.105469 C 2.796875 0.855469 2.59375 0.617188 2.230469 0.617188 C 1.648438 0.617188 0.851562 1.175781 0.851562 2.183594 C 0.851562 2.773438 1.160156 3.226562 1.679688 3.226562 C 2.433594 3.226562 2.875 2.617188 2.875 2.546875 C 2.875 2.511719 2.84375 2.472656 2.8125 2.472656 C 2.785156 2.472656 2.773438 2.484375 2.742188 2.53125 C 2.328125 3.101562 1.753906 3.101562 1.6875 3.101562 C 1.277344 3.101562 1.230469 2.617188 1.230469 2.433594 C 1.230469 2.363281 1.234375 2.183594 1.316406 1.832031 Z M 1.347656 1.707031 C 1.550781 0.832031 2.09375 0.746094 2.230469 0.746094 C 2.480469 0.746094 2.621094 0.910156 2.621094 1.105469 C 2.621094 1.707031 1.777344 1.707031 1.5625 1.707031 Z M 1.347656 1.707031 "/>
</g>
<g clip-path="url(#clip-7)">
<path fill-rule="nonzero" fill="rgb(0%, 0%, 0%)" fill-opacity="1" d="M 4.925781 3.292969 L 4.800781 3.292969 C 4.789062 3.382812 4.75 3.621094 4.703125 3.660156 C 4.671875 3.683594 4.390625 3.683594 4.335938 3.683594 L 3.660156 3.683594 C 4.046875 3.308594 4.175781 3.195312 4.398438 3.007812 C 4.667969 2.769531 4.925781 2.519531 4.925781 2.136719 C 4.925781 1.648438 4.535156 1.351562 4.0625 1.351562 C 3.605469 1.351562 3.292969 1.703125 3.292969 2.070312 C 3.292969 2.277344 3.453125 2.296875 3.488281 2.296875 C 3.578125 2.296875 3.683594 2.230469 3.683594 2.085938 C 3.683594 2.011719 3.660156 1.871094 3.46875 1.871094 C 3.582031 1.585938 3.832031 1.496094 4.007812 1.496094 C 4.375 1.496094 4.566406 1.808594 4.566406 2.136719 C 4.566406 2.488281 4.335938 2.765625 4.21875 2.910156 L 3.332031 3.871094 C 3.292969 3.90625 3.292969 3.914062 3.292969 4.027344 L 4.8125 4.027344 Z M 4.925781 3.292969 "/>
</g>
</g>
<clipPath id="clip-9">
<path clip-rule="nonzero" d="M 1 0.507812 L 5 0.507812 L 5 3.8125 L 1 3.8125 Z M 1 0.507812 "/>
</clipPath>
<clipPath id="clip-10">
<rect x="0" y="0" width="7" height="4"/>
</clipPath>
<g id="source-11" clip-path="url(#clip-10)">
<g clip-path="url(#clip-9)">
<path fill-rule="nonzero" fill="rgb(0%, 0%, 0%)" fill-opacity="1" d="M 4.234375 1.113281 C 4.234375 0.734375 4.050781 0.625 3.925781 0.625 C 3.753906 0.625 3.585938 0.804688 3.585938 0.960938 C 3.585938 1.050781 3.621094 1.089844 3.695312 1.167969 C 3.84375 1.308594 3.933594 1.488281 3.933594 1.738281 C 3.933594 2.03125 3.507812 3.628906 2.691406 3.628906 C 2.335938 3.628906 2.175781 3.382812 2.175781 3.023438 C 2.175781 2.632812 2.363281 2.121094 2.582031 1.542969 C 2.628906 1.425781 2.664062 1.328125 2.664062 1.195312 C 2.664062 0.882812 2.441406 0.625 2.09375 0.625 C 1.4375 0.625 1.171875 1.636719 1.171875 1.699219 C 1.171875 1.765625 1.242188 1.765625 1.257812 1.765625 C 1.328125 1.765625 1.332031 1.753906 1.367188 1.640625 C 1.570312 0.9375 1.871094 0.777344 2.074219 0.777344 C 2.128906 0.777344 2.246094 0.777344 2.246094 1 C 2.246094 1.175781 2.175781 1.363281 2.128906 1.488281 C 1.820312 2.296875 1.730469 2.617188 1.730469 2.917969 C 1.730469 3.667969 2.34375 3.78125 2.664062 3.78125 C 3.835938 3.78125 4.234375 1.476562 4.234375 1.113281 Z M 4.234375 1.113281 "/>
</g>
</g>
<clipPath id="clip-11">
<path clip-rule="nonzero" d="M 1 0.65625 L 4 0.65625 L 4 4 L 1 4 Z M 1 0.65625 "/>
</clipPath>
<clipPath id="clip-12">
<path clip-rule="nonzero" d="M 4 1 L 7 1 L 7 4.492188 L 4 4.492188 Z M 4 1 "/>
</clipPath>
<clipPath id="clip-13">
<rect x="0" y="0" width="9" height="5"/>
</clipPath>
<g id="source-14" clip-path="url(#clip-13)">
<g clip-path="url(#clip-11)">
<path fill-rule="nonzero" fill="rgb(0%, 0%, 0%)" fill-opacity="1" d="M 2.308594 2.015625 C 2.480469 2.015625 2.921875 2.003906 3.222656 1.878906 C 3.640625 1.699219 3.671875 1.347656 3.671875 1.261719 C 3.671875 1 3.445312 0.753906 3.03125 0.753906 C 2.367188 0.753906 1.464844 1.335938 1.464844 2.382812 C 1.464844 2.992188 1.816406 3.464844 2.402344 3.464844 C 3.257812 3.464844 3.761719 2.832031 3.761719 2.757812 C 3.761719 2.722656 3.726562 2.679688 3.6875 2.679688 C 3.660156 2.679688 3.648438 2.691406 3.613281 2.742188 C 3.140625 3.332031 2.488281 3.332031 2.414062 3.332031 C 1.949219 3.332031 1.894531 2.832031 1.894531 2.640625 C 1.894531 2.566406 1.902344 2.382812 1.988281 2.015625 Z M 2.027344 1.886719 C 2.257812 0.976562 2.875 0.886719 3.03125 0.886719 C 3.3125 0.886719 3.472656 1.058594 3.472656 1.261719 C 3.472656 1.886719 2.515625 1.886719 2.269531 1.886719 Z M 2.027344 1.886719 "/>
</g>
<g clip-path="url(#clip-12)">
<path fill-rule="nonzero" fill="rgb(0%, 0%, 0%)" fill-opacity="1" d="M 5.117188 2.898438 C 5.445312 2.898438 5.679688 3.125 5.679688 3.570312 C 5.679688 4.089844 5.378906 4.246094 5.132812 4.246094 C 4.96875 4.246094 4.597656 4.199219 4.421875 3.953125 C 4.621094 3.945312 4.664062 3.808594 4.664062 3.71875 C 4.664062 3.585938 4.566406 3.488281 4.433594 3.488281 C 4.316406 3.488281 4.199219 3.558594 4.199219 3.730469 C 4.199219 4.125 4.636719 4.378906 5.144531 4.378906 C 5.726562 4.378906 6.128906 3.992188 6.128906 3.570312 C 6.128906 3.246094 5.859375 2.917969 5.398438 2.824219 C 5.839844 2.664062 5.996094 2.347656 5.996094 2.09375 C 5.996094 1.761719 5.617188 1.515625 5.152344 1.515625 C 4.6875 1.515625 4.332031 1.742188 4.332031 2.078125 C 4.332031 2.21875 4.421875 2.300781 4.546875 2.300781 C 4.679688 2.300781 4.761719 2.203125 4.761719 2.085938 C 4.761719 1.964844 4.679688 1.875 4.546875 1.867188 C 4.695312 1.683594 4.984375 1.636719 5.136719 1.636719 C 5.328125 1.636719 5.589844 1.730469 5.589844 2.09375 C 5.589844 2.269531 5.53125 2.460938 5.421875 2.59375 C 5.285156 2.75 5.167969 2.761719 4.957031 2.773438 C 4.855469 2.78125 4.84375 2.78125 4.824219 2.785156 C 4.816406 2.785156 4.78125 2.792969 4.78125 2.839844 C 4.78125 2.898438 4.820312 2.898438 4.890625 2.898438 Z M 5.117188 2.898438 "/>
</g>
</g>
</defs>
<g clip-path="url(#clip-0)">
<path fill="none" stroke-width="1" stroke-linecap="butt" stroke-linejoin="round" stroke="rgb(0%, 0%, 0%)" stroke-opacity="1" stroke-miterlimit="10" d="M 11.109375 0.499713 L 11.203125 12.347369 " transform="matrix(1, 0, 0, -1, 0, 22.3044)"/>
</g>
<path fill="none" stroke-width="1" stroke-linecap="butt" stroke-linejoin="round" stroke="rgb(0%, 0%, 0%)" stroke-opacity="1" stroke-miterlimit="10" d="M 11.054688 11.820025 L 21.175781 21.726275 " transform="matrix(1, 0, 0, -1, 0, 22.3044)"/>
<path fill="none" stroke-width="1" stroke-linecap="butt" stroke-linejoin="round" stroke="rgb(0%, 0%, 0%)" stroke-opacity="1" stroke-miterlimit="10" d="M 11.390625 11.784869 L 1.289062 21.8044 " transform="matrix(1, 0, 0, -1, 0, 22.3044)"/>
<path fill-rule="evenodd" fill="rgb(0%, 0%, 0%)" fill-opacity="1" d="M 8.320312 5.347656 L 5.132812 4.3125 L 6.21875 7.484375 Z M 8.320312 5.347656 "/>
<path fill="none" stroke-width="1" stroke-linecap="butt" stroke-linejoin="round" stroke="rgb(0%, 0%, 0%)" stroke-opacity="1" stroke-miterlimit="10" d="M 6.84375 16.308306 C 6.988281 16.167681 7.082031 16.073931 7.082031 16.073931 " transform="matrix(1, 0, 0, -1, 0, 22.3044)"/>
<path fill-rule="evenodd" fill="rgb(0%, 0%, 0%)" fill-opacity="1" d="M 16.300781 7.460938 L 17.402344 4.292969 L 14.207031 5.3125 Z M 16.300781 7.460938 "/>
<path fill="none" stroke-width="1" stroke-linecap="butt" stroke-linejoin="round" stroke="rgb(0%, 0%, 0%)" stroke-opacity="1" stroke-miterlimit="10" d="M 15.683594 16.33565 C 15.550781 16.21065 15.464844 16.124713 15.453125 16.112994 " transform="matrix(1, 0, 0, -1, 0, 22.3044)"/>
<path fill-rule="evenodd" fill="rgb(0%, 0%, 0%)" fill-opacity="1" d="M 12.703125 16.089844 L 11.210938 13.085938 L 9.703125 16.085938 Z M 12.703125 16.089844 "/>
<path fill="none" stroke-width="1" stroke-linecap="butt" stroke-linejoin="round" stroke="rgb(0%, 0%, 0%)" stroke-opacity="1" stroke-miterlimit="10" d="M 11.203125 6.816119 C 11.203125 6.437213 11.203125 6.155963 11.203125 6.120806 " transform="matrix(1, 0, 0, -1, 0, 22.3044)"/>
<g clip-path="url(#clip-1)">
<use xlink:href="#source-5" transform="matrix(1, 0, 0, 1, 0, 4)"/>
</g>
<g clip-path="url(#clip-5)">
<use xlink:href="#source-8" transform="matrix(1, 0, 0, 1, 17, 5)"/>
</g>
<use xlink:href="#source-11" transform="matrix(1, 0, 0, 1, 5, 9)"/>
<use xlink:href="#source-14" transform="matrix(1, 0, 0, 1, 12, 13)"/>
</svg>
