<?xml version="1.0" encoding="UTF-8"?>
<svg xmlns="http://www.w3.org/2000/svg" xmlns:xlink="http://www.w3.org/1999/xlink" width="122.8847pt" height="152.4751pt" viewBox="0 0 122.8847 152.4751">
<defs>
<clipPath id="clip-0">
<path clip-rule="nonzero" d="M 0 0 L 122.882812 0 L 122.882812 152.476562 L 0 152.476562 Z M 0 0 "/>
</clipPath>
<clipPath id="clip-1">
<path clip-rule="nonzero" d="M 10 17 L 122.882812 17 L 122.882812 133 L 10 133 Z M 10 17 "/>
</clipPath>
<clipPath id="clip-2">
<path clip-rule="nonzero" d="M 108 65 L 122.882812 65 L 122.882812 79 L 108 79 Z M 108 65 "/>
</clipPath>
</defs>
<g clip-path="url(#clip-0)">
<rect x="-12.28847" y="-15.24751" width="147.46164" height="182.97012" fill="rgb(100%, 100%, 100%)" fill-opacity="1"/>
<path fill="none" stroke-width="4" stroke-linecap="butt" stroke-linejoin="miter" stroke="rgb(0%, 0%, 0%)" stroke-opacity="1" stroke-miterlimit="4" d="M 0.000331328 101.297073 C 6.154596 101.659027 12.208093 101.954628 18.237554 102.205326 C 25.090957 102.490698 32.071942 102.746512 38.850389 101.063654 C 41.189929 100.480007 43.525099 99.59048 44.977865 97.674707 C 47.165538 94.791896 46.632813 91.672729 45.672473 88.301965 C 42.746607 78.057021 36.88544 67.516435 34.096404 56.443496 C 25.499898 22.318155 57.306684 -8.480217 91.352444 2.120019 C 115.703382 9.697985 127.923587 35.764263 121.819915 60.876584 C 119.935488 68.624065 116.510377 76.075239 114.304567 83.876846 C 112.989678 88.537304 112.096802 93.315748 110.498636 97.680645 C 109.547244 100.272728 108.523898 102.831967 109.98287 105.304068 C 111.240286 107.435841 113.833362 108.06217 116.28384 108.501472 C 120.917789 109.336449 125.565694 110.090215 130.239374 110.657891 C 136.380451 111.40275 142.565663 111.821879 148.771638 111.913518 " transform="matrix(0.0751501, 0.997172, -0.997172, 0.0751501, 109.6981, -6.23)"/>
</g>
<g clip-path="url(#clip-1)">
<path fill="none" stroke-width="4" stroke-linecap="butt" stroke-linejoin="miter" stroke="rgb(0%, 0%, 0%)" stroke-opacity="1" stroke-dasharray="8 8" stroke-miterlimit="4" d="M 57.602712 10.25175 C 70.778494 23.923625 70.778494 46.083781 57.602712 59.755656 C 44.423025 73.423625 23.059744 73.423625 9.883962 59.755656 C -3.295725 46.083781 -3.295725 23.923625 9.883962 10.25175 C 23.059744 -3.416219 44.423025 -3.416219 57.602712 10.25175 Z M 57.602712 10.25175 " transform="matrix(1, 0, 0, 1, 33.3426, 40.1545)"/>
</g>
<path fill="none" stroke-width="3" stroke-linecap="butt" stroke-linejoin="miter" stroke="rgb(0%, 0%, 0%)" stroke-opacity="1" stroke-miterlimit="4" d="M 0.00125 0.00036875 L 7.173125 0.00036875 " transform="matrix(0, -1, 1, 0, 115.5426, 84.595)"/>
<g clip-path="url(#clip-2)">
<path fill-rule="nonzero" fill="rgb(0%, 0%, 0%)" fill-opacity="1" d="M 122.144531 78.921875 L 115.542969 65.722656 L 108.941406 78.921875 Z M 122.144531 78.921875 "/>
</g>
<path fill-rule="nonzero" fill="rgb(0%, 0%, 0%)" fill-opacity="1" stroke-width="4" stroke-linecap="butt" stroke-linejoin="miter" stroke="rgb(0%, 0%, 0%)" stroke-opacity="1" stroke-miterlimit="4" d="M 14.798244 2.539163 C 18.184963 5.925881 18.184963 11.414163 14.798244 14.796975 C 11.411525 18.183694 5.923244 18.183694 2.540431 14.796975 C -0.846287 11.414163 -0.846287 5.925881 2.540431 2.539163 C 5.923244 -0.847556 11.411525 -0.847556 14.798244 2.539163 Z M 14.798244 2.539163 " transform="matrix(1, 0, 0, 1, 58.4166, 68.3749)"/>
</svg>
