<?xml version="1.0" encoding="UTF-8"?>
<svg xmlns="http://www.w3.org/2000/svg" xmlns:xlink="http://www.w3.org/1999/xlink" width="78.1106pt" height="77.9927pt" viewBox="0 0 78.1106 77.9927">
<defs>
<clipPath id="clip-0">
<path clip-rule="nonzero" d="M 0 0 L 78.109375 0 L 78.109375 77.992188 L 0 77.992188 Z M 0 0 "/>
</clipPath>
</defs>
<g clip-path="url(#clip-0)">
<rect x="-7.81106" y="-7.79927" width="93.73272" height="93.59124" fill="rgb(100%, 100%, 100%)" fill-opacity="1"/>
<path fill="none" stroke-width="4" stroke-linecap="butt" stroke-linejoin="miter" stroke="rgb(0%, 0%, 0%)" stroke-opacity="1" stroke-dasharray="8 8" stroke-miterlimit="4" d="M 57.601694 10.254281 C 70.781381 23.92225 70.781381 46.086312 57.601694 59.754281 C 44.425913 73.426156 23.058725 73.426156 9.882944 59.754281 C -3.292837 46.086312 -3.292837 23.92225 9.882944 10.254281 C 23.058725 -3.417594 44.425913 -3.417594 57.601694 10.254281 Z M 57.601694 10.254281 " transform="matrix(1, 0, 0, 1, 6.5819, 4.6715)"/>
</g>
<path fill-rule="nonzero" fill="rgb(0%, 0%, 0%)" fill-opacity="1" stroke-width="4" stroke-linecap="butt" stroke-linejoin="miter" stroke="rgb(0%, 0%, 0%)" stroke-opacity="1" stroke-miterlimit="4" d="M 14.797225 2.539975 C 18.183944 5.922787 18.183944 11.411069 14.797225 14.797787 C 11.414413 18.184506 5.926131 18.184506 2.539413 14.797787 C -0.847306 11.411069 -0.847306 5.922787 2.539413 2.539975 C 5.926131 -0.846744 11.414413 -0.846744 14.797225 2.539975 Z M 14.797225 2.539975 " transform="matrix(1, 0, 0, 1, 31.6559, 31.0069)"/>
</svg>
