<?xml version="1.0" encoding="UTF-8"?>
<svg xmlns="http://www.w3.org/2000/svg" xmlns:xlink="http://www.w3.org/1999/xlink" width="112.9613pt" height="156.982pt" viewBox="0 0 112.9613 156.982">
<defs>
<clipPath id="clip-0">
<path clip-rule="nonzero" d="M 0 0 L 112.960938 0 L 112.960938 156.980469 L 0 156.980469 Z M 0 0 "/>
</clipPath>
<clipPath id="clip-1">
<path clip-rule="nonzero" d="M 17 20 L 112.960938 20 L 112.960938 136 L 17 136 Z M 17 20 "/>
</clipPath>
<clipPath id="clip-2">
<path clip-rule="nonzero" d="M 10 0 L 15 0 L 15 156.980469 L 10 156.980469 Z M 10 0 "/>
</clipPath>
<clipPath id="clip-3">
<path clip-rule="nonzero" d="M 15.53125 0.046875 L 27.203125 154.949219 L 9.730469 156.265625 L -1.941406 1.363281 Z M 15.53125 0.046875 "/>
</clipPath>
</defs>
<g clip-path="url(#clip-0)">
<rect x="-11.29613" y="-15.6982" width="135.55356" height="188.3784" fill="rgb(100%, 100%, 100%)" fill-opacity="1"/>
</g>
<g clip-path="url(#clip-1)">
<path fill="none" stroke-width="4" stroke-linecap="butt" stroke-linejoin="miter" stroke="rgb(0%, 0%, 0%)" stroke-opacity="1" stroke-dasharray="8 8" stroke-miterlimit="4" d="M 57.600931 10.25305 C 70.780619 23.921019 70.780619 46.085081 57.600931 59.756956 C 44.42515 73.424925 23.061869 73.424925 9.882181 59.756956 C -3.2936 46.085081 -3.2936 23.921019 9.882181 10.25305 C 23.061869 -3.418825 44.42515 -3.418825 57.600931 10.25305 Z M 57.600931 10.25305 " transform="matrix(1, 0, 0, 1, 40.1686, 43.1532)"/>
</g>
<g clip-path="url(#clip-2)">
<g clip-path="url(#clip-3)">
<path fill="none" stroke-width="4" stroke-linecap="butt" stroke-linejoin="miter" stroke="rgb(0%, 0%, 0%)" stroke-opacity="1" stroke-miterlimit="4" d="M -0.00172386 0.0011675 L 153.040848 11.534943 " transform="matrix(0.0751501, 0.997172, -0.997172, 0.0751501, 12.6302, 1.4196)"/>
</g>
</g>
<path fill="none" stroke-width="3" stroke-linecap="butt" stroke-linejoin="miter" stroke="rgb(0%, 0%, 0%)" stroke-opacity="1" stroke-miterlimit="4" d="M -0.00015 -0.00129375 L 7.171725 -0.00129375 " transform="matrix(0, -1, 1, 0, 12.6302, 85.5936)"/>
<path fill-rule="nonzero" fill="rgb(0%, 0%, 0%)" fill-opacity="1" d="M 19.230469 79.921875 L 12.628906 66.71875 L 6.03125 79.921875 Z M 19.230469 79.921875 "/>
<path fill-rule="nonzero" fill="rgb(0%, 0%, 0%)" fill-opacity="1" stroke-width="4" stroke-linecap="butt" stroke-linejoin="miter" stroke="rgb(0%, 0%, 0%)" stroke-opacity="1" stroke-miterlimit="4" d="M 14.796462 2.538744 C 18.183181 5.925463 18.183181 11.413744 14.796462 14.796556 C 11.41365 18.183275 5.925369 18.183275 2.53865 14.796556 C -0.848069 11.413744 -0.848069 5.925463 2.53865 2.538744 C 5.925369 -0.847975 11.41365 -0.847975 14.796462 2.538744 Z M 14.796462 2.538744 " transform="matrix(1, 0, 0, 1, 65.2426, 69.4886)"/>
</svg>
